<?xml version="1.0" encoding="utf-8"?>
<!-- Generator: Adobe Illustrator 15.1.0, SVG Export Plug-In . SVG Version: 6.00 Build 0)  -->
<!DOCTYPE svg PUBLIC "-//W3C//DTD SVG 1.1//EN" "http://www.w3.org/Graphics/SVG/1.1/DTD/svg11.dtd">
<svg version="1.1" id="Ebene_1" xmlns="http://www.w3.org/2000/svg" xmlns:xlink="http://www.w3.org/1999/xlink" x="0px" y="0px"
	 width="70px" height="70px" viewBox="0 0 70 70" enable-background="new 0 0 70 70" xml:space="preserve">
<g>
	<path fill="#E53E1F" d="M34.5,64.5c16.016,0,29-12.984,29-29s-12.984-29-29-29c-16.016,0-29,12.984-29,29S18.484,64.5,34.5,64.5"/>
</g>
<g>
	<path fill="#E53E1F" d="M34.5,65.5c-16.542,0-30-13.458-30-30s13.458-30,30-30s30,13.458,30,30S51.042,65.5,34.5,65.5z M34.5,7.5
		c-15.439,0-28,12.561-28,28s12.561,28,28,28c15.439,0,28-12.561,28-28S49.939,7.5,34.5,7.5z"/>
</g>
<g>
	<path fill="#FFFFFF" d="M31.21,26.911c-1.758-3.454-2.455-6.556-5.574-4.724c-1.579,0.74-10.479,7.785,1.956,20.22h0.001
		c12.435,12.436,19.478,3.536,20.22,1.956c1.83-3.118-1.27-3.814-4.724-5.572c-3.455-1.759-3.761,2.969-6.159,2.426
		c-0.703-0.162-2.727-1.781-4.581-3.566c-1.785-1.853-3.402-3.875-3.565-4.58C28.241,30.672,32.968,30.366,31.21,26.911"/>
</g>
</svg>
