<?xml version="1.0" encoding="utf-8"?>
<!-- Generator: Adobe Illustrator 15.1.0, SVG Export Plug-In . SVG Version: 6.00 Build 0)  -->
<!DOCTYPE svg PUBLIC "-//W3C//DTD SVG 1.1//EN" "http://www.w3.org/Graphics/SVG/1.1/DTD/svg11.dtd">
<svg version="1.1" id="Ebene_1" xmlns="http://www.w3.org/2000/svg" xmlns:xlink="http://www.w3.org/1999/xlink" x="0px" y="0px"
	 width="70px" height="170px" viewBox="0 0 70 170" enable-background="new 0 0 70 170" xml:space="preserve">
<g>
	<g>
		<path fill="#E53B1E" d="M35,158c16.016,0,29-12.984,29-29s-12.984-29-29-29c-16.016,0-29,12.984-29,29S18.984,158,35,158"/>
	</g>
	<g>
		<path fill="#E53B1E" d="M35,159c-16.542,0-30-13.458-30-30s13.458-30,30-30s30,13.458,30,30S51.542,159,35,159z M35,101
			c-15.439,0-28,12.561-28,28s12.561,28,28,28s28-12.561,28-28S50.439,101,35,101z"/>
	</g>
	<g>
		<path fill="#FFFFFF" d="M31.71,120.411c-1.758-3.454-2.455-6.555-5.574-4.723c-1.579,0.74-10.479,7.784,1.956,20.219h0.001
			c12.435,12.436,19.478,3.536,20.219,1.957c1.831-3.119-1.269-3.815-4.723-5.573c-3.455-1.759-3.761,2.969-6.159,2.426
			c-0.704-0.163-2.727-1.781-4.581-3.566c-1.785-1.853-3.402-3.876-3.565-4.58C28.741,124.172,33.468,123.866,31.71,120.411"/>
	</g>
	<g>
		<path fill="#E53B1E" d="M35,68.96c16.016,0,29-12.984,29-29s-12.984-29-29-29c-16.016,0-29,12.984-29,29S18.984,68.96,35,68.96"/>
	</g>
	<g>
		<path fill="#E53B1E" d="M35,69.96c-16.542,0-30-13.458-30-30s13.458-30,30-30s30,13.458,30,30S51.542,69.96,35,69.96z M35,11.96
			c-15.439,0-28,12.561-28,28s12.561,28,28,28s28-12.561,28-28S50.439,11.96,35,11.96z"/>
	</g>
</g>
<g>
	<rect x="18.25" y="27.659" fill="#FFFFFF" width="33.5" height="24.602"/>
</g>
<g>
	<path fill="#E53B1E" d="M52.75,53.261h-35.5V26.659h35.5V53.261z M19.25,51.261h31.5V28.659h-31.5V51.261z"/>
</g>
<g>
	<polyline fill="#FFFFFF" points="19.482,28.882 35,44.252 50.518,28.882 	"/>
</g>
<g>
	<polygon fill="#E53B1E" points="35,45.66 18.068,28.889 19.475,27.468 35,42.845 50.524,27.468 51.932,28.889 	"/>
</g>
<g>
	
		<rect x="23.074" y="37.576" transform="matrix(0.7604 0.6495 -0.6495 0.7604 35.1804 -4.7841)" fill="#E53B1E" width="2" height="15.414"/>
</g>
<g>
	
		<rect x="38.219" y="44.283" transform="matrix(0.6496 0.7603 -0.7603 0.6496 50.5218 -19.0494)" fill="#E53B1E" width="15.414" height="2"/>
</g>
</svg>
