<?xml version="1.0" encoding="utf-8"?>
<!-- Generator: Adobe Illustrator 15.1.0, SVG Export Plug-In . SVG Version: 6.00 Build 0)  -->
<!DOCTYPE svg PUBLIC "-//W3C//DTD SVG 1.1//EN" "http://www.w3.org/Graphics/SVG/1.1/DTD/svg11.dtd">
<svg version="1.1" id="Ebene_1" xmlns="http://www.w3.org/2000/svg" xmlns:xlink="http://www.w3.org/1999/xlink" x="0px" y="0px"
	 width="70px" height="70px" viewBox="0 0 70 70" enable-background="new 0 0 70 70" xml:space="preserve">
<g>
	<path fill="#E53E1F" d="M34.5,64.46c16.016,0,29-12.983,29-29c0-16.016-12.984-29-29-29c-16.016,0-29,12.984-29,29
		C5.5,51.477,18.484,64.46,34.5,64.46"/>
</g>
<g>
	<path fill="#E53E1F" d="M34.5,65.46c-16.542,0-30-13.458-30-30s13.458-30,30-30s30,13.458,30,30S51.042,65.46,34.5,65.46z
		 M34.5,7.46c-15.439,0-28,12.561-28,28c0,15.438,12.561,28,28,28c15.439,0,28-12.562,28-28C62.5,20.021,49.939,7.46,34.5,7.46z"/>
</g>
<g>
	<rect x="17.75" y="23.159" fill="#FFFFFF" width="33.5" height="24.602"/>
</g>
<g>
	<path fill="#E53E1F" d="M52.25,48.761h-35.5V22.159h35.5V48.761z M18.75,46.761h31.5V24.159h-31.5V46.761z"/>
</g>
<g>
	<polyline fill="#FFFFFF" points="18.982,24.382 34.5,39.752 50.018,24.382 	"/>
</g>
<g>
	<polygon fill="#E53E1F" points="34.5,41.16 17.568,24.389 18.975,22.968 34.5,38.346 50.023,22.968 51.432,24.389 	"/>
</g>
<g>
	
		<rect x="22.575" y="33.078" transform="matrix(-0.7604 -0.6495 0.6495 -0.7604 15.0103 87.1085)" fill="#E53E1F" width="2" height="15.414"/>
</g>
<g>
	
		<rect x="37.72" y="39.784" transform="matrix(-0.6496 -0.7603 0.7603 -0.6496 43.9273 101.814)" fill="#E53E1F" width="15.414" height="2"/>
</g>
</svg>
