<?xml version="1.0" encoding="utf-8"?>
<!-- Generator: Adobe Illustrator 15.1.0, SVG Export Plug-In . SVG Version: 6.00 Build 0)  -->
<!DOCTYPE svg PUBLIC "-//W3C//DTD SVG 1.1//EN" "http://www.w3.org/Graphics/SVG/1.1/DTD/svg11.dtd">
<svg version="1.1" id="Ebene_1" xmlns="http://www.w3.org/2000/svg" xmlns:xlink="http://www.w3.org/1999/xlink" x="0px" y="0px"
	 width="400px" height="70px" viewBox="0 0 400 70" enable-background="new 0 0 400 70" xml:space="preserve">
<g>
	<g>
		<g>
			<defs>
				<rect id="SVGID_1_" x="70.5" y="40.425" width="130.458" height="12.896"/>
			</defs>
			<clipPath id="SVGID_2_">
				<use xlink:href="#SVGID_1_"  overflow="visible"/>
			</clipPath>
			<path clip-path="url(#SVGID_2_)" fill="#697482" d="M189.88,52.018c0.21,0.203,0.506,0.305,0.889,0.305
				c0.373,0,0.665-0.104,0.875-0.312c0.209-0.206,0.314-0.491,0.314-0.852c0-0.374-0.103-0.661-0.311-0.861
				c-0.207-0.2-0.5-0.301-0.878-0.301c-0.392,0-0.691,0.099-0.896,0.294s-0.307,0.484-0.307,0.868
				C189.566,51.527,189.671,51.814,189.88,52.018 M187.672,52.137v-7.643h-2.085v3.596c0,0.902-0.13,1.549-0.389,1.938
				c-0.26,0.39-0.682,0.584-1.265,0.584c-0.428,0-0.741-0.137-0.937-0.413c-0.196-0.275-0.294-0.688-0.294-1.24v-4.464h-2.084v4.982
				c0,0.902,0.227,1.594,0.683,2.075c0.456,0.48,1.133,0.722,2.03,0.722c0.524,0,0.992-0.098,1.402-0.291s0.727-0.469,0.95-0.823
				h0.109l0.281,0.978H187.672z M176.441,49.225c0,0.461-0.145,0.83-0.434,1.107c-0.29,0.277-0.676,0.417-1.159,0.417
				c-0.675,0-1.012-0.294-1.012-0.882c0-0.41,0.148-0.717,0.445-0.916c0.296-0.201,0.747-0.311,1.353-0.328l0.807-0.027V49.225
				L176.441,49.225z M178.512,52.137v-5.093c0-0.912-0.273-1.591-0.82-2.037s-1.333-0.67-2.359-0.67
				c-1.071,0-2.046,0.229-2.925,0.69l0.69,1.408c0.825-0.369,1.543-0.555,2.153-0.555c0.793,0,1.19,0.389,1.19,1.162v0.335
				l-1.326,0.041c-1.144,0.041-2,0.254-2.567,0.64c-0.568,0.385-0.851,0.982-0.851,1.795c0,0.773,0.21,1.371,0.632,1.791
				c0.421,0.42,0.999,0.629,1.733,0.629c0.597,0,1.081-0.086,1.452-0.256c0.372-0.172,0.733-0.479,1.084-0.92h0.055l0.403,1.039
				H178.512L178.512,52.137z M167.971,46.582c0.255,0.376,0.383,0.939,0.383,1.691s-0.127,1.326-0.38,1.72
				c-0.252,0.396-0.593,0.592-1.022,0.592c-0.528,0-0.914-0.178-1.158-0.533c-0.244-0.354-0.366-0.942-0.366-1.764v-0.226
				c0.009-0.729,0.132-1.252,0.369-1.569c0.237-0.315,0.613-0.476,1.128-0.476C167.367,46.02,167.716,46.206,167.971,46.582
				 M165.428,45.484h-0.082c0.055-0.692,0.082-1.195,0.082-1.51V41.5h-2.085v10.637h1.593l0.348-0.841h0.144
				c0.51,0.651,1.214,0.978,2.112,0.978c0.907,0,1.624-0.346,2.15-1.039c0.527-0.692,0.79-1.67,0.79-2.933
				c0-1.226-0.255-2.19-0.766-2.896c-0.51-0.704-1.217-1.057-2.119-1.057C166.638,44.352,165.916,44.729,165.428,45.484
				 M162.146,44.494h-1.805v-0.479c0-0.273,0.066-0.498,0.198-0.674s0.347-0.264,0.643-0.264c0.355,0,0.743,0.066,1.162,0.197
				l0.533-1.53c-0.56-0.214-1.201-0.322-1.921-0.322c-0.943,0-1.629,0.201-2.057,0.603c-0.429,0.401-0.643,1.037-0.643,1.908v0.561
				l-1.148,0.561v1.006h1.148v6.076h2.085v-6.076h1.805V44.494z M155.735,52.137v-7.643h-2.085v3.596c0,0.902-0.13,1.549-0.39,1.938
				c-0.26,0.39-0.681,0.584-1.265,0.584c-0.428,0-0.74-0.137-0.936-0.413c-0.196-0.275-0.294-0.688-0.294-1.24v-4.464h-2.085v4.982
				c0,0.902,0.228,1.594,0.684,2.075c0.455,0.48,1.132,0.722,2.03,0.722c0.524,0,0.991-0.098,1.401-0.291s0.727-0.469,0.95-0.823
				h0.11l0.28,0.978H155.735z M141.509,47.98c0.711-2.301,1.142-3.744,1.292-4.328c0.037,0.164,0.097,0.388,0.181,0.671
				c0.085,0.282,0.462,1.502,1.132,3.657H141.509z M147.626,52.137l-3.541-10.035h-2.591l-3.527,10.035h2.283l0.725-2.38h3.643
				l0.725,2.38H147.626z M128.521,48.302c0-0.794,0.126-1.37,0.379-1.735c0.253-0.364,0.635-0.547,1.145-0.547
				c0.397,0,0.687,0.138,0.872,0.414c0.184,0.274,0.277,0.688,0.277,1.239v4.464h2.091v-4.982c0-0.98-0.222-1.692-0.666-2.137
				c-0.444-0.444-1.1-0.666-1.965-0.666c-0.502,0-0.952,0.098-1.35,0.293c-0.399,0.195-0.701,0.473-0.906,0.828h-0.185
				c-0.405-0.748-1.18-1.121-2.324-1.121c-0.501,0-0.946,0.099-1.333,0.297c-0.387,0.199-0.684,0.473-0.889,0.824h-0.116
				l-0.28-0.979h-1.593v7.643h2.085v-3.596c0-0.896,0.121-1.543,0.362-1.936c0.242-0.393,0.629-0.588,1.162-0.588
				c0.397,0,0.687,0.139,0.872,0.414c0.185,0.275,0.277,0.688,0.277,1.24v4.464h2.085V48.302L128.521,48.302z M119.491,44.494
				h-2.085v7.645h2.085V44.494z M118.451,43.544c0.379,0,0.662-0.09,0.852-0.271c0.189-0.18,0.283-0.432,0.283-0.756
				c0-0.68-0.378-1.019-1.135-1.019c-0.756,0-1.134,0.339-1.134,1.019C117.317,43.202,117.695,43.544,118.451,43.544
				 M111.622,47.152c0-0.901-0.232-1.594-0.697-2.077c-0.465-0.482-1.146-0.726-2.044-0.726c-1.012,0-1.75,0.375-2.215,1.121h-0.109
				l0.048-0.615c0.032-0.623,0.048-1.021,0.048-1.188V41.5h-2.085v10.637h2.085v-3.596c0-0.889,0.13-1.531,0.389-1.928
				c0.26-0.397,0.682-0.596,1.265-0.596c0.82,0,1.23,0.553,1.23,1.654v4.464h2.085V47.152L111.622,47.152z M101.775,52.15
				c0.344-0.082,0.685-0.23,1.022-0.444v-1.784c-0.342,0.229-0.683,0.396-1.025,0.502c-0.342,0.107-0.713,0.161-1.114,0.161
				c-1.085,0-1.627-0.748-1.627-2.242c0-1.54,0.542-2.311,1.627-2.311c0.282,0,0.565,0.042,0.847,0.126
				c0.283,0.085,0.588,0.193,0.916,0.324l0.615-1.612c-0.701-0.347-1.494-0.521-2.378-0.521c-1.208,0-2.136,0.344-2.783,1.028
				c-0.647,0.687-0.97,1.679-0.97,2.978c0,2.611,1.189,3.918,3.568,3.918C100.997,52.273,101.431,52.232,101.775,52.15
				 M95.196,46.203c-0.301-0.598-0.732-1.055-1.292-1.374c-0.561-0.318-1.208-0.479-1.942-0.479c-1.18,0-2.096,0.348-2.748,1.039
				c-0.652,0.692-0.977,1.664-0.977,2.912c0,0.803,0.15,1.504,0.451,2.105c0.301,0.601,0.731,1.062,1.292,1.384
				c0.56,0.321,1.207,0.481,1.941,0.481c1.171,0,2.085-0.352,2.741-1.053c0.657-0.701,0.985-1.675,0.985-2.919
				C95.646,47.499,95.496,46.801,95.196,46.203 M90.732,46.598c0.246-0.377,0.647-0.564,1.203-0.564c0.56,0,0.964,0.189,1.21,0.566
				c0.246,0.379,0.369,0.945,0.369,1.702c0,0.763-0.122,1.335-0.366,1.72c-0.244,0.386-0.643,0.578-1.199,0.578
				c-0.561,0-0.965-0.193-1.214-0.582c-0.248-0.388-0.372-0.959-0.372-1.716C90.363,47.54,90.486,46.973,90.732,46.598
				 M86.555,47.152c0-0.906-0.23-1.601-0.69-2.082c-0.461-0.479-1.135-0.721-2.024-0.721c-0.519,0-0.983,0.096-1.391,0.284
				c-0.408,0.188-0.728,0.468-0.96,0.837h-0.117l-0.28-0.978H79.5v7.643h2.085V48.54c0-0.901,0.13-1.549,0.39-1.938
				c0.26-0.391,0.681-0.584,1.265-0.584c0.428,0,0.74,0.137,0.936,0.414c0.196,0.274,0.294,0.688,0.294,1.239v4.464h2.085V47.152z"
				/>
		</g>
	</g>
</g>
<g>
	<g>
		<g>
			<defs>
				<rect id="SVGID_3_" x="70.664" y="18.425" width="258.475" height="12.849"/>
			</defs>
			<clipPath id="SVGID_4_">
				<use xlink:href="#SVGID_3_"  overflow="visible"/>
			</clipPath>
			<path clip-path="url(#SVGID_4_)" fill="#697482" d="M318.167,28.4c-0.166-0.142-0.25-0.359-0.25-0.656V24.06h2.14v-1.565h-2.14
				v-1.627h-1.333l-0.601,1.613l-1.149,0.697v0.882h0.998v3.685c0,0.844,0.191,1.476,0.571,1.897
				c0.381,0.42,0.987,0.631,1.821,0.631c0.758,0,1.396-0.115,1.914-0.349v-1.552c-0.51,0.159-0.947,0.238-1.312,0.238
				C318.553,28.611,318.333,28.542,318.167,28.4 M313.418,22.494h-2.085v7.645h2.085V22.494z M312.379,21.544
				c0.379,0,0.662-0.091,0.852-0.271c0.188-0.18,0.283-0.431,0.283-0.755c0-0.679-0.378-1.019-1.135-1.019
				c-0.756,0-1.134,0.34-1.134,1.019C311.246,21.202,311.624,21.544,312.379,21.544 M308.04,30.141
				c0.414-0.089,0.804-0.225,1.168-0.406V28.12c-0.446,0.21-0.875,0.362-1.285,0.458s-0.845,0.145-1.305,0.145
				c-0.593,0-1.053-0.166-1.381-0.5c-0.328-0.332-0.504-0.795-0.527-1.388h4.929v-1.012c0-1.085-0.301-1.935-0.901-2.55
				c-0.603-0.615-1.443-0.923-2.523-0.923c-1.13,0-2.015,0.35-2.655,1.049c-0.641,0.7-0.961,1.69-0.961,2.971
				c0,1.244,0.347,2.205,1.039,2.885c0.693,0.679,1.654,1.019,2.885,1.019C307.119,30.273,307.625,30.229,308.04,30.141
				 M307.28,24.255c0.26,0.279,0.394,0.678,0.402,1.192h-2.926c0.037-0.515,0.181-0.913,0.432-1.192
				c0.251-0.28,0.597-0.421,1.038-0.421C306.669,23.834,307.021,23.975,307.28,24.255 M301.633,28.387h-4.915l4.785-6.877v-1.367
				h-7.177v1.75h4.662l-4.792,6.871v1.373h7.437V28.387z M289.13,30.137v-7.643h-2.085v3.596c0,0.902-0.13,1.549-0.389,1.938
				c-0.26,0.392-0.683,0.586-1.266,0.586c-0.428,0-0.74-0.139-0.936-0.414c-0.196-0.275-0.294-0.688-0.294-1.24v-4.464h-2.085v4.983
				c0,0.901,0.227,1.594,0.683,2.074s1.133,0.721,2.031,0.721c0.524,0,0.991-0.097,1.401-0.291c0.409-0.191,0.727-0.467,0.949-0.822
				h0.109l0.281,0.979h1.599V30.137z M280.606,28.544h-3.568l3.445-4.696v-1.354h-5.701v1.593h3.329l-3.541,4.819v1.229h6.036
				V28.544L280.606,28.544z M269.504,25.153c0-0.902-0.232-1.595-0.697-2.078c-0.465-0.482-1.146-0.725-2.043-0.725
				c-1.013,0-1.75,0.374-2.216,1.121h-0.108l0.047-0.615c0.033-0.624,0.049-1.021,0.049-1.189V19.5h-2.085v10.637h2.085v-3.596
				c0-0.889,0.13-1.531,0.389-1.928c0.26-0.396,0.682-0.595,1.266-0.595c0.819,0,1.229,0.551,1.229,1.654v4.464h2.085V25.153
				L269.504,25.153z M259.658,30.15c0.344-0.082,0.685-0.229,1.021-0.444v-1.784c-0.342,0.229-0.683,0.396-1.025,0.503
				c-0.342,0.106-0.713,0.16-1.113,0.16c-1.085,0-1.627-0.747-1.627-2.242c0-1.54,0.542-2.311,1.627-2.311
				c0.282,0,0.564,0.042,0.848,0.126c0.282,0.085,0.588,0.193,0.915,0.325l0.615-1.613c-0.701-0.347-1.494-0.52-2.378-0.52
				c-1.208,0-2.137,0.343-2.783,1.029s-0.97,1.678-0.97,2.977c0,2.611,1.188,3.917,3.567,3.917
				C258.879,30.273,259.312,30.232,259.658,30.15 M253.064,22.494h-2.086v7.645h2.086V22.494z M252.025,21.544
				c0.377,0,0.662-0.091,0.851-0.271s0.284-0.431,0.284-0.755c0-0.679-0.379-1.019-1.135-1.019c-0.758,0-1.135,0.34-1.135,1.019
				C250.891,21.202,251.27,21.544,252.025,21.544 M249.154,26.89c-0.133-0.273-0.338-0.515-0.615-0.725
				c-0.279-0.209-0.716-0.436-1.312-0.677c-0.67-0.269-1.104-0.472-1.303-0.608c-0.197-0.137-0.298-0.298-0.298-0.485
				c0-0.333,0.308-0.499,0.923-0.499c0.348,0,0.686,0.052,1.02,0.157c0.332,0.104,0.689,0.239,1.072,0.403l0.629-1.504
				c-0.871-0.4-1.766-0.602-2.687-0.602c-0.966,0-1.712,0.186-2.237,0.557c-0.527,0.372-0.791,0.897-0.791,1.576
				c0,0.396,0.063,0.73,0.188,1.001s0.325,0.513,0.602,0.722c0.275,0.21,0.707,0.438,1.296,0.684
				c0.409,0.172,0.737,0.325,0.983,0.456c0.247,0.129,0.42,0.245,0.521,0.348c0.1,0.104,0.149,0.236,0.149,0.399
				c0,0.438-0.378,0.656-1.134,0.656c-0.37,0-0.797-0.062-1.282-0.185s-0.922-0.275-1.31-0.459v1.725
				c0.343,0.145,0.709,0.256,1.101,0.33s0.866,0.113,1.422,0.113c1.085,0,1.899-0.205,2.444-0.615s0.816-1.008,0.816-1.791
				C249.354,27.488,249.287,27.164,249.154,26.89 M236.867,28.4c-0.166-0.142-0.249-0.359-0.249-0.656V24.06h2.139v-1.565h-2.139
				v-1.627h-1.333l-0.602,1.613l-1.148,0.697v0.882h0.998v3.685c0,0.844,0.189,1.476,0.57,1.897c0.381,0.42,0.987,0.631,1.821,0.631
				c0.757,0,1.396-0.115,1.914-0.349v-1.552c-0.51,0.159-0.948,0.238-1.312,0.238C237.252,28.611,237.033,28.542,236.867,28.4
				 M231.012,30.141c0.415-0.089,0.805-0.225,1.17-0.406V28.12c-0.447,0.21-0.875,0.362-1.285,0.458s-0.846,0.145-1.307,0.145
				c-0.592,0-1.052-0.166-1.381-0.5c-0.328-0.332-0.503-0.795-0.525-1.388h4.928v-1.012c0-1.085-0.301-1.935-0.902-2.55
				c-0.602-0.615-1.441-0.923-2.521-0.923c-1.131,0-2.017,0.35-2.656,1.049c-0.641,0.7-0.961,1.69-0.961,2.971
				c0,1.244,0.347,2.205,1.039,2.885c0.693,0.679,1.654,1.019,2.886,1.019C230.091,30.273,230.598,30.229,231.012,30.141
				 M230.252,24.255c0.26,0.279,0.395,0.678,0.404,1.192h-2.926c0.035-0.515,0.18-0.913,0.431-1.192
				c0.25-0.28,0.597-0.421,1.039-0.421S229.994,23.975,230.252,24.255 M219.212,28.049c-0.259-0.376-0.389-0.939-0.389-1.692
				c0-0.752,0.128-1.325,0.386-1.719c0.257-0.395,0.619-0.592,1.083-0.592c0.569,0,0.981,0.178,1.233,0.534
				c0.254,0.354,0.381,0.942,0.381,1.763v0.226c-0.023,0.744-0.159,1.27-0.407,1.58c-0.248,0.311-0.64,0.465-1.172,0.465
				C219.846,28.611,219.473,28.425,219.212,28.049 M221.764,29.146h0.088l0.403,0.99h1.601V19.5h-2.092v2.448
				c0,0.446,0.051,0.954,0.156,1.524h-0.068c-0.506-0.747-1.24-1.121-2.201-1.121c-0.916,0-1.635,0.35-2.156,1.049
				c-0.521,0.7-0.783,1.676-0.783,2.931c0,1.233,0.257,2.2,0.77,2.897c0.513,0.696,1.218,1.045,2.115,1.045
				C220.566,30.273,221.289,29.896,221.764,29.146 M215.029,25.153c0-0.906-0.23-1.601-0.691-2.082
				c-0.46-0.48-1.134-0.721-2.023-0.721c-0.52,0-0.982,0.095-1.391,0.284c-0.408,0.188-0.729,0.468-0.961,0.837h-0.115l-0.281-0.978
				h-1.592v7.643h2.084V26.54c0-0.902,0.131-1.549,0.391-1.938c0.259-0.389,0.681-0.584,1.264-0.584c0.43,0,0.741,0.138,0.938,0.414
				c0.195,0.275,0.293,0.689,0.293,1.24v4.464h2.086V25.153L215.029,25.153z M205.793,22.494h-2.085v7.645h2.085V22.494z
				 M204.754,21.544c0.379,0,0.662-0.091,0.852-0.271c0.188-0.18,0.283-0.431,0.283-0.755c0-0.679-0.378-1.019-1.135-1.019
				c-0.756,0-1.134,0.34-1.134,1.019C203.621,21.202,203.999,21.544,204.754,21.544 M202.514,22.494h-1.806v-0.479
				c0-0.273,0.066-0.498,0.199-0.673c0.132-0.176,0.346-0.263,0.642-0.263c0.355,0,0.743,0.065,1.162,0.197l0.534-1.531
				c-0.562-0.215-1.201-0.322-1.921-0.322c-0.944,0-1.63,0.201-2.058,0.602c-0.428,0.401-0.642,1.037-0.642,1.907v0.561
				l-1.149,0.561v1.005h1.149v6.077h2.084V24.06h1.806V22.494z M194.994,30.141c0.414-0.089,0.804-0.225,1.169-0.406V28.12
				c-0.447,0.21-0.875,0.362-1.286,0.458c-0.41,0.096-0.845,0.145-1.305,0.145c-0.593,0-1.053-0.166-1.381-0.5
				c-0.328-0.332-0.504-0.795-0.526-1.388h4.928v-1.012c0-1.085-0.301-1.935-0.902-2.55c-0.602-0.615-1.442-0.923-2.523-0.923
				c-1.13,0-2.015,0.35-2.655,1.049c-0.641,0.7-0.961,1.69-0.961,2.971c0,1.244,0.347,2.205,1.039,2.885
				c0.693,0.679,1.655,1.019,2.885,1.019C194.072,30.273,194.579,30.229,194.994,30.141 M194.234,24.255
				c0.26,0.279,0.394,0.678,0.403,1.192h-2.926c0.037-0.515,0.18-0.913,0.431-1.192c0.251-0.28,0.597-0.421,1.039-0.421
				C193.624,23.834,193.975,23.975,194.234,24.255 M185.786,24.583c0.255,0.376,0.382,0.939,0.382,1.691
				c0,0.751-0.126,1.326-0.379,1.719c-0.253,0.396-0.594,0.592-1.022,0.592c-0.529,0-0.915-0.178-1.159-0.533
				c-0.243-0.354-0.365-0.942-0.365-1.763v-0.227c0.009-0.729,0.132-1.252,0.369-1.569c0.237-0.316,0.613-0.475,1.128-0.475
				C185.182,24.019,185.529,24.207,185.786,24.583 M183.243,23.485h-0.082c0.054-0.692,0.082-1.196,0.082-1.511V19.5h-2.085v10.637
				h1.592l0.349-0.841h0.144c0.51,0.651,1.214,0.978,2.112,0.978c0.907,0,1.623-0.346,2.15-1.039
				c0.526-0.691,0.789-1.67,0.789-2.933c0-1.227-0.255-2.191-0.765-2.896c-0.511-0.704-1.217-1.056-2.119-1.056
				C184.453,22.351,183.729,22.729,183.243,23.485 M174.226,30.141c0.415-0.089,0.804-0.225,1.169-0.406V28.12
				c-0.447,0.21-0.875,0.362-1.285,0.458c-0.41,0.096-0.846,0.145-1.306,0.145c-0.592,0-1.053-0.166-1.381-0.5
				c-0.328-0.332-0.503-0.795-0.526-1.388h4.929v-1.012c0-1.085-0.301-1.935-0.903-2.55c-0.601-0.615-1.442-0.923-2.522-0.923
				c-1.13,0-2.016,0.35-2.656,1.049c-0.64,0.7-0.96,1.69-0.96,2.971c0,1.244,0.346,2.205,1.039,2.885
				c0.692,0.679,1.654,1.019,2.884,1.019C173.305,30.273,173.811,30.229,174.226,30.141 M173.466,24.255
				c0.26,0.279,0.394,0.678,0.404,1.192h-2.926c0.036-0.515,0.18-0.913,0.43-1.192c0.251-0.28,0.597-0.421,1.04-0.421
				C172.856,23.834,173.207,23.975,173.466,24.255 M165.731,28.4c-0.166-0.142-0.249-0.359-0.249-0.656V24.06h2.14v-1.565h-2.14
				v-1.627h-1.333l-0.602,1.613l-1.148,0.697v0.882h0.998v3.685c0,0.844,0.19,1.476,0.571,1.897c0.38,0.42,0.988,0.631,1.822,0.631
				c0.756,0,1.394-0.115,1.914-0.349v-1.552c-0.511,0.159-0.948,0.238-1.313,0.238C166.119,28.611,165.898,28.542,165.731,28.4
				 M160.984,22.494h-2.085v7.645h2.085V22.494z M159.945,21.544c0.378,0,0.662-0.091,0.851-0.271s0.284-0.431,0.284-0.755
				c0-0.679-0.379-1.019-1.135-1.019c-0.757,0-1.135,0.34-1.135,1.019C158.811,21.202,159.188,21.544,159.945,21.544 M157.075,26.89
				c-0.133-0.273-0.338-0.515-0.616-0.725c-0.278-0.209-0.715-0.436-1.312-0.677c-0.67-0.269-1.104-0.472-1.302-0.608
				c-0.199-0.137-0.298-0.298-0.298-0.485c0-0.333,0.308-0.499,0.923-0.499c0.346,0,0.686,0.052,1.019,0.157
				c0.332,0.104,0.69,0.239,1.073,0.403l0.629-1.504c-0.871-0.4-1.766-0.602-2.687-0.602c-0.966,0-1.712,0.186-2.238,0.557
				c-0.527,0.372-0.79,0.897-0.79,1.576c0,0.396,0.063,0.73,0.188,1.001s0.326,0.513,0.602,0.722
				c0.275,0.21,0.707,0.438,1.295,0.684c0.41,0.172,0.738,0.325,0.984,0.456c0.246,0.129,0.42,0.245,0.52,0.348
				c0.1,0.104,0.15,0.236,0.15,0.399c0,0.438-0.378,0.656-1.134,0.656c-0.37,0-0.797-0.062-1.282-0.185
				c-0.486-0.123-0.922-0.275-1.309-0.459v1.725c0.342,0.145,0.708,0.256,1.1,0.33s0.866,0.113,1.422,0.113
				c1.085,0,1.899-0.205,2.444-0.615s0.817-1.008,0.817-1.791C157.272,27.488,157.207,27.164,157.075,26.89 M147.708,24.583
				c0.256,0.376,0.383,0.939,0.383,1.691c0,0.751-0.126,1.326-0.379,1.719c-0.253,0.396-0.594,0.592-1.022,0.592
				c-0.529,0-0.915-0.178-1.159-0.533c-0.244-0.354-0.366-0.942-0.366-1.763v-0.227c0.01-0.729,0.133-1.252,0.37-1.569
				c0.237-0.316,0.613-0.475,1.128-0.475C147.105,24.019,147.454,24.207,147.708,24.583 M145.166,23.485h-0.082
				c0.055-0.692,0.082-1.196,0.082-1.511V19.5h-2.084v10.637h1.592l0.349-0.841h0.143c0.511,0.651,1.215,0.978,2.113,0.978
				c0.907,0,1.623-0.346,2.15-1.039c0.526-0.691,0.789-1.67,0.789-2.933c0-1.227-0.255-2.191-0.765-2.896
				c-0.511-0.704-1.217-1.056-2.12-1.056C146.375,22.351,145.653,22.729,145.166,23.485 M139.787,30.141
				c0.414-0.089,0.804-0.225,1.169-0.406V28.12c-0.447,0.21-0.875,0.362-1.286,0.458c-0.41,0.096-0.845,0.145-1.305,0.145
				c-0.593,0-1.053-0.166-1.381-0.5c-0.328-0.332-0.504-0.795-0.527-1.388h4.929v-1.012c0-1.085-0.301-1.935-0.902-2.55
				c-0.602-0.615-1.443-0.923-2.523-0.923c-1.13,0-2.015,0.35-2.655,1.049c-0.641,0.7-0.961,1.69-0.961,2.971
				c0,1.244,0.346,2.205,1.039,2.885c0.693,0.679,1.655,1.019,2.885,1.019C138.866,30.273,139.372,30.229,139.787,30.141
				 M139.027,24.255c0.26,0.279,0.394,0.678,0.403,1.192h-2.926c0.037-0.515,0.18-0.913,0.431-1.192
				c0.251-0.28,0.597-0.421,1.039-0.421S138.768,23.975,139.027,24.255 M133.715,20.143h-2.085l-1.271,5.455
				c-0.082,0.328-0.173,0.758-0.274,1.289c-0.1,0.531-0.173,0.974-0.218,1.329c-0.051-0.368-0.123-0.812-0.219-1.326
				c-0.096-0.515-0.176-0.898-0.239-1.148l-1.456-5.599h-2.003l-1.456,5.599c-0.087,0.301-0.179,0.724-0.277,1.269
				c-0.098,0.544-0.161,0.946-0.188,1.206c-0.101-0.738-0.262-1.611-0.486-2.618l-1.278-5.455h-2.085l2.55,9.995h2.406l1.347-5.237
				c0.059-0.232,0.143-0.621,0.253-1.166c0.109-0.544,0.178-0.939,0.205-1.186c0.018,0.201,0.088,0.594,0.208,1.179
				c0.121,0.586,0.207,0.972,0.257,1.159l1.353,5.25h2.413L133.715,20.143z M114.342,30.141c0.415-0.089,0.805-0.225,1.169-0.406
				V28.12c-0.447,0.21-0.875,0.362-1.285,0.458s-0.845,0.145-1.306,0.145c-0.592,0-1.052-0.166-1.38-0.5
				c-0.329-0.332-0.504-0.795-0.527-1.388h4.929v-1.012c0-1.085-0.301-1.935-0.902-2.55c-0.602-0.615-1.443-0.923-2.523-0.923
				c-1.13,0-2.015,0.35-2.656,1.049c-0.64,0.7-0.96,1.69-0.96,2.971c0,1.244,0.346,2.205,1.039,2.885
				c0.693,0.679,1.654,1.019,2.885,1.019C113.422,30.273,113.928,30.229,114.342,30.141 M113.583,24.255
				c0.26,0.279,0.395,0.678,0.404,1.192h-2.926c0.036-0.515,0.18-0.913,0.431-1.192c0.25-0.28,0.597-0.421,1.039-0.421
				C112.974,23.834,113.325,23.975,113.583,24.255 M107.541,26.89c-0.132-0.273-0.337-0.515-0.615-0.725
				c-0.278-0.209-0.715-0.436-1.312-0.677c-0.67-0.269-1.104-0.472-1.303-0.608c-0.198-0.137-0.297-0.298-0.297-0.485
				c0-0.333,0.308-0.499,0.923-0.499c0.346,0,0.686,0.052,1.019,0.157c0.332,0.104,0.69,0.239,1.073,0.403l0.629-1.504
				c-0.871-0.4-1.766-0.602-2.687-0.602c-0.966,0-1.712,0.186-2.239,0.557c-0.526,0.372-0.789,0.897-0.789,1.576
				c0,0.396,0.062,0.73,0.188,1.001c0.125,0.271,0.326,0.513,0.601,0.722c0.276,0.21,0.708,0.438,1.296,0.684
				c0.41,0.172,0.738,0.325,0.984,0.456c0.246,0.129,0.419,0.245,0.52,0.348c0.1,0.104,0.15,0.236,0.15,0.399
				c0,0.438-0.378,0.656-1.135,0.656c-0.369,0-0.796-0.062-1.281-0.185c-0.486-0.123-0.922-0.275-1.309-0.459v1.725
				c0.341,0.145,0.708,0.256,1.1,0.33s0.866,0.113,1.422,0.113c1.085,0,1.899-0.205,2.444-0.615c0.544-0.41,0.817-1.008,0.817-1.791
				C107.739,27.488,107.673,27.164,107.541,26.89 M99.112,30.141c0.414-0.089,0.804-0.225,1.169-0.406V28.12
				c-0.447,0.21-0.875,0.362-1.285,0.458c-0.411,0.096-0.846,0.145-1.306,0.145c-0.593,0-1.053-0.166-1.381-0.5
				c-0.328-0.332-0.504-0.795-0.526-1.388h4.928v-1.012c0-1.085-0.3-1.935-0.902-2.55c-0.602-0.615-1.442-0.923-2.522-0.923
				c-1.131,0-2.016,0.35-2.656,1.049c-0.641,0.7-0.961,1.69-0.961,2.971c0,1.244,0.347,2.205,1.039,2.885
				c0.693,0.679,1.655,1.019,2.885,1.019C98.191,30.273,98.697,30.229,99.112,30.141 M98.354,24.255
				c0.26,0.279,0.394,0.678,0.403,1.192h-2.925c0.036-0.515,0.179-0.913,0.43-1.192c0.251-0.28,0.597-0.421,1.039-0.421
				C97.743,23.834,98.093,23.975,98.354,24.255 M91.949,22.494h-2.085v7.645h2.085V22.494z M90.91,21.544
				c0.378,0,0.662-0.091,0.851-0.271c0.189-0.18,0.283-0.431,0.283-0.755c0-0.679-0.378-1.019-1.134-1.019
				c-0.757,0-1.135,0.34-1.135,1.019C89.774,21.202,90.152,21.544,90.91,21.544 M82.692,28.387h-0.909v-6.508h1.128
				c1.895,0,2.843,1.073,2.843,3.22C85.754,27.291,84.733,28.387,82.692,28.387 M86.603,21.435
				c-0.902-0.861-2.169-1.292-3.801-1.292h-3.137v9.994h2.83c1.768,0,3.12-0.438,4.057-1.312c0.936-0.875,1.405-2.135,1.405-3.78
				C87.957,23.499,87.504,22.296,86.603,21.435"/>
		</g>
	</g>
</g>
</svg>
