<?xml version="1.0" encoding="utf-8"?>
<!-- Generator: Adobe Illustrator 15.1.0, SVG Export Plug-In . SVG Version: 6.00 Build 0)  -->
<!DOCTYPE svg PUBLIC "-//W3C//DTD SVG 1.1//EN" "http://www.w3.org/Graphics/SVG/1.1/DTD/svg11.dtd">
<svg version="1.1" id="Ebene_1" xmlns="http://www.w3.org/2000/svg" xmlns:xlink="http://www.w3.org/1999/xlink" x="0px" y="0px"
	 width="278px" height="57px" viewBox="0 0 278 57" enable-background="new 0 0 278 57" xml:space="preserve">
<g>
	<g>
		<g>
			<g>
				<path fill="#6A7482" d="M210.439,48.529c0.316,0.38,0.479,0.928,0.479,1.644H207c0.064-0.692,0.275-1.233,0.633-1.627
					c0.357-0.392,0.838-0.588,1.439-0.588C209.664,47.958,210.121,48.148,210.439,48.529 M210.676,54.66
					c0.356-0.075,0.736-0.199,1.139-0.372v-1.013c-0.789,0.338-1.586,0.507-2.395,0.507c-0.766,0-1.357-0.228-1.779-0.685
					c-0.422-0.455-0.645-1.123-0.666-2.005h5.16v-0.717c0-1.013-0.271-1.827-0.818-2.442c-0.549-0.617-1.291-0.928-2.229-0.928
					c-1.002,0-1.801,0.354-2.396,1.066c-0.596,0.711-0.895,1.67-0.895,2.878c0,1.198,0.32,2.135,0.961,2.809
					c0.643,0.677,1.516,1.015,2.621,1.015C209.886,54.773,210.316,54.736,210.676,54.66 M198.92,53.092
					c-0.352-0.486-0.525-1.21-0.525-2.167c0-0.942,0.179-1.674,0.529-2.19c0.354-0.519,0.863-0.774,1.529-0.774
					c0.771,0,1.338,0.229,1.689,0.683c0.354,0.45,0.529,1.211,0.529,2.271v0.237c0,0.938-0.174,1.619-0.521,2.041
					c-0.349,0.423-0.91,0.634-1.688,0.634C199.787,53.823,199.271,53.579,198.92,53.092 M202.886,54.636h0.923V44h-1.135v3.049
					l0.027,0.526l0.047,0.54h-0.088c-0.543-0.738-1.322-1.107-2.338-1.107c-0.978,0-1.736,0.342-2.283,1.025
					c-0.547,0.683-0.82,1.643-0.82,2.878s0.271,2.188,0.816,2.856c0.545,0.67,1.307,1.006,2.287,1.006
					c1.043,0,1.826-0.381,2.352-1.144h0.062L202.886,54.636z M193.977,54.619c0.15,0.145,0.346,0.216,0.576,0.216
					c0.262,0,0.465-0.08,0.615-0.239c0.15-0.158,0.227-0.388,0.227-0.684c0-0.305-0.074-0.537-0.223-0.694
					c-0.146-0.155-0.354-0.235-0.619-0.235c-0.26,0-0.459,0.08-0.598,0.235c-0.141,0.157-0.209,0.39-0.209,0.694
					C193.746,54.24,193.822,54.477,193.977,54.619 M190.279,48.529c0.318,0.38,0.479,0.928,0.479,1.644h-3.916
					c0.062-0.692,0.275-1.233,0.633-1.627c0.357-0.392,0.838-0.588,1.439-0.588C189.506,47.958,189.961,48.148,190.279,48.529
					 M190.518,54.66c0.355-0.075,0.736-0.199,1.139-0.372v-1.013c-0.789,0.338-1.586,0.507-2.395,0.507
					c-0.766,0-1.357-0.228-1.779-0.685c-0.422-0.455-0.645-1.123-0.666-2.005h5.16v-0.717c0-1.013-0.271-1.827-0.819-2.442
					c-0.548-0.617-1.29-0.928-2.229-0.928c-1.002,0-1.801,0.354-2.396,1.066c-0.595,0.711-0.894,1.67-0.894,2.878
					c0,1.198,0.32,2.135,0.961,2.809c0.642,0.677,1.516,1.015,2.621,1.015C189.727,54.773,190.158,54.736,190.518,54.66
					 M182.385,48.689c0.342,0.479,0.514,1.205,0.514,2.181c0,0.952-0.172,1.683-0.514,2.19c-0.342,0.506-0.859,0.763-1.559,0.763
					c-0.775,0-1.338-0.228-1.688-0.681c-0.351-0.453-0.525-1.207-0.525-2.261c0-1.053,0.172-1.802,0.512-2.243
					c0.342-0.445,0.9-0.668,1.676-0.668C181.516,47.973,182.043,48.211,182.385,48.689 M178.611,48.143h-0.057
					c0.037-0.459,0.057-0.979,0.057-1.559V44h-1.137v10.636h0.814l0.238-0.963h0.082c0.271,0.373,0.611,0.65,1.016,0.83
					c0.402,0.181,0.85,0.271,1.336,0.271c0.977,0,1.738-0.34,2.287-1.021s0.822-1.637,0.822-2.867c0-1.229-0.271-2.182-0.816-2.854
					c-0.545-0.675-1.309-1.011-2.293-1.011C179.924,47.021,179.141,47.396,178.611,48.143 M173.889,47.404
					c-0.393,0.264-0.729,0.64-1.006,1.128h-0.055l-0.13-1.388h-0.938v7.489h1.137v-4.019c0-0.734,0.215-1.348,0.646-1.84
					c0.431-0.491,0.949-0.737,1.556-0.737c0.235,0,0.51,0.034,0.819,0.104l0.158-1.055c-0.267-0.055-0.563-0.082-0.896-0.082
					C174.711,47.008,174.279,47.141,173.889,47.404 M168.131,48.529c0.32,0.38,0.479,0.928,0.479,1.644h-3.916
					c0.062-0.692,0.271-1.233,0.633-1.627c0.355-0.392,0.838-0.588,1.438-0.588C167.355,47.958,167.812,48.148,168.131,48.529
					 M168.367,54.66c0.357-0.075,0.736-0.199,1.139-0.372v-1.013c-0.789,0.338-1.586,0.507-2.393,0.507
					c-0.768,0-1.359-0.228-1.781-0.685c-0.422-0.455-0.645-1.123-0.666-2.005h5.162v-0.717c0-1.013-0.273-1.827-0.822-2.442
					c-0.547-0.617-1.289-0.928-2.229-0.928c-1.002,0-1.801,0.354-2.396,1.066c-0.596,0.711-0.894,1.67-0.894,2.878
					c0,1.198,0.32,2.135,0.962,2.809c0.639,0.677,1.514,1.015,2.62,1.015C167.578,54.773,168.01,54.736,168.367,54.66
					 M159.859,54.636l2.846-7.491h-1.219c-0.93,2.554-1.527,4.209-1.795,4.967c-0.268,0.76-0.426,1.261-0.477,1.5h-0.053
					c-0.064-0.311-0.278-0.982-0.645-2.021l-1.611-4.441h-1.219l2.846,7.49L159.859,54.636L159.859,54.636z M148.297,48.84
					c0.336-0.41,0.799-0.615,1.393-0.615c0.389,0,0.744,0.047,1.072,0.137l-0.096,1.785c-0.082,1.428-0.596,2.141-1.539,2.141
					c-0.888,0-1.332-0.579-1.332-1.736C147.795,49.818,147.963,49.25,148.297,48.84 M154.236,47.031
					c-0.416-0.758-1.006-1.344-1.771-1.756c-0.764-0.414-1.635-0.619-2.614-0.619c-1.166,0-2.199,0.254-3.104,0.762
					c-0.9,0.508-1.598,1.227-2.084,2.15c-0.488,0.925-0.73,1.979-0.73,3.164c0,1.633,0.457,2.9,1.371,3.812
					c0.912,0.909,2.195,1.364,3.853,1.364c1.11,0,2.104-0.191,2.979-0.574v-0.909c-1.031,0.392-2.023,0.587-2.979,0.587
					c-1.382,0-2.438-0.371-3.173-1.119c-0.733-0.748-1.102-1.815-1.102-3.207c0-1.023,0.199-1.93,0.596-2.709
					c0.396-0.783,0.972-1.385,1.725-1.807c0.752-0.421,1.635-0.632,2.65-0.632c0.809,0,1.521,0.167,2.145,0.502
					c0.621,0.335,1.102,0.813,1.438,1.433c0.336,0.62,0.506,1.344,0.506,2.168c0,0.782-0.129,1.42-0.39,1.909
					c-0.26,0.49-0.598,0.735-1.012,0.735c-0.606,0-0.91-0.406-0.91-1.217v-0.15l0.172-3.213c-0.313-0.1-0.668-0.18-1.059-0.236
					c-0.394-0.057-0.744-0.085-1.056-0.085c-0.875,0-1.582,0.29-2.119,0.871c-0.536,0.581-0.807,1.337-0.807,2.267
					c0,0.804,0.192,1.438,0.577,1.903c0.386,0.468,0.92,0.701,1.604,0.701c0.466,0,0.867-0.11,1.205-0.335
					c0.342-0.223,0.603-0.533,0.783-0.93h0.055c0.052,0.369,0.209,0.672,0.479,0.908c0.271,0.235,0.601,0.354,0.992,0.354
					c0.474,0,0.894-0.146,1.258-0.442c0.365-0.299,0.646-0.716,0.849-1.252c0.199-0.537,0.302-1.132,0.302-1.777
					C154.863,48.664,154.654,47.79,154.236,47.031 M137.179,48.703c0.378-0.488,0.938-0.73,1.683-0.73
					c0.752,0,1.32,0.246,1.705,0.74c0.387,0.495,0.578,1.219,0.578,2.171c0,0.962-0.191,1.691-0.578,2.19
					c-0.385,0.499-0.947,0.749-1.691,0.749c-0.742,0-1.305-0.251-1.688-0.753c-0.383-0.5-0.573-1.229-0.573-2.188
					C136.611,49.917,136.801,49.191,137.179,48.703 M141.395,48.053c-0.617-0.695-1.451-1.045-2.5-1.045
					c-1.085,0-1.932,0.342-2.543,1.021c-0.61,0.682-0.916,1.633-0.916,2.854c0,0.788,0.142,1.479,0.425,2.064
					c0.281,0.588,0.684,1.037,1.202,1.354c0.52,0.315,1.113,0.473,1.784,0.473c1.085,0,1.936-0.342,2.549-1.028
					c0.615-0.685,0.924-1.64,0.924-2.86C142.318,49.693,142.012,48.751,141.395,48.053 M134.485,47.145h-1.907V46.66
					c0-0.629,0.103-1.086,0.308-1.371c0.204-0.284,0.522-0.428,0.95-0.428c0.311,0,0.684,0.072,1.121,0.213l0.293-0.909
					c-0.533-0.16-0.998-0.239-1.394-0.239c-1.608,0-2.413,0.92-2.413,2.762v0.418l-1.341,0.41v0.512h1.341v6.609h1.135v-6.609h1.907
					V47.145z M128.777,54.636v-4.887c0-0.957-0.229-1.651-0.685-2.089c-0.456-0.436-1.135-0.652-2.037-0.652
					c-0.515,0-0.981,0.102-1.4,0.305c-0.42,0.203-0.745,0.488-0.979,0.857h-0.054l-0.186-1.025h-0.923v7.491h1.136v-3.93
					c0-0.976,0.182-1.675,0.547-2.099c0.363-0.424,0.938-0.637,1.722-0.637c0.593,0,1.028,0.149,1.306,0.45
					c0.278,0.302,0.417,0.759,0.417,1.367v4.846L128.777,54.636L128.777,54.636z M119.07,45.686
					c0.127,0.125,0.287,0.188,0.478,0.188c0.184,0,0.34-0.062,0.472-0.188c0.133-0.125,0.198-0.314,0.198-0.569
					c0-0.257-0.065-0.444-0.198-0.567c-0.132-0.123-0.288-0.185-0.472-0.185c-0.19,0-0.351,0.061-0.478,0.181
					c-0.128,0.121-0.192,0.312-0.192,0.571C118.878,45.369,118.942,45.561,119.07,45.686 M120.109,47.145h-1.136v7.491h1.136V47.145
					z M111.852,53.01c-0.059,0.42-0.162,0.979-0.311,1.676c-0.148,0.696-0.284,1.281-0.407,1.756h0.855
					c0.241-0.52,0.474-1.08,0.696-1.686c0.224-0.604,0.395-1.133,0.514-1.589l-0.104-0.157H111.852z M104.126,51.309l3.124-4.442
					c0.192-0.287,0.396-0.649,0.616-1.089h0.054c-0.045,0.82-0.068,1.558-0.068,2.209v3.322H104.126z M110.422,51.309h-1.482v-6.721
					h-1.203l-4.744,6.762v0.99h4.859v2.296h1.088V52.34h1.482V51.309L110.422,51.309z M100.764,45.165
					c-0.538-0.442-1.292-0.666-2.263-0.666c-0.592,0-1.156,0.092-1.691,0.276c-0.535,0.184-1.009,0.438-1.419,0.763l0.574,0.765
					c0.497-0.316,0.939-0.535,1.326-0.654c0.388-0.119,0.8-0.18,1.238-0.18c0.573,0,1.028,0.141,1.363,0.417
					c0.335,0.278,0.502,0.661,0.502,1.149c0,0.611-0.228,1.088-0.684,1.432c-0.455,0.346-1.073,0.518-1.852,0.518H96.86v0.979h0.983
					c1.905,0,2.858,0.605,2.858,1.816c0,1.354-0.864,2.031-2.591,2.031c-0.438,0-0.901-0.057-1.392-0.168
					c-0.491-0.11-0.952-0.273-1.385-0.488v1.08c0.415,0.201,0.842,0.342,1.282,0.42c0.439,0.08,0.924,0.119,1.453,0.119
					c1.217,0,2.154-0.256,2.815-0.77c0.661-0.513,0.991-1.245,0.991-2.197c0-0.664-0.193-1.203-0.581-1.613
					c-0.387-0.408-0.982-0.664-1.784-0.767v-0.054c0.656-0.137,1.163-0.408,1.521-0.812c0.357-0.406,0.537-0.929,0.537-1.564
					C101.57,46.219,101.301,45.609,100.764,45.165 M91.577,44.643H90.62l-2.646,2.045l0.603,0.778
					c0.966-0.782,1.508-1.229,1.627-1.333c0.118-0.104,0.225-0.206,0.321-0.301c-0.037,0.527-0.056,1.089-0.056,1.682v7.123h1.108
					V44.643z M83.726,45.818c0.335,0.23,0.596,0.552,0.782,0.957c0.188,0.406,0.281,0.848,0.281,1.326
					c0,0.316-0.101,0.625-0.301,0.916c-0.201,0.291-0.476,0.521-0.824,0.688c-0.349,0.168-0.73,0.253-1.145,0.253
					c-0.671,0-1.17-0.188-1.497-0.562c-0.328-0.375-0.492-0.894-0.492-1.549c0-0.746,0.178-1.33,0.533-1.75
					c0.354-0.418,0.858-0.631,1.511-0.631C83.006,45.469,83.391,45.586,83.726,45.818 M85.526,46.546
					c-0.274-0.667-0.664-1.176-1.174-1.522c-0.508-0.351-1.101-0.522-1.779-0.522c-0.948,0-1.713,0.301-2.294,0.901
					c-0.581,0.602-0.871,1.423-0.871,2.462c0,0.946,0.259,1.686,0.778,2.215c0.521,0.528,1.222,0.793,2.105,0.793
					c0.52,0,0.987-0.101,1.402-0.297c0.414-0.199,0.747-0.487,0.998-0.865h0.082c-0.051,1.397-0.355,2.438-0.913,3.114
					c-0.559,0.676-1.385,1.015-2.479,1.015c-0.465,0-0.879-0.062-1.244-0.178v0.978c0.311,0.094,0.729,0.139,1.259,0.139
					c3.025,0,4.538-1.955,4.538-5.865C85.938,48.001,85.799,47.214,85.526,46.546 M71.93,44.643h-0.957l-2.645,2.045l0.601,0.778
					c0.966-0.782,1.51-1.229,1.627-1.333c0.119-0.104,0.227-0.206,0.321-0.301c-0.036,0.527-0.054,1.089-0.054,1.682v7.123h1.106
					L71.93,44.643L71.93,44.643z M62.244,54.636l4.088-9.084v-0.909H59.68v1.047h5.448l-4.142,8.946H62.244z M52.46,51.309
					l3.124-4.442c0.192-0.287,0.397-0.649,0.616-1.089h0.054c-0.045,0.82-0.068,1.558-0.068,2.209v3.322H52.46z M58.756,51.309
					h-1.482v-6.721h-1.203l-4.744,6.762v0.99h4.859v2.296h1.088V52.34h1.482V51.309z M44.457,51.309l3.124-4.442
					c0.191-0.287,0.396-0.649,0.615-1.089h0.054c-0.045,0.82-0.068,1.558-0.068,2.209v3.322H44.457z M50.751,51.309h-1.483v-6.721
					h-1.202l-4.744,6.762v0.99h4.859v2.296h1.087V52.34h1.483V51.309z M40.569,54.619c0.152,0.145,0.346,0.216,0.578,0.216
					c0.26,0,0.465-0.08,0.614-0.239c0.151-0.158,0.227-0.388,0.227-0.684c0-0.305-0.074-0.537-0.223-0.694
					c-0.148-0.155-0.354-0.235-0.618-0.235c-0.261,0-0.459,0.08-0.599,0.235c-0.139,0.157-0.209,0.39-0.209,0.694
					C40.34,54.24,40.417,54.477,40.569,54.619 M33.655,46.457c0.342-0.658,0.886-0.988,1.634-0.988c0.756,0,1.304,0.334,1.644,1.004
					c0.34,0.668,0.51,1.719,0.51,3.153s-0.17,2.489-0.51,3.161c-0.34,0.673-0.888,1.009-1.644,1.009
					c-0.748,0-1.292-0.332-1.634-0.995c-0.343-0.662-0.514-1.721-0.514-3.175S33.312,47.116,33.655,46.457 M37.761,45.805
					c-0.562-0.88-1.387-1.318-2.471-1.318c-1.112,0-1.94,0.423-2.482,1.266c-0.542,0.844-0.812,2.135-0.812,3.876
					c0,1.688,0.28,2.965,0.84,3.838c0.562,0.873,1.379,1.312,2.455,1.312c1.121,0,1.953-0.426,2.498-1.278s0.816-2.142,0.816-3.869
					C38.604,47.958,38.323,46.686,37.761,45.805 M29.362,45.165c-0.538-0.442-1.292-0.666-2.264-0.666
					c-0.592,0-1.155,0.092-1.691,0.276c-0.535,0.185-1.008,0.438-1.418,0.763l0.574,0.765c0.496-0.316,0.938-0.535,1.325-0.654
					c0.388-0.119,0.801-0.18,1.237-0.18c0.575,0,1.029,0.141,1.364,0.417c0.335,0.278,0.503,0.661,0.503,1.149
					c0,0.611-0.229,1.088-0.685,1.432c-0.455,0.346-1.072,0.518-1.852,0.518h-0.999v0.979h0.985c1.904,0,2.856,0.605,2.856,1.816
					c0,1.354-0.862,2.031-2.591,2.031c-0.437,0-0.901-0.057-1.391-0.168c-0.49-0.11-0.951-0.273-1.385-0.488v1.08
					c0.415,0.201,0.843,0.342,1.282,0.42c0.44,0.08,0.924,0.119,1.452,0.119c1.217,0,2.156-0.256,2.817-0.77
					c0.661-0.513,0.99-1.245,0.99-2.197c0-0.664-0.193-1.203-0.581-1.613c-0.387-0.408-0.981-0.664-1.783-0.767v-0.054
					c0.655-0.137,1.163-0.408,1.521-0.812c0.358-0.406,0.536-0.929,0.536-1.564C30.168,46.219,29.899,45.609,29.362,45.165
					 M17.646,46.457c0.342-0.658,0.886-0.988,1.634-0.988c0.756,0,1.304,0.334,1.644,1.004c0.339,0.668,0.509,1.719,0.509,3.153
					s-0.17,2.489-0.509,3.161c-0.34,0.673-0.888,1.009-1.644,1.009c-0.748,0-1.292-0.332-1.634-0.995
					c-0.343-0.662-0.514-1.721-0.514-3.175S17.304,47.116,17.646,46.457 M21.75,45.805c-0.562-0.88-1.387-1.318-2.471-1.318
					c-1.112,0-1.939,0.423-2.482,1.266c-0.542,0.844-0.812,2.135-0.812,3.876c0,1.688,0.279,2.965,0.841,3.838
					c0.56,0.873,1.378,1.312,2.454,1.312c1.121,0,1.954-0.426,2.498-1.278c0.545-0.853,0.816-2.142,0.816-3.869
					C22.595,47.958,22.312,46.686,21.75,45.805 M5.02,46.406h2.715v-1.764H0.187v1.764h2.715v8.229H5.02V46.406L5.02,46.406z"/>
			</g>
		</g>
	</g>
</g>
<g>
	<g>
		<g>
			<g>
				<path fill="#6A7482" d="M277.719,32.637v-4.888c0-0.957-0.228-1.652-0.684-2.089c-0.456-0.435-1.135-0.652-2.037-0.652
					c-0.515,0-0.982,0.102-1.401,0.305c-0.42,0.202-0.745,0.488-0.978,0.857h-0.055l-0.187-1.025h-0.923v7.492h1.135v-3.931
					c0-0.976,0.185-1.675,0.547-2.099c0.364-0.424,0.938-0.636,1.725-0.636c0.593,0,1.025,0.15,1.306,0.451
					c0.279,0.301,0.417,0.757,0.417,1.367v4.847L277.719,32.637L277.719,32.637z M268.012,23.686
					c0.127,0.125,0.287,0.188,0.479,0.188c0.182,0,0.34-0.062,0.472-0.188s0.198-0.316,0.198-0.571c0-0.255-0.066-0.444-0.198-0.568
					c-0.132-0.123-0.29-0.184-0.472-0.184c-0.191,0-0.354,0.06-0.479,0.181c-0.128,0.121-0.189,0.311-0.189,0.571
					C267.82,23.369,267.884,23.56,268.012,23.686 M269.051,25.145h-1.135v7.492h1.135V25.145z M261.131,31.516
					c-0.248-0.214-0.372-0.524-0.372-0.937c0-0.522,0.199-0.911,0.601-1.159c0.396-0.247,1.049-0.388,1.949-0.42l1.137-0.048v0.678
					c0,0.696-0.201,1.238-0.605,1.626c-0.4,0.389-0.958,0.581-1.664,0.581C261.729,31.837,261.38,31.729,261.131,31.516
					 M265.578,32.637v-5.113c0-0.875-0.215-1.511-0.646-1.907c-0.431-0.396-1.093-0.595-1.983-0.595
					c-0.442,0-0.883,0.057-1.323,0.171c-0.439,0.114-0.844,0.271-1.213,0.472l0.349,0.868c0.788-0.383,1.494-0.574,2.119-0.574
					c0.557,0,0.96,0.141,1.213,0.42c0.253,0.28,0.38,0.715,0.38,1.303v0.465l-1.271,0.041c-2.42,0.073-3.63,0.867-3.63,2.378
					c0,0.707,0.211,1.252,0.633,1.635c0.421,0.383,1.003,0.574,1.746,0.574c0.556,0,1.02-0.084,1.391-0.25
					c0.372-0.166,0.744-0.484,1.118-0.953h0.055l0.228,1.066h0.838v-0.002H265.578z M253.021,32.637l3.418-8.846h0.055
					c-0.064,0.866-0.096,1.668-0.096,2.406v6.439h1.159v-9.994h-1.733l-3.192,8.244h-0.055l-3.165-8.244h-1.75v9.994h1.073v-6.357
					c0-0.966-0.032-1.8-0.098-2.502h0.057l3.391,8.859L253.021,32.637L253.021,32.637z M245.009,22.643l-3.726,9.994h1.135
					l3.725-9.994H245.009z M238.945,31.475c-0.214-0.24-0.321-0.588-0.321-1.039v-4.409h2.174v-0.882h-2.174v-1.736h-0.656
					l-0.479,1.6l-1.072,0.472v0.547h1.072v4.457c0,1.527,0.726,2.291,2.175,2.291c0.189,0,0.407-0.02,0.646-0.059
					c0.239-0.039,0.423-0.089,0.543-0.146V31.7c-0.106,0.032-0.257,0.062-0.441,0.092c-0.188,0.03-0.38,0.045-0.581,0.045
					C239.453,31.837,239.159,31.717,238.945,31.475 M233.818,25.404c-0.395,0.264-0.729,0.64-1.006,1.128h-0.056l-0.13-1.388h-0.938
					v7.492h1.136v-4.02c0-0.733,0.215-1.347,0.646-1.839c0.434-0.492,0.949-0.738,1.557-0.738c0.236,0,0.512,0.034,0.82,0.103
					l0.156-1.053c-0.266-0.055-0.562-0.082-0.896-0.082C234.641,25.008,234.21,25.141,233.818,25.404 M223.018,25.145v4.902
					c0,0.951,0.229,1.645,0.683,2.077c0.452,0.435,1.136,0.649,2.047,0.649c0.528,0,0.999-0.1,1.412-0.295
					c0.411-0.195,0.733-0.479,0.967-0.849h0.062l0.164,1.005h0.938v-7.492h-1.137v3.938c0,0.971-0.18,1.67-0.543,2.101
					c-0.36,0.428-0.937,0.643-1.719,0.643c-0.594,0-1.026-0.15-1.307-0.451c-0.279-0.301-0.417-0.757-0.417-1.367v-4.86
					L223.018,25.145L223.018,25.145z M221.732,25.145h-1.907V24.66c0-0.629,0.103-1.086,0.308-1.371s0.521-0.427,0.95-0.427
					c0.31,0,0.685,0.071,1.121,0.212l0.294-0.909c-0.533-0.16-0.998-0.24-1.396-0.24c-1.606,0-2.412,0.921-2.412,2.762v0.417
					l-1.342,0.41v0.513h1.342v6.61h1.136v-6.61h1.907V25.145L221.732,25.145z M212.073,28.802c0.036-0.524,0.055-0.911,0.055-1.162
					V22h-1.121v10.636h1.121v-2.803l0.854-0.737l2.646,3.54h1.374l-3.247-4.3l3.035-3.192h-1.347l-2.42,2.563
					c-0.401,0.451-0.699,0.814-0.896,1.094L212.073,28.802L212.073,28.802z M208.676,32.637v-4.888c0-0.957-0.228-1.652-0.684-2.089
					c-0.456-0.435-1.135-0.652-2.037-0.652c-0.516,0-0.982,0.102-1.4,0.305c-0.42,0.202-0.746,0.488-0.979,0.857h-0.055
					l-0.187-1.025h-0.923v7.492h1.135v-3.931c0-0.976,0.184-1.675,0.547-2.099c0.364-0.424,0.938-0.636,1.725-0.636
					c0.593,0,1.025,0.15,1.306,0.451c0.278,0.301,0.417,0.757,0.417,1.367v4.847L208.676,32.637L208.676,32.637z M195.629,31.516
					c-0.248-0.214-0.372-0.524-0.372-0.937c0-0.522,0.199-0.911,0.601-1.159c0.396-0.247,1.049-0.388,1.949-0.42l1.137-0.048v0.678
					c0,0.696-0.201,1.238-0.605,1.626c-0.4,0.389-0.958,0.581-1.664,0.581C196.225,31.837,195.878,31.729,195.629,31.516
					 M200.076,32.637v-5.113c0-0.875-0.215-1.511-0.646-1.907c-0.431-0.396-1.093-0.595-1.984-0.595
					c-0.441,0-0.885,0.057-1.322,0.171c-0.439,0.114-0.844,0.271-1.213,0.472l0.349,0.868c0.788-0.383,1.494-0.574,2.119-0.574
					c0.556,0,0.96,0.141,1.213,0.42c0.253,0.28,0.38,0.715,0.38,1.303v0.465l-1.271,0.041c-2.421,0.073-3.632,0.867-3.632,2.378
					c0,0.707,0.213,1.252,0.635,1.635c0.421,0.383,1.003,0.574,1.746,0.574c0.556,0,1.02-0.084,1.391-0.25
					c0.372-0.166,0.744-0.484,1.118-0.953h0.056l0.227,1.066h0.838v-0.002H200.076z M191.039,25.404
					c-0.393,0.264-0.727,0.64-1.005,1.128h-0.058l-0.129-1.388h-0.937v7.492h1.135v-4.02c0-0.733,0.216-1.347,0.646-1.839
					c0.431-0.492,0.947-0.738,1.556-0.738c0.237,0,0.511,0.034,0.819,0.103l0.156-1.053c-0.265-0.055-0.562-0.082-0.896-0.082
					C191.861,25.008,191.432,25.141,191.039,25.404 M183.02,28.364h4.146v-1.032h-4.146v-3.657h4.41v-1.032h-5.57v9.994h1.16V28.364
					L183.02,28.364z M173.885,23.818c0.334,0.232,0.598,0.551,0.782,0.957c0.187,0.406,0.28,0.848,0.28,1.326
					c0,0.318-0.102,0.625-0.301,0.916c-0.201,0.292-0.478,0.521-0.823,0.69c-0.351,0.168-0.731,0.253-1.146,0.253
					c-0.67,0-1.168-0.188-1.495-0.563c-0.33-0.376-0.494-0.893-0.494-1.549c0-0.747,0.18-1.33,0.535-1.75
					c0.354-0.419,0.857-0.629,1.51-0.629C173.165,23.47,173.549,23.586,173.885,23.818 M175.686,24.547
					c-0.271-0.669-0.664-1.177-1.172-1.524c-0.509-0.349-1.103-0.523-1.779-0.523c-0.948,0-1.715,0.3-2.295,0.902
					s-0.871,1.422-0.871,2.461c0,0.948,0.261,1.687,0.779,2.215c0.521,0.527,1.223,0.793,2.104,0.793c0.521,0,0.987-0.1,1.399-0.298
					c0.414-0.198,0.748-0.486,0.998-0.864h0.082c-0.051,1.398-0.354,2.438-0.912,3.113c-0.559,0.677-1.385,1.016-2.479,1.016
					c-0.465,0-0.88-0.061-1.244-0.178v0.979c0.312,0.09,0.729,0.137,1.258,0.137c3.026,0,4.539-1.955,4.539-5.864
					C176.096,26.001,175.959,25.215,175.686,24.547 M168.092,31.584h-5.142v-0.055l2.188-2.141c0.975-0.949,1.641-1.73,1.995-2.353
					c0.354-0.62,0.532-1.247,0.532-1.88c0-0.811-0.268-1.457-0.8-1.938c-0.533-0.481-1.271-0.721-2.208-0.721
					c-1.085,0-2.088,0.382-3.01,1.148l0.604,0.772c0.455-0.359,0.869-0.608,1.241-0.745c0.371-0.137,0.764-0.205,1.179-0.205
					c0.574,0,1.023,0.155,1.348,0.469c0.323,0.312,0.484,0.734,0.484,1.268c0,0.378-0.062,0.731-0.191,1.06
					c-0.127,0.328-0.317,0.666-0.572,1.012c-0.256,0.346-0.784,0.925-1.586,1.738l-2.633,2.646v0.978h6.569L168.092,31.584
					L168.092,31.584z M157.874,23.818c0.335,0.232,0.597,0.551,0.783,0.957c0.186,0.406,0.28,0.848,0.28,1.326
					c0,0.318-0.103,0.625-0.303,0.916c-0.199,0.292-0.475,0.521-0.822,0.69c-0.351,0.168-0.729,0.253-1.146,0.253
					c-0.67,0-1.169-0.188-1.497-0.563c-0.327-0.376-0.491-0.893-0.491-1.549c0-0.747,0.178-1.33,0.532-1.75
					c0.354-0.419,0.858-0.629,1.511-0.629C157.154,23.47,157.539,23.586,157.874,23.818 M159.676,24.547
					c-0.271-0.669-0.664-1.177-1.173-1.524c-0.508-0.349-1.101-0.523-1.78-0.523c-0.945,0-1.713,0.3-2.293,0.902
					c-0.582,0.602-0.871,1.422-0.871,2.461c0,0.948,0.26,1.687,0.778,2.215c0.521,0.527,1.222,0.793,2.104,0.793
					c0.521,0,0.986-0.1,1.4-0.298c0.414-0.198,0.748-0.486,0.998-0.864h0.082c-0.05,1.398-0.354,2.438-0.912,3.113
					c-0.559,0.677-1.385,1.016-2.479,1.016c-0.465,0-0.879-0.061-1.244-0.178v0.979c0.311,0.09,0.729,0.137,1.258,0.137
					c3.025,0,4.539-1.955,4.539-5.864C160.086,26.001,159.949,25.215,159.676,24.547 M147.07,26.689l0.253-3.001h3.999v-1.046
					h-4.973l-0.375,4.676l0.59,0.376c0.725-0.132,1.304-0.198,1.734-0.198c1.709,0,2.562,0.697,2.562,2.091
					c0,0.718-0.223,1.265-0.666,1.642c-0.444,0.379-1.067,0.568-1.869,0.568c-0.46,0-0.928-0.061-1.4-0.176
					c-0.475-0.115-0.871-0.275-1.189-0.48v1.094c0.594,0.359,1.453,0.539,2.578,0.539c1.156,0,2.063-0.293,2.724-0.881
					s0.987-1.398,0.987-2.435c0-0.906-0.303-1.622-0.904-2.143c-0.604-0.522-1.434-0.783-2.484-0.783
					C148.116,26.532,147.594,26.584,147.07,26.689 M139.834,31.454c-0.335-0.236-0.593-0.558-0.775-0.964s-0.272-0.844-0.272-1.312
					c0-0.318,0.102-0.626,0.304-0.923c0.203-0.297,0.477-0.528,0.817-0.697c0.342-0.168,0.718-0.253,1.128-0.253
					c0.661,0,1.157,0.188,1.489,0.567c0.334,0.378,0.5,0.897,0.5,1.56c0,0.771-0.182,1.358-0.536,1.768
					c-0.358,0.406-0.861,0.611-1.511,0.611C140.551,31.811,140.169,31.691,139.834,31.454 M138.532,31.607
					c0.605,0.776,1.426,1.166,2.461,1.166c0.966,0,1.731-0.297,2.3-0.894c0.568-0.596,0.852-1.412,0.852-2.45
					c0-0.931-0.258-1.666-0.773-2.208c-0.52-0.542-1.227-0.813-2.123-0.813c-1.085,0-1.878,0.393-2.379,1.176h-0.082
					c0.055-1.431,0.365-2.48,0.93-3.147c0.565-0.668,1.383-1.002,2.454-1.002c0.451,0,0.854,0.057,1.203,0.171V22.63
					c-0.296-0.087-0.702-0.13-1.217-0.13c-1.495,0-2.624,0.486-3.389,1.458c-0.763,0.974-1.145,2.442-1.145,4.406
					C137.623,29.749,137.926,30.831,138.532,31.607 M130.903,31.01c-0.061,0.42-0.163,0.979-0.312,1.676
					c-0.146,0.696-0.283,1.282-0.406,1.756h0.854c0.241-0.52,0.474-1.08,0.697-1.685c0.223-0.604,0.394-1.135,0.513-1.59
					l-0.104-0.157H130.903z M124.956,32.637l4.088-9.085v-0.909h-6.652v1.046h5.45l-4.144,8.948H124.956z M118.633,22.643h-0.957
					l-2.646,2.044l0.602,0.779c0.966-0.783,1.508-1.229,1.627-1.333c0.118-0.104,0.226-0.205,0.321-0.301
					c-0.037,0.528-0.055,1.09-0.055,1.682v7.123h1.107L118.633,22.643L118.633,22.643z M107.651,32.619
					c0.151,0.145,0.345,0.216,0.577,0.216c0.26,0,0.465-0.079,0.615-0.239c0.15-0.158,0.226-0.388,0.226-0.684
					c0-0.307-0.074-0.537-0.223-0.693c-0.147-0.156-0.354-0.236-0.618-0.236c-0.26,0-0.459,0.08-0.599,0.236
					c-0.139,0.156-0.208,0.389-0.208,0.693C107.422,32.24,107.498,32.477,107.651,32.619 M103.997,25.404
					c-0.392,0.264-0.728,0.64-1.005,1.128h-0.055l-0.13-1.388h-0.937v7.492h1.135v-4.02c0-0.733,0.215-1.347,0.646-1.839
					c0.43-0.492,0.948-0.738,1.555-0.738c0.237,0,0.51,0.034,0.82,0.103l0.156-1.053c-0.264-0.055-0.562-0.082-0.895-0.082
					C104.82,25.008,104.389,25.141,103.997,25.404 M98.467,31.475c-0.215-0.24-0.322-0.588-0.322-1.039v-4.409h2.175v-0.882h-2.175
					v-1.736H97.49l-0.479,1.6l-1.074,0.472v0.547h1.074v4.457c0,1.527,0.725,2.291,2.173,2.291c0.192,0,0.407-0.02,0.646-0.059
					c0.24-0.039,0.421-0.089,0.544-0.146V31.7c-0.109,0.032-0.258,0.062-0.444,0.092s-0.381,0.045-0.581,0.045
					C98.975,31.837,98.681,31.717,98.467,31.475 M94.464,28.31c-0.394-0.428-1.115-0.829-2.163-1.203
					c-0.625-0.223-1.088-0.427-1.391-0.612c-0.305-0.184-0.52-0.387-0.646-0.607c-0.128-0.222-0.191-0.505-0.191-0.852
					c0-0.47,0.173-0.836,0.52-1.101c0.346-0.265,0.827-0.396,1.442-0.396c0.778,0,1.581,0.173,2.406,0.52l0.362-1.013
					c-0.834-0.363-1.748-0.545-2.742-0.545c-0.951,0-1.718,0.228-2.296,0.683c-0.579,0.456-0.869,1.068-0.869,1.839
					c0,0.734,0.2,1.329,0.6,1.784c0.397,0.456,1.062,0.85,1.992,1.183c0.666,0.237,1.161,0.449,1.486,0.636
					c0.326,0.188,0.559,0.392,0.697,0.61c0.139,0.223,0.209,0.506,0.209,0.853c0,0.524-0.196,0.935-0.588,1.228
					c-0.392,0.295-0.975,0.44-1.75,0.44c-0.474,0-0.953-0.051-1.437-0.149c-0.482-0.1-0.929-0.236-1.339-0.409v1.12
					c0.639,0.306,1.55,0.457,2.734,0.457c1.094,0,1.959-0.246,2.598-0.736c0.639-0.492,0.957-1.18,0.957-2.059
					C95.056,29.294,94.858,28.738,94.464,28.31 M87.468,28.364h-3.355v1.038h3.355V28.364z M81.336,31.475
					c-0.214-0.24-0.321-0.588-0.321-1.039v-4.409h2.173v-0.882h-2.173v-1.736h-0.656l-0.479,1.6l-1.073,0.472v0.547h1.073v4.457
					c0,1.527,0.724,2.291,2.174,2.291c0.191,0,0.406-0.02,0.646-0.059c0.239-0.039,0.42-0.089,0.543-0.146V31.7
					c-0.109,0.032-0.257,0.062-0.444,0.092s-0.381,0.045-0.581,0.045C81.844,31.837,81.55,31.717,81.336,31.475 M76.393,31.475
					c-0.214-0.24-0.32-0.588-0.32-1.039v-4.409h2.174v-0.882h-2.174v-1.736h-0.656l-0.479,1.6l-1.072,0.472v0.547h1.072v4.457
					c0,1.527,0.726,2.291,2.175,2.291c0.191,0,0.406-0.02,0.646-0.059c0.24-0.039,0.421-0.089,0.544-0.146V31.7
					c-0.109,0.032-0.258,0.062-0.444,0.092c-0.188,0.03-0.381,0.045-0.581,0.045C76.902,31.837,76.608,31.717,76.393,31.475
					 M68.071,31.516c-0.249-0.214-0.373-0.524-0.373-0.937c0-0.522,0.199-0.911,0.598-1.159c0.399-0.247,1.05-0.388,1.952-0.42
					l1.135-0.048v0.678c0,0.696-0.202,1.238-0.604,1.626c-0.404,0.389-0.958,0.581-1.665,0.581
					C68.666,31.837,68.319,31.729,68.071,31.516 M72.517,32.637v-5.113c0-0.875-0.215-1.511-0.646-1.907
					c-0.43-0.396-1.092-0.595-1.985-0.595c-0.441,0-0.883,0.057-1.322,0.171c-0.44,0.114-0.845,0.271-1.214,0.472l0.349,0.868
					c0.789-0.383,1.495-0.574,2.119-0.574c0.556,0,0.961,0.141,1.214,0.42c0.253,0.28,0.379,0.715,0.379,1.303v0.465l-1.271,0.041
					c-2.42,0.073-3.63,0.867-3.63,2.378c0,0.707,0.21,1.252,0.632,1.635c0.421,0.383,1.004,0.574,1.747,0.574
					c0.557,0,1.02-0.084,1.392-0.25c0.371-0.166,0.744-0.484,1.116-0.953h0.056l0.226,1.066h0.84v-0.002H72.517z M64.663,22h-1.135
					v10.637h1.135V22z M57.902,28.439h2.235v3.077c-0.661,0.159-1.338,0.238-2.03,0.238c-1.276,0-2.243-0.35-2.902-1.046
					c-0.658-0.697-0.987-1.722-0.987-3.069c0-1.285,0.341-2.29,1.025-3.015c0.684-0.725,1.634-1.087,2.851-1.087
					c0.834,0,1.702,0.191,2.604,0.574l0.451-1.024c-0.921-0.393-1.914-0.588-2.98-0.588c-1.053,0-1.971,0.206-2.755,0.618
					c-0.784,0.413-1.384,1.01-1.801,1.791c-0.417,0.782-0.626,1.692-0.626,2.731c0,1.623,0.422,2.884,1.265,3.784
					c0.843,0.9,2.021,1.351,3.534,1.351c0.72,0,1.354-0.043,1.899-0.131c0.548-0.086,1.085-0.213,1.614-0.383V27.4h-3.397V28.439
					L57.902,28.439z M51.558,28.364h-3.355v1.038h3.355V28.364z M41.537,31.092c-0.352-0.486-0.526-1.21-0.526-2.167
					c0-0.943,0.176-1.674,0.529-2.191s0.863-0.775,1.528-0.775c0.774,0,1.339,0.227,1.691,0.681c0.354,0.453,0.53,1.211,0.53,2.272
					v0.238c0,0.938-0.174,1.619-0.523,2.041s-0.909,0.633-1.685,0.633C42.403,31.823,41.888,31.579,41.537,31.092 M45.502,32.637
					h0.923V22H45.29v3.048l0.027,0.526l0.048,0.54h-0.089c-0.542-0.738-1.321-1.107-2.338-1.107c-0.976,0-1.736,0.342-2.283,1.025
					c-0.547,0.684-0.82,1.644-0.82,2.878s0.272,2.188,0.817,2.857c0.544,0.67,1.306,1.004,2.286,1.004
					c1.044,0,1.827-0.379,2.352-1.143h0.061L45.502,32.637z M33.467,31.516c-0.248-0.214-0.372-0.524-0.372-0.937
					c0-0.522,0.199-0.911,0.599-1.159c0.398-0.247,1.049-0.388,1.95-0.42l1.136-0.048v0.678c0,0.696-0.201,1.238-0.605,1.626
					c-0.403,0.389-0.958,0.581-1.664,0.581C34.062,31.837,33.716,31.729,33.467,31.516 M37.914,32.637v-5.113
					c0-0.875-0.215-1.511-0.646-1.907s-1.093-0.595-1.985-0.595c-0.442,0-0.883,0.057-1.323,0.171
					c-0.439,0.114-0.844,0.271-1.213,0.472l0.349,0.868c0.788-0.383,1.494-0.574,2.119-0.574c0.556,0,0.96,0.141,1.213,0.42
					c0.253,0.28,0.38,0.715,0.38,1.303v0.465l-1.271,0.041c-2.42,0.073-3.63,0.867-3.63,2.378c0,0.707,0.211,1.252,0.632,1.635
					c0.422,0.383,1.004,0.574,1.747,0.574c0.556,0,1.02-0.084,1.391-0.25c0.372-0.166,0.744-0.484,1.118-0.953h0.055l0.226,1.066
					h0.841v-0.002H37.914z M28.877,25.404c-0.392,0.264-0.727,0.64-1.005,1.128h-0.055l-0.13-1.388H26.75v7.492h1.135v-4.02
					c0-0.733,0.215-1.347,0.646-1.839c0.43-0.492,0.949-0.738,1.555-0.738c0.237,0,0.51,0.034,0.82,0.103l0.157-1.053
					c-0.265-0.055-0.563-0.082-0.896-0.082C29.699,25.008,29.269,25.141,28.877,25.404 M24.42,32.637v-4.888
					c0-0.957-0.228-1.652-0.684-2.089c-0.456-0.435-1.136-0.652-2.037-0.652c-0.516,0-0.982,0.102-1.401,0.305
					c-0.42,0.202-0.745,0.488-0.978,0.857h-0.055l-0.185-1.025h-0.923v7.492h1.135v-3.931c0-0.976,0.182-1.675,0.547-2.099
					c0.364-0.424,0.939-0.636,1.723-0.636c0.593,0,1.027,0.15,1.306,0.451c0.278,0.301,0.417,0.757,0.417,1.367v4.847L24.42,32.637
					L24.42,32.637z M11.028,26.703c0.378-0.487,0.938-0.731,1.682-0.731c0.752,0,1.32,0.248,1.705,0.742
					c0.385,0.494,0.578,1.218,0.578,2.17c0,0.962-0.193,1.691-0.578,2.19c-0.385,0.499-0.949,0.749-1.691,0.749
					c-0.742,0-1.306-0.251-1.688-0.753c-0.383-0.5-0.574-1.229-0.574-2.188C10.461,27.917,10.65,27.19,11.028,26.703 M15.243,26.054
					c-0.618-0.697-1.451-1.046-2.499-1.046c-1.085,0-1.932,0.341-2.543,1.021c-0.611,0.682-0.916,1.633-0.916,2.854
					c0,0.789,0.141,1.477,0.424,2.064c0.282,0.588,0.683,1.039,1.203,1.354c0.52,0.315,1.114,0.473,1.784,0.473
					c1.085,0,1.935-0.344,2.55-1.028c0.615-0.685,0.923-1.64,0.923-2.86C16.169,27.694,15.86,26.751,15.243,26.054 M4.329,26.983
					l4.02-4.341H6.975l-4.532,4.956v-4.956H1.28v9.995h1.162v-3.916l1.046-0.931l3.644,4.847h1.367L4.329,26.983z"/>
			</g>
		</g>
	</g>
</g>
<g>
	<g>
		<g>
			<g>
				<path fill="#6A7482" d="M86.593,0.643h-2.111V4.56h-3.958V0.643h-2.119v9.994h2.119V6.323h3.958v4.314h2.111V0.643L86.593,0.643
					z M74.008,5.083c0.255,0.376,0.383,0.94,0.383,1.692S74.264,8.1,74.012,8.494c-0.253,0.394-0.594,0.591-1.021,0.591
					c-0.529,0-0.915-0.178-1.159-0.533c-0.244-0.356-0.366-0.943-0.366-1.764V6.563c0.009-0.729,0.132-1.252,0.369-1.569
					c0.237-0.317,0.613-0.475,1.128-0.475C73.404,4.519,73.753,4.707,74.008,5.083 M71.465,3.986h-0.082
					c0.055-0.693,0.082-1.197,0.082-1.511V0H69.38v10.637h1.593l0.35-0.841h0.143c0.511,0.652,1.215,0.978,2.112,0.978
					c0.907,0,1.624-0.347,2.149-1.039c0.527-0.693,0.79-1.671,0.79-2.933c0-1.226-0.255-2.191-0.766-2.895
					c-0.51-0.704-1.216-1.056-2.119-1.056C72.675,2.851,71.953,3.229,71.465,3.986 M62.476,6.802c0-0.793,0.126-1.372,0.38-1.736
					c0.253-0.365,0.635-0.547,1.145-0.547c0.397,0,0.688,0.138,0.872,0.413c0.184,0.276,0.277,0.69,0.277,1.241v4.464h2.092V5.653
					c0-0.979-0.224-1.691-0.667-2.136c-0.444-0.444-1.1-0.666-1.965-0.666c-0.502,0-0.952,0.098-1.351,0.294
					c-0.399,0.196-0.701,0.471-0.905,0.827h-0.186c-0.405-0.748-1.18-1.121-2.324-1.121c-0.501,0-0.945,0.099-1.333,0.297
					c-0.387,0.198-0.684,0.473-0.889,0.824h-0.116l-0.28-0.978h-1.593v7.643h2.085V7.041c0-0.898,0.121-1.542,0.362-1.934
					c0.242-0.392,0.629-0.588,1.163-0.588c0.396,0,0.687,0.138,0.871,0.413c0.185,0.276,0.276,0.69,0.276,1.241v4.464h2.085
					L62.476,6.802L62.476,6.802z M49.453,6.788h1.894v2.085C50.891,8.964,50.443,9.01,50,9.01c-0.847,0-1.493-0.286-1.938-0.858
					c-0.444-0.572-0.666-1.4-0.666-2.485c0-1.039,0.275-1.866,0.826-2.481c0.552-0.616,1.285-0.923,2.201-0.923
					c0.789,0,1.547,0.182,2.277,0.547l0.704-1.696c-0.953-0.41-1.942-0.615-2.967-0.615c-1.637,0-2.916,0.451-3.84,1.354
					c-0.922,0.902-1.384,2.16-1.384,3.773c0,1.659,0.398,2.932,1.193,3.818c0.795,0.886,1.947,1.33,3.456,1.33
					c0.592,0,1.172-0.043,1.739-0.127s1.173-0.231,1.814-0.441V5.025H49.45v1.763H49.453z M38.562,10.64
					c0.414-0.089,0.805-0.224,1.17-0.406V8.62c-0.447,0.21-0.875,0.363-1.285,0.458C38.036,9.174,37.6,9.222,37.14,9.222
					c-0.593,0-1.053-0.166-1.381-0.499c-0.328-0.333-0.504-0.795-0.525-1.388h4.928V6.323c0-1.084-0.3-1.934-0.902-2.549
					c-0.601-0.616-1.441-0.923-2.521-0.923c-1.131,0-2.017,0.35-2.656,1.049c-0.64,0.7-0.961,1.69-0.961,2.97
					c0,1.244,0.347,2.206,1.039,2.885c0.692,0.679,1.655,1.019,2.885,1.019C37.643,10.774,38.148,10.729,38.562,10.64 M37.805,4.755
					c0.261,0.28,0.395,0.677,0.403,1.192h-2.925c0.036-0.515,0.18-0.912,0.43-1.192c0.251-0.281,0.597-0.421,1.039-0.421
					S37.545,4.474,37.805,4.755 M29.355,5.083c0.255,0.376,0.383,0.94,0.383,1.692s-0.127,1.325-0.38,1.719
					s-0.594,0.591-1.022,0.591c-0.528,0-0.915-0.178-1.158-0.533c-0.244-0.356-0.365-0.943-0.365-1.764V6.563
					c0.009-0.729,0.132-1.252,0.368-1.569c0.237-0.317,0.613-0.475,1.128-0.475C28.752,4.519,29.101,4.707,29.355,5.083
					 M26.812,3.986H26.73c0.054-0.693,0.082-1.197,0.082-1.511V0h-2.086v10.637h1.594l0.348-0.841h0.145
					c0.51,0.652,1.214,0.978,2.111,0.978c0.907,0,1.624-0.347,2.15-1.039c0.525-0.693,0.79-1.671,0.79-2.933
					c0-1.226-0.256-2.191-0.767-2.895c-0.51-0.704-1.217-1.056-2.118-1.056C28.022,2.851,27.3,3.229,26.812,3.986 M21.32,3.244
					c-0.403,0.262-0.724,0.607-0.96,1.035h-0.104L19.95,2.994h-1.58v7.643h2.085v-3.89c0-0.615,0.186-1.094,0.558-1.435
					c0.371-0.342,0.89-0.513,1.556-0.513c0.24,0,0.445,0.023,0.614,0.068l0.157-1.955c-0.187-0.041-0.421-0.061-0.704-0.061
					C22.162,2.851,21.723,2.982,21.32,3.244 M15.076,10.64c0.414-0.089,0.804-0.224,1.168-0.406V8.62
					c-0.446,0.21-0.875,0.363-1.285,0.458c-0.41,0.096-0.845,0.144-1.305,0.144c-0.594,0-1.054-0.166-1.381-0.499
					c-0.328-0.333-0.505-0.795-0.527-1.388h4.929V6.323c0-1.084-0.301-1.934-0.901-2.549c-0.603-0.616-1.443-0.923-2.523-0.923
					c-1.13,0-2.015,0.35-2.655,1.049C9.955,4.6,9.635,5.59,9.635,6.87c0,1.244,0.346,2.206,1.039,2.885
					c0.693,0.679,1.654,1.019,2.885,1.019C14.155,10.774,14.661,10.729,15.076,10.64 M14.317,4.755
					c0.259,0.28,0.394,0.677,0.402,1.192h-2.926c0.037-0.515,0.18-0.912,0.431-1.192c0.251-0.281,0.598-0.421,1.039-0.421
					C13.706,4.334,14.057,4.474,14.317,4.755 M4.972,6.59C4.68,7.638,4.509,8.372,4.459,8.791C4.432,8.609,4.362,8.284,4.251,7.817
					C4.139,7.35,4.031,6.941,3.926,6.59l-1.88-5.947h-2.139l3.39,9.994h2.312l3.396-9.994H6.866L4.972,6.59z"/>
			</g>
		</g>
	</g>
</g>
</svg>
