<?xml version="1.0" encoding="utf-8"?>
<!-- Generator: Adobe Illustrator 15.1.0, SVG Export Plug-In . SVG Version: 6.00 Build 0)  -->
<!DOCTYPE svg PUBLIC "-//W3C//DTD SVG 1.1//EN" "http://www.w3.org/Graphics/SVG/1.1/DTD/svg11.dtd">
<svg version="1.1" id="Ebene_1" xmlns="http://www.w3.org/2000/svg" xmlns:xlink="http://www.w3.org/1999/xlink" x="0px" y="0px"
	 width="250px" height="58px" viewBox="0 0 250 58" enable-background="new 0 0 250 58" xml:space="preserve">
<g>
	<g>
		<g>
			<g>
				<path fill="#6A7482" d="M247.116,53.477c-0.214-0.242-0.321-0.59-0.321-1.041v-4.408h2.175v-0.883h-2.175V45.41h-0.657
					l-0.478,1.6l-1.073,0.473v0.547h1.073v4.457c0,1.525,0.726,2.291,2.174,2.291c0.191,0,0.407-0.021,0.646-0.061
					s0.421-0.087,0.543-0.146V53.7c-0.108,0.032-0.256,0.062-0.443,0.092s-0.381,0.045-0.581,0.045
					C247.624,53.837,247.33,53.716,247.116,53.477 M241.989,47.404c-0.393,0.265-0.729,0.641-1.005,1.128h-0.054l-0.133-1.388
					h-0.937v7.49h1.135v-4.02c0-0.734,0.215-1.348,0.646-1.84c0.432-0.491,0.947-0.737,1.556-0.737c0.237,0,0.51,0.034,0.819,0.104
					l0.156-1.055c-0.265-0.055-0.562-0.082-0.896-0.082C242.812,47.008,242.382,47.141,241.989,47.404 M236.233,48.529
					c0.316,0.38,0.479,0.928,0.479,1.644h-3.916c0.063-0.692,0.273-1.233,0.631-1.627c0.358-0.392,0.84-0.588,1.439-0.588
					C235.458,47.958,235.914,48.148,236.233,48.529 M236.47,54.661c0.357-0.076,0.736-0.2,1.14-0.373v-1.013
					c-0.788,0.339-1.586,0.507-2.394,0.507c-0.767,0-1.358-0.229-1.779-0.685c-0.424-0.455-0.646-1.123-0.668-2.002h5.16v-0.72
					c0-1.013-0.271-1.826-0.818-2.442c-0.547-0.617-1.29-0.928-2.229-0.928c-1.004,0-1.803,0.354-2.396,1.066
					c-0.596,0.711-0.895,1.67-0.895,2.878c0,1.198,0.32,2.135,0.961,2.811c0.642,0.675,1.516,1.013,2.621,1.013
					C235.681,54.773,236.111,54.736,236.47,54.661 M225.542,48.266c0.287-0.287,0.697-0.431,1.23-0.431
					c1.121,0,1.682,0.563,1.682,1.688c0,1.074-0.554,1.611-1.661,1.611c-0.528,0-0.938-0.135-1.237-0.402
					c-0.297-0.271-0.442-0.664-0.442-1.188C225.111,48.979,225.255,48.553,225.542,48.266 M224.927,54.835
					c0.287-0.246,0.688-0.369,1.203-0.369h1.36c0.692,0,1.164,0.078,1.415,0.236c0.251,0.157,0.376,0.438,0.376,0.844
					c0,0.487-0.229,0.874-0.688,1.159c-0.457,0.284-1.162,0.427-2.113,0.427c-0.641,0-1.129-0.104-1.471-0.313
					c-0.343-0.209-0.514-0.519-0.514-0.924C224.496,55.436,224.64,55.081,224.927,54.835 M227.88,47.145
					c-0.312-0.092-0.668-0.137-1.06-0.137c-0.902,0-1.599,0.223-2.093,0.666c-0.491,0.445-0.737,1.077-0.737,1.896
					c0,0.492,0.122,0.931,0.366,1.312c0.244,0.386,0.559,0.654,0.945,0.812c-0.313,0.191-0.545,0.392-0.689,0.597
					c-0.146,0.205-0.219,0.442-0.219,0.718c0,0.241,0.062,0.453,0.192,0.637s0.291,0.315,0.482,0.402
					c-0.529,0.118-0.938,0.346-1.229,0.68c-0.293,0.33-0.438,0.726-0.438,1.182c0,0.665,0.266,1.18,0.797,1.545
					c0.53,0.365,1.286,0.547,2.267,0.547c1.275,0,2.245-0.218,2.911-0.652c0.665-0.436,0.998-1.065,0.998-1.896
					c0-0.652-0.218-1.147-0.651-1.49c-0.437-0.342-1.06-0.513-1.869-0.513h-1.326c-0.41,0-0.699-0.051-0.868-0.147
					s-0.253-0.249-0.253-0.452c0-0.39,0.242-0.709,0.725-0.966c0.196,0.036,0.405,0.056,0.629,0.056
					c0.875,0,1.563-0.219,2.064-0.655s0.752-1.023,0.752-1.757c0-0.323-0.05-0.614-0.15-0.871c-0.101-0.258-0.215-0.467-0.342-0.627
					l1.391-0.163v-0.718h-2.594V47.145z M217.872,48.266c0.287-0.287,0.697-0.431,1.23-0.431c1.121,0,1.682,0.563,1.682,1.688
					c0,1.074-0.554,1.611-1.661,1.611c-0.528,0-0.938-0.135-1.237-0.402c-0.297-0.271-0.442-0.664-0.442-1.188
					C217.441,48.979,217.585,48.553,217.872,48.266 M217.257,54.835c0.287-0.246,0.688-0.369,1.203-0.369h1.36
					c0.692,0,1.164,0.078,1.415,0.236c0.251,0.157,0.376,0.438,0.376,0.844c0,0.487-0.229,0.874-0.688,1.159
					c-0.457,0.284-1.162,0.427-2.113,0.427c-0.641,0-1.129-0.104-1.471-0.313c-0.343-0.209-0.514-0.519-0.514-0.924
					C216.826,55.436,216.97,55.081,217.257,54.835 M220.21,47.145c-0.312-0.092-0.668-0.137-1.06-0.137
					c-0.902,0-1.601,0.223-2.093,0.666c-0.491,0.445-0.737,1.077-0.737,1.896c0,0.492,0.122,0.931,0.366,1.312
					c0.244,0.386,0.559,0.654,0.945,0.812c-0.313,0.191-0.546,0.392-0.689,0.597c-0.146,0.205-0.219,0.442-0.219,0.718
					c0,0.241,0.062,0.453,0.192,0.637s0.291,0.315,0.481,0.402c-0.527,0.118-0.938,0.346-1.229,0.68
					c-0.292,0.33-0.438,0.726-0.438,1.182c0,0.665,0.267,1.18,0.798,1.545c0.53,0.365,1.286,0.547,2.267,0.547
					c1.276,0,2.246-0.218,2.912-0.652c0.665-0.436,0.998-1.065,0.998-1.896c0-0.652-0.218-1.147-0.652-1.49
					c-0.436-0.342-1.059-0.513-1.869-0.513h-1.326c-0.409,0-0.698-0.051-0.867-0.147s-0.253-0.249-0.253-0.452
					c0-0.39,0.241-0.709,0.725-0.966c0.196,0.036,0.405,0.056,0.63,0.056c0.875,0,1.562-0.219,2.063-0.655s0.752-1.023,0.752-1.757
					c0-0.323-0.05-0.614-0.149-0.871c-0.102-0.258-0.216-0.467-0.343-0.627l1.388-0.163v-0.718h-2.592V47.145L220.21,47.145z
					 M213.224,45.686c0.127,0.125,0.285,0.188,0.479,0.188c0.182,0,0.339-0.062,0.473-0.188c0.133-0.125,0.197-0.314,0.197-0.569
					c0-0.257-0.064-0.444-0.197-0.567c-0.134-0.123-0.291-0.185-0.473-0.185c-0.191,0-0.352,0.061-0.479,0.181
					c-0.127,0.121-0.191,0.312-0.191,0.571C213.032,45.369,213.097,45.561,213.224,45.686 M214.263,47.145h-1.135v7.491h1.135
					V47.145z M211.733,44.643h-1.23l-1.572,6.159c-0.239,0.931-0.403,1.72-0.49,2.365c-0.15-0.89-0.336-1.687-0.555-2.394
					l-1.881-6.131h-1.229l-1.791,6.075c-0.241,0.8-0.424,1.613-0.547,2.447c-0.102-0.702-0.262-1.485-0.479-2.353l-1.579-6.174
					h-1.229l2.658,9.994h1.147l1.955-6.65c0.22-0.715,0.378-1.375,0.479-1.977c0.004,0.092,0.064,0.362,0.185,0.812
					c0.119,0.451,0.226,0.826,0.321,1.121l2.017,6.691h1.147L211.733,44.643z M189.745,53.516c-0.248-0.215-0.372-0.524-0.372-0.937
					c0-0.524,0.199-0.91,0.599-1.159c0.398-0.248,1.051-0.388,1.951-0.42l1.137-0.048v0.677c0,0.697-0.201,1.239-0.605,1.627
					c-0.402,0.389-0.958,0.581-1.664,0.581C190.341,53.837,189.994,53.73,189.745,53.516 M194.192,54.637v-5.113
					c0-0.875-0.215-1.51-0.646-1.905c-0.43-0.396-1.092-0.597-1.984-0.597c-0.441,0-0.885,0.059-1.321,0.172
					c-0.44,0.113-0.845,0.271-1.214,0.473l0.349,0.868c0.788-0.384,1.495-0.574,2.119-0.574c0.556,0,0.96,0.142,1.213,0.42
					c0.253,0.281,0.38,0.716,0.38,1.304v0.465l-1.271,0.041c-2.421,0.071-3.63,0.865-3.63,2.379c0,0.707,0.211,1.252,0.633,1.635
					c0.421,0.383,1.003,0.574,1.746,0.574c0.556,0,1.02-0.084,1.391-0.25c0.372-0.166,0.744-0.483,1.118-0.953h0.056l0.227,1.066
					h0.838v-0.004H194.192z M186.413,54.637v-4.888c0-0.957-0.229-1.653-0.684-2.088c-0.455-0.437-1.137-0.653-2.037-0.653
					c-0.518,0-0.982,0.102-1.401,0.305s-0.745,0.488-0.978,0.857h-0.057l-0.185-1.025h-0.923v7.492h1.135v-3.931
					c0-0.976,0.182-1.675,0.547-2.099c0.364-0.424,0.939-0.637,1.725-0.637c0.593,0,1.025,0.149,1.306,0.45
					c0.28,0.302,0.417,0.756,0.417,1.367v4.847L186.413,54.637L186.413,54.637z M176.706,45.686
					c0.127,0.125,0.287,0.188,0.479,0.188c0.184,0,0.341-0.062,0.473-0.188c0.132-0.125,0.197-0.314,0.197-0.569
					c0-0.257-0.065-0.444-0.197-0.567s-0.289-0.185-0.473-0.185c-0.19,0-0.353,0.061-0.479,0.181
					c-0.128,0.121-0.189,0.312-0.189,0.571C176.515,45.369,176.578,45.561,176.706,45.686 M177.745,47.145h-1.135v7.491h1.135
					V47.145z M173.021,47.404c-0.394,0.265-0.729,0.641-1.004,1.128h-0.057l-0.13-1.388h-0.937v7.49h1.135v-4.02
					c0-0.734,0.215-1.348,0.646-1.84c0.432-0.491,0.948-0.737,1.557-0.737c0.234,0,0.511,0.034,0.818,0.104l0.157-1.055
					c-0.265-0.055-0.562-0.082-0.896-0.082C173.845,47.008,173.413,47.141,173.021,47.404 M164.111,53.516
					c-0.249-0.215-0.373-0.524-0.373-0.937c0-0.524,0.198-0.91,0.598-1.159c0.399-0.248,1.05-0.388,1.952-0.42l1.135-0.048v0.677
					c0,0.697-0.199,1.239-0.604,1.627c-0.404,0.389-0.959,0.581-1.665,0.581C164.706,53.837,164.359,53.73,164.111,53.516
					 M168.558,54.637v-5.113c0-0.875-0.217-1.51-0.646-1.905c-0.429-0.396-1.092-0.597-1.984-0.597c-0.44,0-0.884,0.059-1.322,0.172
					c-0.439,0.113-0.846,0.271-1.213,0.473l0.349,0.868c0.788-0.384,1.495-0.574,2.119-0.574c0.556,0,0.961,0.142,1.214,0.42
					c0.253,0.281,0.379,0.716,0.379,1.304v0.465l-1.271,0.041c-2.42,0.071-3.631,0.865-3.631,2.379c0,0.707,0.211,1.252,0.633,1.635
					s1.006,0.574,1.748,0.574c0.557,0,1.02-0.084,1.392-0.25c0.371-0.166,0.744-0.483,1.116-0.953h0.056l0.228,1.066h0.838v-0.004
					H168.558z M160.778,54.637v-4.888c0-0.948-0.229-1.64-0.688-2.075c-0.459-0.435-1.146-0.652-2.062-0.652
					c-0.529,0-0.999,0.104-1.412,0.312c-0.412,0.208-0.729,0.492-0.953,0.854h-0.067c0.035-0.256,0.056-0.576,0.056-0.965V44h-1.136
					v10.637h1.136v-3.916c0-0.977,0.181-1.678,0.544-2.104c0.361-0.429,0.938-0.644,1.727-0.644c0.592,0,1.026,0.149,1.307,0.45
					c0.275,0.302,0.416,0.757,0.416,1.367v4.847H160.778z M151.112,53.477c-0.215-0.242-0.321-0.59-0.321-1.041v-4.408h2.175v-0.883
					h-2.175V45.41h-0.655l-0.479,1.6l-1.073,0.473v0.547h1.073v4.457c0,1.525,0.726,2.291,2.174,2.291
					c0.19,0,0.407-0.021,0.646-0.061s0.42-0.087,0.543-0.146V53.7c-0.108,0.032-0.258,0.062-0.443,0.092
					c-0.188,0.03-0.381,0.045-0.581,0.045C151.62,53.837,151.326,53.716,151.112,53.477 M142.789,53.516
					c-0.248-0.215-0.372-0.524-0.372-0.937c0-0.524,0.199-0.91,0.6-1.159c0.397-0.248,1.05-0.388,1.951-0.42l1.135-0.048v0.677
					c0,0.697-0.2,1.239-0.604,1.627c-0.401,0.389-0.958,0.581-1.664,0.581C143.386,53.837,143.038,53.73,142.789,53.516
					 M147.236,54.637v-5.113c0-0.875-0.216-1.51-0.646-1.905c-0.432-0.396-1.094-0.597-1.984-0.597
					c-0.442,0-0.883,0.059-1.322,0.172s-0.846,0.271-1.214,0.473l0.349,0.868c0.788-0.384,1.495-0.574,2.119-0.574
					c0.557,0,0.96,0.142,1.213,0.42c0.254,0.281,0.381,0.716,0.381,1.304v0.465l-1.271,0.041c-2.42,0.071-3.631,0.865-3.631,2.379
					c0,0.707,0.212,1.252,0.634,1.635c0.421,0.383,1.003,0.574,1.746,0.574c0.556,0,1.021-0.084,1.391-0.25
					c0.372-0.166,0.744-0.483,1.118-0.953h0.055l0.228,1.066h0.838v-0.004H147.236z M136.415,48.982l4.021-4.34h-1.375l-4.531,4.955
					v-4.955h-1.162v9.992h1.162v-3.914l1.046-0.932l3.644,4.847h1.367L136.415,48.982z M125.478,48.874
					c0.209,0.201,0.506,0.301,0.889,0.301c0.369,0,0.66-0.102,0.872-0.304c0.212-0.203,0.317-0.489,0.317-0.857
					c0-0.375-0.104-0.66-0.312-0.861c-0.207-0.199-0.5-0.301-0.878-0.301c-0.392,0-0.69,0.1-0.896,0.293
					c-0.207,0.195-0.309,0.485-0.309,0.869C125.163,48.386,125.268,48.673,125.478,48.874 M125.478,54.518
					c0.209,0.203,0.506,0.306,0.889,0.306c0.374,0,0.665-0.104,0.875-0.312s0.314-0.489,0.314-0.851
					c0-0.374-0.104-0.661-0.312-0.861c-0.207-0.199-0.5-0.301-0.878-0.301c-0.392,0-0.69,0.1-0.896,0.294
					c-0.207,0.194-0.309,0.483-0.309,0.868C125.163,54.027,125.268,54.314,125.478,54.518 M120.207,48.115
					c0.756,0,1.135,0.461,1.135,1.381c0,0.415-0.092,0.743-0.272,0.984c-0.184,0.24-0.469,0.36-0.861,0.36
					c-0.388,0-0.676-0.12-0.865-0.36c-0.188-0.241-0.282-0.569-0.282-0.984C119.058,48.576,119.441,48.115,120.207,48.115
					 M118.686,55.002c0.257-0.18,0.575-0.27,0.96-0.27h1.08c0.522,0,0.911,0.055,1.161,0.164c0.252,0.107,0.377,0.308,0.377,0.595
					c0,0.354-0.213,0.636-0.637,0.841c-0.424,0.205-1.01,0.309-1.757,0.309c-0.497,0-0.883-0.082-1.159-0.246
					c-0.274-0.164-0.413-0.391-0.413-0.678C118.3,55.42,118.428,55.182,118.686,55.002 M121.533,46.994
					c-0.082-0.018-0.271-0.047-0.564-0.085c-0.294-0.039-0.548-0.06-0.762-0.06c-1.007,0-1.782,0.229-2.324,0.685
					c-0.543,0.456-0.812,1.101-0.812,1.935c0,0.521,0.117,0.971,0.352,1.354c0.235,0.383,0.555,0.661,0.954,0.834
					c-0.318,0.187-0.562,0.377-0.73,0.571c-0.168,0.191-0.254,0.436-0.254,0.728c0,0.231,0.079,0.452,0.239,0.66
					c0.159,0.207,0.348,0.354,0.562,0.446c-0.558,0.133-0.979,0.354-1.266,0.664c-0.288,0.31-0.431,0.692-0.431,1.153
					c0,0.67,0.281,1.188,0.844,1.562c0.563,0.371,1.378,0.558,2.444,0.558c1.395,0,2.464-0.246,3.209-0.738
					c0.746-0.491,1.118-1.185,1.118-2.075c0-0.699-0.222-1.229-0.66-1.588c-0.439-0.358-1.078-0.539-1.917-0.539h-1.299
					c-0.767,0-1.148-0.15-1.148-0.451c0-0.2,0.107-0.383,0.321-0.547l0.308,0.032l0.376,0.021c1.018,0,1.812-0.229,2.383-0.688
					c0.571-0.458,0.857-1.097,0.857-1.917c0-0.424-0.11-0.807-0.328-1.147l1.196-0.307v-1.062L121.533,46.994L121.533,46.994z
					 M115.401,49.652c0-0.906-0.23-1.602-0.69-2.08c-0.461-0.481-1.135-0.723-2.022-0.723c-0.521,0-0.983,0.096-1.393,0.282
					c-0.408,0.188-0.728,0.47-0.96,0.839h-0.116l-0.279-0.979h-1.595v7.643h2.085V51.04c0-0.901,0.132-1.548,0.392-1.938
					c0.26-0.39,0.681-0.584,1.265-0.584c0.43,0,0.74,0.137,0.938,0.412c0.194,0.276,0.294,0.689,0.294,1.241v4.464h2.085v-4.982
					H115.401L115.401,49.652z M106.159,54.637v-7.643h-2.085v3.596c0,0.902-0.13,1.549-0.39,1.938
					c-0.261,0.391-0.683,0.584-1.266,0.584c-0.429,0-0.741-0.139-0.937-0.411c-0.196-0.276-0.294-0.69-0.294-1.241v-4.464h-2.085
					v4.981c0,0.902,0.228,1.594,0.684,2.074c0.456,0.481,1.132,0.723,2.03,0.723c0.522,0,0.991-0.099,1.4-0.291
					c0.41-0.192,0.728-0.469,0.95-0.822h0.109l0.28,0.979h1.604V54.637z M95.738,47.244c-0.404,0.262-0.724,0.607-0.961,1.035
					h-0.104l-0.308-1.285h-1.579v7.643h2.085v-3.89c0-0.615,0.188-1.095,0.559-1.437c0.369-0.343,0.89-0.514,1.555-0.514
					c0.242,0,0.447,0.021,0.615,0.068l0.156-1.955c-0.187-0.041-0.422-0.062-0.704-0.062C96.58,46.852,96.141,46.982,95.738,47.244
					 M90.641,49.652c0-0.901-0.232-1.596-0.697-2.077c-0.465-0.483-1.146-0.726-2.044-0.726c-1.014,0-1.75,0.373-2.215,1.121h-0.109
					l0.048-0.615c0.032-0.623,0.048-1.021,0.048-1.188V44h-2.085v10.637h2.085v-3.596c0-0.889,0.13-1.531,0.391-1.928
					c0.26-0.397,0.682-0.596,1.265-0.596c0.82,0,1.229,0.553,1.229,1.653v4.464h2.086v-4.982H90.641z M78.552,45.719
					c0.187,0.148,0.414,0.223,0.688,0.223c0.292,0,0.525-0.082,0.704-0.246c0.178-0.162,0.267-0.385,0.267-0.661
					c0-0.287-0.088-0.515-0.263-0.679c-0.176-0.164-0.412-0.246-0.708-0.246c-0.273,0-0.502,0.074-0.688,0.224
					c-0.185,0.147-0.275,0.382-0.275,0.701C78.275,45.342,78.367,45.57,78.552,45.719 M75.777,45.702
					c0.171,0.159,0.4,0.239,0.692,0.239c0.298,0,0.53-0.084,0.704-0.25c0.174-0.166,0.261-0.387,0.261-0.659
					c0-0.278-0.086-0.501-0.258-0.671c-0.171-0.168-0.405-0.252-0.707-0.252c-0.292,0-0.521,0.08-0.692,0.238
					c-0.171,0.158-0.257,0.389-0.257,0.685C75.52,45.318,75.606,45.543,75.777,45.702 M81.399,54.637v-7.643h-2.085v3.596
					c0,0.902-0.13,1.549-0.391,1.938c-0.26,0.391-0.682,0.584-1.265,0.584c-0.428,0-0.741-0.139-0.938-0.411
					c-0.195-0.276-0.293-0.69-0.293-1.241v-4.464h-2.086v4.981c0,0.902,0.229,1.594,0.685,2.074c0.456,0.481,1.133,0.723,2.03,0.723
					c0.522,0,0.99-0.099,1.4-0.291c0.41-0.192,0.729-0.469,0.95-0.822h0.109l0.279,0.979h1.605V54.637z M73.189,46.994h-1.805
					v-0.479c0-0.273,0.066-0.498,0.198-0.676c0.132-0.175,0.347-0.263,0.644-0.263c0.354,0,0.741,0.065,1.162,0.196l0.532-1.529
					c-0.561-0.215-1.2-0.321-1.921-0.321c-0.943,0-1.629,0.2-2.058,0.603c-0.428,0.399-0.644,1.037-0.644,1.908v0.561l-1.147,0.561
					v1.006h1.147v6.076h2.085v-6.076h1.806L73.189,46.994L73.189,46.994z M67.139,51.391c-0.134-0.272-0.339-0.516-0.615-0.726
					c-0.278-0.21-0.715-0.435-1.312-0.677c-0.67-0.271-1.104-0.471-1.303-0.608c-0.198-0.137-0.297-0.299-0.297-0.485
					c0-0.332,0.308-0.498,0.923-0.498c0.346,0,0.686,0.054,1.019,0.156c0.332,0.105,0.69,0.239,1.073,0.403l0.629-1.504
					c-0.871-0.401-1.766-0.603-2.687-0.603c-0.966,0-1.712,0.187-2.239,0.559c-0.526,0.371-0.789,0.896-0.789,1.574
					c0,0.396,0.062,0.729,0.188,1.002c0.125,0.271,0.325,0.512,0.601,0.722s0.708,0.438,1.296,0.685
					c0.41,0.174,0.738,0.323,0.984,0.453c0.246,0.131,0.419,0.246,0.52,0.35c0.102,0.104,0.15,0.236,0.15,0.399
					c0,0.438-0.378,0.656-1.135,0.656c-0.369,0-0.796-0.062-1.281-0.185c-0.486-0.123-0.922-0.275-1.309-0.459v1.724
					c0.341,0.146,0.706,0.256,1.1,0.332c0.392,0.075,0.866,0.112,1.422,0.112c1.085,0,1.899-0.205,2.444-0.615
					c0.544-0.41,0.815-1.008,0.815-1.791C67.338,51.989,67.272,51.663,67.139,51.391 M58.489,52.9
					c-0.167-0.144-0.25-0.36-0.25-0.656v-3.684h2.14v-1.565h-2.14v-1.627h-1.333l-0.601,1.612l-1.149,0.696v0.884h0.998v3.685
					c0,0.843,0.188,1.476,0.571,1.896c0.38,0.424,0.986,0.633,1.82,0.633c0.756,0,1.396-0.114,1.914-0.349v-1.552
					c-0.511,0.16-0.948,0.238-1.312,0.238C58.875,53.111,58.655,53.042,58.489,52.9 M54.732,46.994h-1.806v-0.479
					c0-0.273,0.066-0.498,0.198-0.676c0.132-0.175,0.347-0.263,0.644-0.263c0.354,0,0.741,0.065,1.162,0.196l0.532-1.529
					c-0.561-0.215-1.2-0.321-1.921-0.321c-0.942,0-1.629,0.2-2.058,0.603c-0.428,0.399-0.644,1.037-0.644,1.908v0.561l-1.147,0.561
					v1.006h1.147v6.076h2.085v-6.076h1.806L54.732,46.994L54.732,46.994z M45.938,45.719c0.184,0.148,0.413,0.223,0.687,0.223
					c0.291,0,0.526-0.082,0.704-0.246c0.178-0.162,0.268-0.385,0.268-0.661c0-0.287-0.089-0.515-0.265-0.679
					c-0.175-0.164-0.411-0.246-0.707-0.246c-0.272,0-0.503,0.074-0.687,0.224c-0.187,0.147-0.277,0.382-0.277,0.701
					C45.661,45.342,45.753,45.57,45.938,45.719 M43.162,45.702c0.171,0.159,0.403,0.239,0.694,0.239c0.296,0,0.529-0.084,0.704-0.25
					c0.174-0.166,0.26-0.387,0.26-0.659c0-0.278-0.085-0.501-0.256-0.671c-0.171-0.168-0.407-0.252-0.708-0.252
					c-0.291,0-0.523,0.08-0.694,0.238c-0.17,0.158-0.256,0.389-0.256,0.685C42.906,45.318,42.992,45.543,43.162,45.702
					 M46.29,51.727c0,0.459-0.145,0.828-0.434,1.105c-0.29,0.277-0.677,0.417-1.159,0.417c-0.674,0-1.012-0.294-1.012-0.882
					c0-0.41,0.146-0.715,0.443-0.916c0.296-0.2,0.747-0.311,1.354-0.328l0.807-0.027L46.29,51.727L46.29,51.727z M48.361,54.637
					v-5.093c0-0.912-0.273-1.591-0.82-2.037c-0.547-0.446-1.333-0.67-2.357-0.67c-1.071,0-2.048,0.229-2.927,0.69l0.69,1.408
					c0.825-0.369,1.543-0.556,2.153-0.556c0.793,0,1.188,0.39,1.188,1.162v0.335l-1.326,0.041c-1.144,0.041-2,0.254-2.565,0.641
					c-0.568,0.385-0.853,0.981-0.853,1.795c0,0.772,0.21,1.371,0.633,1.791s0.999,0.629,1.732,0.629
					c0.597,0,1.081-0.086,1.453-0.256c0.371-0.172,0.731-0.479,1.083-0.92H46.5l0.403,1.039H48.361L48.361,54.637z M39.905,49.652
					c0-0.901-0.232-1.596-0.697-2.077c-0.465-0.483-1.146-0.726-2.044-0.726c-1.012,0-1.75,0.373-2.215,1.121H34.84l0.048-0.615
					c0.031-0.623,0.049-1.021,0.049-1.188V44h-2.086v10.637h2.086v-3.596c0-0.889,0.13-1.531,0.39-1.928
					c0.26-0.397,0.681-0.596,1.265-0.596c0.82,0,1.23,0.553,1.23,1.653v4.464h2.085L39.905,49.652L39.905,49.652z M30.058,54.65
					c0.344-0.082,0.685-0.23,1.021-0.444v-1.784c-0.342,0.229-0.684,0.396-1.023,0.502c-0.344,0.107-0.716,0.161-1.115,0.161
					c-1.084,0-1.627-0.747-1.627-2.242c0-1.541,0.543-2.311,1.627-2.311c0.283,0,0.563,0.042,0.848,0.127
					c0.282,0.084,0.588,0.192,0.916,0.323l0.615-1.612c-0.702-0.347-1.495-0.521-2.379-0.521c-1.207,0-2.135,0.344-2.782,1.027
					c-0.647,0.688-0.971,1.68-0.971,2.979c0,2.61,1.188,3.918,3.567,3.918C29.28,54.773,29.714,54.732,30.058,54.65 M23.827,51.391
					c-0.132-0.272-0.337-0.516-0.615-0.726c-0.276-0.21-0.716-0.435-1.312-0.677c-0.67-0.271-1.104-0.471-1.303-0.608
					c-0.197-0.137-0.298-0.299-0.298-0.485c0-0.332,0.309-0.498,0.923-0.498c0.348,0,0.687,0.054,1.02,0.156
					c0.333,0.105,0.689,0.239,1.073,0.403l0.629-1.504c-0.87-0.401-1.768-0.603-2.688-0.603c-0.967,0-1.713,0.187-2.237,0.559
					c-0.526,0.371-0.79,0.896-0.79,1.574c0,0.396,0.062,0.729,0.188,1.002c0.126,0.271,0.326,0.512,0.604,0.722
					c0.274,0.21,0.707,0.438,1.295,0.685c0.41,0.174,0.738,0.323,0.984,0.453c0.245,0.131,0.419,0.246,0.52,0.35
					c0.1,0.104,0.15,0.236,0.15,0.399c0,0.438-0.379,0.656-1.136,0.656c-0.368,0-0.797-0.062-1.281-0.185s-0.923-0.275-1.31-0.459
					v1.724c0.342,0.146,0.709,0.256,1.102,0.332c0.392,0.075,0.864,0.112,1.422,0.112c1.085,0,1.898-0.205,2.442-0.615
					c0.545-0.41,0.817-1.008,0.817-1.791C24.025,51.989,23.959,51.663,23.827,51.391 M15.398,54.641
					c0.415-0.09,0.805-0.225,1.169-0.406V52.62c-0.446,0.21-0.875,0.362-1.285,0.458s-0.845,0.145-1.306,0.145
					c-0.594,0-1.054-0.168-1.382-0.5c-0.327-0.332-0.504-0.796-0.525-1.388h4.929v-1.012c0-1.084-0.301-1.935-0.901-2.55
					c-0.602-0.615-1.442-0.924-2.522-0.924c-1.13,0-2.015,0.351-2.656,1.051c-0.64,0.697-0.96,1.688-0.96,2.97
					c0,1.244,0.347,2.206,1.039,2.885c0.693,0.681,1.654,1.019,2.885,1.019C14.478,54.773,14.984,54.729,15.398,54.641
					 M14.639,48.754c0.26,0.281,0.395,0.678,0.402,1.193h-2.926c0.036-0.516,0.18-0.912,0.431-1.193
					c0.25-0.279,0.599-0.42,1.039-0.42C14.029,48.334,14.38,48.475,14.639,48.754 M4.242,50.788h1.894v2.085
					c-0.455,0.091-0.903,0.137-1.347,0.137c-0.848,0-1.494-0.285-1.938-0.857c-0.444-0.57-0.667-1.398-0.667-2.483
					c0-1.039,0.274-1.866,0.826-2.479c0.553-0.615,1.285-0.924,2.201-0.924c0.788,0,1.547,0.184,2.276,0.547l0.704-1.694
					c-0.952-0.41-1.941-0.615-2.967-0.615c-1.638,0-2.915,0.451-3.84,1.354C0.461,46.758,0,48.018,0,49.629
					c0,1.659,0.397,2.932,1.193,3.816c0.795,0.888,1.947,1.33,3.455,1.33c0.593,0,1.173-0.043,1.74-0.127
					c0.565-0.084,1.172-0.229,1.813-0.439v-5.184H4.236v1.764L4.242,50.788L4.242,50.788z"/>
			</g>
		</g>
	</g>
</g>
<g>
	<g>
		<g>
			<g>
				<path fill="#6A7482" d="M194.284,31.454c-0.335-0.236-0.594-0.558-0.775-0.964c-0.183-0.406-0.271-0.844-0.271-1.312
					c0-0.318,0.102-0.626,0.305-0.923c0.202-0.297,0.477-0.528,0.816-0.697c0.342-0.168,0.718-0.253,1.128-0.253
					c0.661,0,1.155,0.189,1.489,0.567c0.332,0.378,0.498,0.898,0.498,1.559c0,0.771-0.179,1.359-0.535,1.767
					c-0.357,0.407-0.86,0.612-1.508,0.612C195.002,31.811,194.619,31.691,194.284,31.454 M192.982,31.607
					c0.604,0.776,1.426,1.166,2.461,1.166c0.966,0,1.731-0.297,2.3-0.895c0.566-0.595,0.852-1.411,0.852-2.45
					c0-0.93-0.259-1.665-0.774-2.208c-0.519-0.542-1.226-0.813-2.122-0.813c-1.085,0-1.878,0.393-2.379,1.176h-0.082
					c0.055-1.431,0.363-2.48,0.93-3.147c0.564-0.668,1.385-1.002,2.454-1.002c0.451,0,0.854,0.057,1.203,0.171V22.63
					c-0.297-0.087-0.702-0.13-1.218-0.13c-1.494,0-2.623,0.486-3.387,1.458c-0.766,0.974-1.146,2.442-1.146,4.406
					C192.073,29.749,192.377,30.831,192.982,31.607 M189.339,23.165c-0.537-0.444-1.291-0.666-2.263-0.666
					c-0.593,0-1.156,0.092-1.69,0.277c-0.535,0.184-1.01,0.438-1.42,0.762l0.574,0.766c0.496-0.318,0.938-0.537,1.326-0.656
					c0.388-0.118,0.799-0.178,1.236-0.178c0.574,0,1.029,0.14,1.363,0.417c0.336,0.277,0.502,0.66,0.502,1.148
					c0,0.611-0.229,1.088-0.684,1.433c-0.455,0.344-1.073,0.516-1.854,0.516h-0.998v0.978h0.983c1.904,0,2.857,0.606,2.857,1.817
					c0,1.354-0.864,2.032-2.591,2.032c-0.438,0-0.901-0.058-1.393-0.168c-0.49-0.111-0.951-0.274-1.385-0.488v1.08
					c0.414,0.201,0.842,0.341,1.281,0.42c0.438,0.08,0.924,0.119,1.453,0.119c1.217,0,2.154-0.256,2.814-0.771
					c0.66-0.513,0.991-1.244,0.991-2.197c0-0.665-0.193-1.203-0.581-1.613c-0.389-0.41-0.982-0.665-1.784-0.766v-0.055
					c0.656-0.137,1.164-0.408,1.521-0.813c0.357-0.405,0.537-0.928,0.537-1.565C190.146,24.22,189.877,23.61,189.339,23.165
					 M182.517,31.584h-5.143v-0.055l2.188-2.14c0.976-0.947,1.642-1.731,1.996-2.352s0.533-1.247,0.533-1.88
					c0-0.811-0.268-1.457-0.801-1.938c-0.533-0.481-1.27-0.721-2.208-0.721c-1.084,0-2.088,0.383-3.008,1.148l0.603,0.772
					c0.455-0.359,0.869-0.608,1.24-0.744c0.37-0.138,0.766-0.206,1.18-0.206c0.574,0,1.021,0.156,1.348,0.469
					c0.322,0.312,0.484,0.734,0.484,1.268c0,0.378-0.063,0.731-0.19,1.06c-0.128,0.328-0.317,0.666-0.574,1.012
					c-0.256,0.346-0.782,0.925-1.586,1.736l-2.632,2.646v0.978h6.568v-1.053H182.517z M170.269,31.454
					c-0.334-0.236-0.594-0.558-0.774-0.964s-0.272-0.844-0.272-1.312c0-0.318,0.103-0.626,0.305-0.923
					c0.203-0.297,0.475-0.528,0.816-0.697c0.342-0.168,0.719-0.253,1.127-0.253c0.662,0,1.158,0.189,1.49,0.567
					c0.333,0.378,0.499,0.898,0.499,1.559c0,0.771-0.179,1.359-0.536,1.767c-0.356,0.407-0.859,0.612-1.508,0.612
					C170.986,31.811,170.604,31.691,170.269,31.454 M168.968,31.607c0.605,0.776,1.428,1.166,2.461,1.166
					c0.967,0,1.732-0.297,2.301-0.895c0.568-0.595,0.854-1.411,0.854-2.45c0-0.93-0.26-1.665-0.775-2.208
					c-0.52-0.542-1.227-0.813-2.123-0.813c-1.084,0-1.877,0.393-2.379,1.176h-0.082c0.056-1.431,0.365-2.48,0.931-3.147
					c0.563-0.668,1.383-1.002,2.454-1.002c0.451,0,0.852,0.057,1.203,0.171V22.63c-0.297-0.087-0.702-0.13-1.219-0.13
					c-1.494,0-2.623,0.486-3.388,1.458c-0.763,0.974-1.146,2.442-1.146,4.406C168.058,29.749,168.361,30.831,168.968,31.607
					 M164.296,23.818c0.336,0.233,0.598,0.552,0.782,0.957c0.188,0.406,0.28,0.848,0.28,1.326c0,0.318-0.102,0.625-0.301,0.916
					c-0.201,0.292-0.477,0.521-0.824,0.69c-0.35,0.168-0.729,0.253-1.146,0.253c-0.67,0-1.169-0.188-1.496-0.563
					c-0.328-0.375-0.492-0.893-0.492-1.549c0-0.747,0.179-1.33,0.533-1.75c0.354-0.419,0.857-0.629,1.512-0.629
					C163.576,23.47,163.961,23.586,164.296,23.818 M166.097,24.546c-0.273-0.667-0.664-1.176-1.174-1.523
					c-0.508-0.349-1.103-0.523-1.779-0.523c-0.948,0-1.713,0.301-2.293,0.902c-0.582,0.602-0.873,1.422-0.873,2.461
					c0,0.948,0.261,1.686,0.779,2.215c0.52,0.529,1.223,0.793,2.104,0.793c0.521,0,0.985-0.099,1.399-0.298
					c0.416-0.198,0.748-0.486,0.998-0.864h0.082c-0.05,1.399-0.354,2.438-0.912,3.114c-0.559,0.676-1.385,1.015-2.479,1.015
					c-0.465,0-0.88-0.061-1.244-0.178v0.979c0.311,0.092,0.729,0.137,1.258,0.137c3.025,0,4.539-1.955,4.539-5.864
					C166.507,26.001,166.37,25.214,166.097,24.546 M151.071,27.906c0.854,0,1.486,0.146,1.904,0.438
					c0.416,0.292,0.625,0.747,0.625,1.367c0,0.665-0.205,1.154-0.612,1.467s-1.015,0.469-1.821,0.469h-2.086v-3.738L151.071,27.906
					L151.071,27.906z M149.081,23.647h1.709c0.875,0,1.514,0.124,1.916,0.373c0.4,0.248,0.602,0.652,0.602,1.213
					c0,0.611-0.181,1.045-0.539,1.302c-0.36,0.258-0.95,0.387-1.771,0.387h-1.915L149.081,23.647L149.081,23.647z M147.921,32.637
					h3.485c1.084,0,1.93-0.25,2.532-0.751c0.604-0.503,0.904-1.198,0.904-2.093c0-1.336-0.759-2.133-2.274-2.393v-0.068
					c0.633-0.113,1.114-0.363,1.446-0.749c0.328-0.385,0.494-0.874,0.494-1.466c0-0.856-0.297-1.482-0.89-1.88
					c-0.593-0.396-1.552-0.595-2.878-0.595h-2.823L147.921,32.637L147.921,32.637z M140.429,23.661h1.512
					c0.859,0,1.486,0.146,1.876,0.438s0.585,0.768,0.585,1.429c0,0.652-0.191,1.141-0.574,1.466
					c-0.383,0.326-0.984,0.489-1.805,0.489h-1.594V23.661L140.429,23.661z M142.513,28.48l2.422,4.156h1.373l-2.715-4.491
					c1.342-0.465,2.012-1.358,2.012-2.68c0-0.943-0.293-1.649-0.879-2.119c-0.586-0.469-1.491-0.705-2.719-0.705h-2.74v9.995h1.162
					V28.48H142.513z M136.524,22.642h-1.162v4.252h-5.264v-4.252h-1.162v9.995h1.162v-4.703h5.264v4.703h1.162V22.642z
					 M121.642,31.011c-0.06,0.419-0.163,0.979-0.312,1.675c-0.146,0.696-0.283,1.282-0.406,1.756h0.854
					c0.241-0.52,0.475-1.08,0.697-1.686c0.223-0.604,0.394-1.134,0.513-1.589l-0.104-0.156H121.642z M119.366,32.637v-4.888
					c0-0.957-0.229-1.652-0.684-2.089c-0.456-0.435-1.136-0.652-2.037-0.652c-0.516,0-0.982,0.102-1.401,0.305
					c-0.42,0.203-0.745,0.489-0.978,0.857h-0.056l-0.185-1.025h-0.923v7.492h1.135v-3.931c0-0.975,0.183-1.675,0.547-2.099
					c0.364-0.424,0.938-0.636,1.723-0.636c0.594,0,1.027,0.15,1.307,0.451c0.278,0.301,0.417,0.757,0.417,1.367v4.847
					L119.366,32.637L119.366,32.637z M109.659,23.686c0.127,0.125,0.287,0.188,0.479,0.188c0.183,0,0.341-0.062,0.473-0.188
					c0.132-0.126,0.198-0.316,0.198-0.571c0-0.255-0.066-0.444-0.198-0.567c-0.132-0.123-0.29-0.185-0.473-0.185
					c-0.19,0-0.352,0.061-0.479,0.181c-0.128,0.121-0.191,0.311-0.191,0.571C109.468,23.369,109.531,23.561,109.659,23.686
					 M110.698,25.145h-1.135v7.492h1.135V25.145z M102.778,31.516c-0.248-0.214-0.372-0.524-0.372-0.937
					c0-0.522,0.199-0.91,0.599-1.159c0.398-0.248,1.049-0.388,1.95-0.42l1.136-0.048v0.677c0,0.697-0.2,1.239-0.604,1.627
					c-0.402,0.389-0.958,0.581-1.664,0.581C103.374,31.837,103.027,31.73,102.778,31.516 M107.225,32.637v-5.113
					c0-0.875-0.216-1.511-0.646-1.907c-0.43-0.396-1.093-0.595-1.985-0.595c-0.441,0-0.883,0.057-1.322,0.171
					c-0.439,0.114-0.845,0.271-1.213,0.472l0.349,0.868c0.788-0.383,1.494-0.574,2.119-0.574c0.556,0,0.96,0.141,1.213,0.42
					c0.253,0.28,0.38,0.716,0.38,1.303v0.465l-1.271,0.041c-2.42,0.073-3.631,0.866-3.631,2.378c0,0.707,0.211,1.252,0.634,1.635
					c0.421,0.383,1.003,0.574,1.745,0.574c0.557,0,1.021-0.084,1.392-0.25c0.372-0.166,0.744-0.484,1.118-0.953h0.055l0.226,1.066
					h0.839v-0.002H107.225z M94.668,32.637l3.418-8.846h0.056c-0.064,0.866-0.097,1.668-0.097,2.406v6.439h1.161v-9.995h-1.734
					l-3.192,8.245h-0.055l-3.165-8.245h-1.75v9.995h1.072v-6.357c0-0.966-0.031-1.8-0.096-2.502h0.055l3.392,8.859L94.668,32.637
					L94.668,32.637z M83.163,32.637v-4.888c0-0.957-0.211-1.652-0.633-2.089c-0.421-0.435-1.056-0.652-1.903-0.652
					c-0.542,0-1.024,0.114-1.448,0.342c-0.425,0.228-0.747,0.538-0.973,0.93h-0.054c-0.359-0.848-1.126-1.271-2.297-1.271
					c-0.483,0-0.92,0.103-1.31,0.308c-0.391,0.205-0.691,0.49-0.905,0.854h-0.056l-0.185-1.025h-0.923v7.493h1.135v-3.932
					c0-0.971,0.165-1.669,0.495-2.095c0.331-0.426,0.852-0.64,1.562-0.64c0.543,0,0.94,0.149,1.196,0.447
					c0.255,0.3,0.382,0.746,0.382,1.344v4.874h1.136v-4.184c0-0.843,0.169-1.468,0.507-1.873c0.337-0.406,0.857-0.608,1.563-0.608
					c0.538,0,0.937,0.149,1.19,0.447c0.255,0.3,0.383,0.746,0.383,1.344v4.874H83.163z M65.693,31.516
					c-0.248-0.214-0.372-0.524-0.372-0.937c0-0.522,0.199-0.91,0.599-1.159c0.398-0.248,1.049-0.388,1.951-0.42l1.135-0.048v0.677
					c0,0.697-0.2,1.239-0.604,1.627c-0.403,0.389-0.958,0.581-1.664,0.581C66.29,31.837,65.942,31.73,65.693,31.516 M70.14,32.637
					v-5.113c0-0.875-0.216-1.511-0.646-1.907s-1.093-0.595-1.985-0.595c-0.441,0-0.883,0.057-1.322,0.171
					c-0.439,0.114-0.845,0.271-1.213,0.472l0.349,0.868c0.788-0.383,1.494-0.574,2.119-0.574c0.556,0,0.96,0.141,1.213,0.42
					c0.253,0.28,0.38,0.716,0.38,1.303v0.465l-1.271,0.041c-2.421,0.073-3.631,0.866-3.631,2.378c0,0.707,0.212,1.252,0.634,1.635
					c0.421,0.383,1.003,0.574,1.746,0.574c0.556,0,1.02-0.084,1.391-0.25c0.372-0.166,0.744-0.484,1.118-0.953h0.055l0.226,1.066
					h0.839v-0.002H70.14z M57.651,31.475c-0.214-0.24-0.321-0.588-0.321-1.039v-4.409h2.174v-0.882H57.33v-1.736h-0.656l-0.479,1.6
					l-1.073,0.472v0.547h1.073v4.457c0,1.527,0.725,2.291,2.174,2.291c0.191,0,0.406-0.021,0.646-0.06
					c0.238-0.038,0.42-0.088,0.543-0.146V31.7c-0.109,0.032-0.258,0.063-0.444,0.092c-0.188,0.03-0.381,0.045-0.581,0.045
					C58.159,31.837,57.865,31.716,57.651,31.475 M52.524,25.404c-0.393,0.264-0.728,0.64-1.005,1.128h-0.056l-0.13-1.388h-0.937
					v7.492h1.135v-4.02c0-0.734,0.216-1.347,0.646-1.839c0.431-0.492,0.949-0.738,1.556-0.738c0.236,0,0.51,0.034,0.819,0.103
					l0.157-1.053c-0.265-0.055-0.562-0.082-0.896-0.082C53.346,25.008,52.917,25.141,52.524,25.404 M41.723,25.145v4.901
					c0,0.952,0.227,1.646,0.68,2.078c0.454,0.435,1.137,0.649,2.048,0.649c0.528,0,0.999-0.1,1.411-0.295
					c0.413-0.195,0.734-0.479,0.968-0.849h0.062l0.164,1.005h0.937v-7.492h-1.135v3.938c0,0.971-0.182,1.67-0.544,2.101
					c-0.362,0.428-0.936,0.643-1.72,0.643c-0.592,0-1.027-0.15-1.305-0.451c-0.279-0.301-0.418-0.757-0.418-1.367v-4.86
					L41.723,25.145L41.723,25.145z M40.438,25.145h-1.907V24.66c0-0.629,0.103-1.086,0.308-1.371
					c0.205-0.284,0.521-0.427,0.951-0.427c0.31,0,0.684,0.071,1.12,0.212l0.294-0.909c-0.533-0.16-0.999-0.239-1.395-0.239
					c-1.609,0-2.413,0.92-2.413,2.761v0.417l-1.341,0.41v0.513h1.341v6.61h1.135v-6.61h1.907V25.145L40.438,25.145z M30.779,28.803
					c0.036-0.525,0.055-0.912,0.055-1.163V22h-1.121v10.636h1.121v-2.803l0.854-0.738l2.646,3.541h1.374l-3.247-4.3l3.035-3.192
					h-1.347l-2.42,2.563c-0.401,0.451-0.7,0.816-0.896,1.095h-0.054V28.803z M27.382,32.637v-4.888c0-0.957-0.229-1.652-0.684-2.089
					c-0.456-0.435-1.135-0.652-2.037-0.652c-0.515,0-0.982,0.102-1.401,0.305s-0.744,0.489-0.978,0.857h-0.055l-0.186-1.025h-0.923
					v7.492h1.135v-3.931c0-0.975,0.184-1.675,0.547-2.099c0.365-0.424,0.938-0.636,1.724-0.636c0.592,0,1.027,0.15,1.306,0.451
					c0.278,0.301,0.417,0.757,0.417,1.367v4.847L27.382,32.637L27.382,32.637z M14.336,31.516c-0.249-0.214-0.373-0.524-0.373-0.937
					c0-0.522,0.199-0.91,0.599-1.159c0.398-0.248,1.05-0.388,1.952-0.42l1.135-0.048v0.677c0,0.697-0.202,1.239-0.604,1.627
					c-0.402,0.389-0.958,0.581-1.665,0.581C14.93,31.837,14.584,31.73,14.336,31.516 M18.782,32.637v-5.113
					c0-0.875-0.216-1.511-0.646-1.907c-0.432-0.396-1.093-0.595-1.985-0.595c-0.441,0-0.883,0.057-1.323,0.171
					c-0.439,0.114-0.844,0.271-1.213,0.472l0.349,0.868c0.789-0.383,1.495-0.574,2.118-0.574c0.557,0,0.962,0.141,1.215,0.42
					c0.253,0.28,0.379,0.716,0.379,1.303v0.465l-1.271,0.041c-2.42,0.073-3.63,0.866-3.63,2.378c0,0.707,0.211,1.252,0.632,1.635
					c0.422,0.383,1.004,0.574,1.747,0.574c0.557,0,1.02-0.084,1.392-0.25c0.371-0.166,0.743-0.484,1.117-0.953h0.055l0.227,1.066
					h0.839v-0.002H18.782z M9.745,25.404c-0.392,0.264-0.727,0.64-1.005,1.128H8.685l-0.13-1.388H7.617v7.492h1.135v-4.02
					c0-0.734,0.216-1.347,0.646-1.839c0.431-0.492,0.949-0.738,1.556-0.738c0.236,0,0.511,0.034,0.82,0.103l0.157-1.053
					c-0.265-0.055-0.563-0.082-0.896-0.082C10.567,25.008,10.138,25.141,9.745,25.404 M1.726,28.364h4.143v-1.032H1.726v-3.656
					h4.408v-1.034h-5.57v9.995h1.162V28.364z"/>
			</g>
		</g>
	</g>
</g>
<g>
	<g>
		<g>
			<g>
				<path fill="#6A7482" d="M158.181,1.166c-0.537-0.444-1.293-0.667-2.264-0.667c-0.593,0-1.156,0.093-1.689,0.277
					c-0.536,0.185-1.01,0.439-1.42,0.763l0.574,0.765c0.495-0.319,0.938-0.538,1.325-0.656c0.388-0.119,0.8-0.178,1.237-0.178
					c0.574,0,1.027,0.139,1.363,0.417c0.336,0.278,0.502,0.661,0.502,1.149c0,0.61-0.229,1.088-0.685,1.432
					c-0.456,0.344-1.073,0.516-1.853,0.516h-0.998v0.977h0.982c1.904,0,2.857,0.607,2.857,1.819c0,1.353-0.864,2.03-2.592,2.03
					c-0.438,0-0.9-0.056-1.393-0.167c-0.488-0.112-0.949-0.275-1.384-0.489v1.08c0.414,0.2,0.843,0.341,1.281,0.42
					c0.438,0.08,0.924,0.12,1.452,0.12c1.218,0,2.156-0.256,2.814-0.769c0.661-0.513,0.992-1.245,0.992-2.198
					c0-0.665-0.191-1.203-0.581-1.613c-0.388-0.41-0.979-0.666-1.785-0.766V5.373c0.657-0.136,1.164-0.407,1.521-0.813
					c0.356-0.406,0.536-0.927,0.536-1.565C158.987,2.22,158.718,1.609,158.181,1.166 M146.464,2.458
					c0.342-0.659,0.889-0.988,1.633-0.988c0.76,0,1.308,0.334,1.646,1.002c0.34,0.667,0.51,1.719,0.51,3.154
					c0,1.436-0.17,2.49-0.51,3.162c-0.339,0.672-0.887,1.008-1.646,1.008c-0.744,0-1.291-0.331-1.633-0.994
					c-0.342-0.663-0.513-1.722-0.513-3.176S146.122,3.117,146.464,2.458 M150.569,1.805c-0.562-0.879-1.387-1.319-2.475-1.319
					c-1.109,0-1.938,0.421-2.479,1.264c-0.542,0.844-0.812,2.136-0.812,3.876c0,1.687,0.279,2.966,0.842,3.839
					c0.561,0.873,1.379,1.309,2.451,1.309c1.123,0,1.955-0.426,2.5-1.278c0.547-0.853,0.816-2.142,0.816-3.87
					C151.413,3.958,151.132,2.685,150.569,1.805 M140.988,0.643h-0.957l-2.646,2.044l0.603,0.779
					c0.966-0.784,1.509-1.228,1.627-1.333c0.119-0.105,0.226-0.205,0.321-0.301c-0.036,0.529-0.057,1.09-0.057,1.682v7.123h1.107
					L140.988,0.643L140.988,0.643z M132.983,0.643h-0.957l-2.646,2.044l0.604,0.779c0.966-0.784,1.509-1.228,1.627-1.333
					c0.119-0.105,0.226-0.205,0.318-0.301c-0.033,0.529-0.054,1.09-0.054,1.682v7.123h1.107L132.983,0.643L132.983,0.643z
					 M122.333,4.689l0.253-3.001h3.999V0.643h-4.97l-0.376,4.676l0.588,0.376c0.725-0.132,1.303-0.198,1.736-0.198
					c1.709,0,2.562,0.697,2.562,2.091c0,0.716-0.222,1.263-0.667,1.641c-0.442,0.378-1.065,0.567-1.869,0.567
					c-0.461,0-0.928-0.058-1.4-0.174c-0.476-0.116-0.87-0.277-1.189-0.482v1.094c0.592,0.36,1.451,0.54,2.577,0.54
					c1.157,0,2.064-0.294,2.725-0.882c0.658-0.588,0.987-1.399,0.987-2.434c0-0.906-0.302-1.621-0.905-2.143
					c-0.604-0.521-1.433-0.782-2.483-0.782C123.379,4.533,122.857,4.584,122.333,4.689 M115.096,9.455
					c-0.336-0.237-0.595-0.559-0.775-0.964c-0.182-0.406-0.273-0.843-0.273-1.313c0-0.319,0.103-0.626,0.306-0.923
					c0.202-0.296,0.475-0.528,0.815-0.697c0.34-0.169,0.718-0.253,1.128-0.253c0.66,0,1.157,0.189,1.49,0.567
					c0.333,0.379,0.499,0.898,0.499,1.559c0,0.77-0.179,1.359-0.537,1.767c-0.355,0.408-0.859,0.612-1.507,0.612
					C115.814,9.81,115.432,9.691,115.096,9.455 M113.795,9.607c0.606,0.777,1.427,1.166,2.461,1.166c0.966,0,1.733-0.298,2.3-0.892
					c0.567-0.595,0.853-1.412,0.853-2.451c0-0.93-0.259-1.666-0.776-2.208s-1.225-0.813-2.122-0.813
					c-1.085,0-1.878,0.392-2.379,1.175h-0.082c0.056-1.431,0.364-2.48,0.931-3.148c0.563-0.667,1.383-1.001,2.453-1.001
					c0.451,0,0.854,0.057,1.203,0.171V0.628c-0.297-0.086-0.701-0.13-1.217-0.13c-1.495,0-2.624,0.487-3.387,1.46
					c-0.764,0.973-1.146,2.442-1.146,4.406C112.886,7.75,113.189,8.831,113.795,9.607 M106.439,2.458
					c0.342-0.659,0.887-0.988,1.634-0.988c0.756,0,1.305,0.334,1.644,1.002c0.342,0.667,0.511,1.719,0.511,3.154
					c0,1.436-0.169,2.49-0.511,3.162c-0.339,0.672-0.888,1.008-1.644,1.008c-0.747,0-1.292-0.331-1.634-0.994
					c-0.343-0.663-0.514-1.722-0.514-3.176C105.927,4.172,106.096,3.117,106.439,2.458 M110.544,1.805
					c-0.562-0.879-1.386-1.319-2.471-1.319c-1.112,0-1.939,0.421-2.481,1.264c-0.543,0.844-0.812,2.136-0.812,3.876
					c0,1.687,0.279,2.966,0.841,3.839c0.561,0.873,1.378,1.309,2.454,1.309c1.121,0,1.954-0.426,2.499-1.278
					c0.544-0.853,0.814-2.142,0.814-3.87C111.388,3.958,111.107,2.685,110.544,1.805 M101.117,1.818
					c0.335,0.232,0.596,0.551,0.783,0.957c0.187,0.405,0.278,0.847,0.278,1.326c0,0.319-0.1,0.624-0.3,0.916
					c-0.2,0.292-0.475,0.522-0.823,0.69c-0.35,0.169-0.729,0.253-1.146,0.253c-0.67,0-1.169-0.188-1.497-0.564
					S97.92,4.504,97.92,3.848c0-0.747,0.178-1.331,0.533-1.75s0.859-0.629,1.511-0.629C100.399,1.47,100.782,1.585,101.117,1.818
					 M102.919,2.546c-0.272-0.668-0.665-1.176-1.173-1.525c-0.508-0.348-1.101-0.523-1.78-0.523c-0.946,0-1.713,0.301-2.294,0.903
					c-0.581,0.601-0.871,1.422-0.871,2.461c0,0.948,0.261,1.686,0.779,2.215c0.52,0.528,1.221,0.793,2.105,0.793
					c0.52,0,0.985-0.1,1.4-0.298c0.414-0.198,0.747-0.486,0.998-0.865h0.082c-0.05,1.4-0.354,2.437-0.913,3.114
					c-0.558,0.677-1.384,1.015-2.478,1.015c-0.466,0-0.879-0.059-1.244-0.177v0.977c0.31,0.091,0.729,0.137,1.258,0.137
					c3.026,0,4.539-1.955,4.539-5.865C103.329,4.001,103.192,3.213,102.919,2.546 M95.324,9.583h-5.142V9.53l2.188-2.14
					c0.975-0.948,1.641-1.732,1.996-2.351c0.354-0.62,0.533-1.247,0.533-1.88c0-0.812-0.268-1.457-0.801-1.938
					c-0.532-0.481-1.27-0.722-2.207-0.722c-1.086,0-2.089,0.383-3.009,1.149l0.603,0.772c0.456-0.36,0.869-0.608,1.241-0.745
					c0.37-0.136,0.764-0.205,1.179-0.205c0.574,0,1.021,0.156,1.347,0.468c0.323,0.313,0.485,0.735,0.485,1.268
					c0,0.379-0.064,0.732-0.191,1.06c-0.128,0.328-0.317,0.665-0.575,1.012c-0.255,0.346-0.781,0.925-1.585,1.736L88.754,9.66v0.977
					h6.569L95.324,9.583L95.324,9.583z M87.23,9.598h-4.409V5.92h4.143V4.895h-4.143v-3.22h4.409V0.643h-5.571v9.994h5.571V9.598z
					 M77.154,8.609c-0.697,0.682-1.739,1.022-3.124,1.022h-1.415V1.647h1.688c1.29,0,2.264,0.33,2.916,0.991
					C77.873,3.299,78.2,4.281,78.2,5.584C78.2,6.92,77.851,7.929,77.154,8.609 M78.138,1.935c-0.859-0.861-2.067-1.292-3.622-1.292
					h-3.062v9.994h2.769c1.683,0,2.972-0.436,3.865-1.309c0.896-0.873,1.344-2.134,1.344-3.784C79.43,3.999,79,2.795,78.138,1.935
					 M63.985,4.583c0.15,0.143,0.345,0.215,0.577,0.215c0.26,0,0.465-0.079,0.614-0.239c0.15-0.159,0.227-0.387,0.227-0.684
					c0-0.615-0.28-0.922-0.841-0.922c-0.537,0-0.808,0.307-0.808,0.922C63.756,4.205,63.832,4.439,63.985,4.583 M63.985,10.62
					c0.15,0.144,0.345,0.215,0.577,0.215c0.26,0,0.465-0.079,0.614-0.239c0.15-0.159,0.227-0.387,0.227-0.683
					c0-0.306-0.074-0.537-0.223-0.694c-0.147-0.158-0.354-0.236-0.618-0.236c-0.261,0-0.459,0.078-0.6,0.236
					c-0.139,0.157-0.208,0.388-0.208,0.694C63.756,10.241,63.832,10.476,63.985,10.62 M60.259,10.62
					c0.153,0.144,0.347,0.215,0.578,0.215c0.259,0,0.465-0.079,0.615-0.239c0.15-0.159,0.226-0.387,0.226-0.683
					c0-0.306-0.073-0.537-0.223-0.694c-0.146-0.158-0.354-0.236-0.618-0.236c-0.26,0-0.459,0.078-0.598,0.236
					C60.1,9.376,60.03,9.607,60.03,9.913C60.03,10.241,60.106,10.476,60.259,10.62 M56.605,3.405
					c-0.394,0.264-0.729,0.64-1.005,1.128h-0.056l-0.13-1.388h-0.937v7.492h1.135V6.618c0-0.734,0.215-1.347,0.646-1.839
					c0.433-0.492,0.949-0.739,1.557-0.739c0.235,0,0.511,0.035,0.819,0.103l0.157-1.053c-0.265-0.054-0.562-0.082-0.896-0.082
					C57.428,3.008,56.997,3.14,56.605,3.405 M51.902,0.643h-1.087v5.735c-0.01,0.287,0.002,0.765,0.033,1.432
					c0.031,0.668,0.054,1.063,0.062,1.187h-0.055l-5.448-8.354h-1.312v9.994h1.073V4.956c0-0.82-0.037-1.722-0.108-2.707h0.055
					l5.462,8.388h1.326L51.902,0.643L51.902,0.643z M36.631,9.092c-0.351-0.487-0.525-1.21-0.525-2.167
					c0-0.943,0.177-1.673,0.528-2.191c0.354-0.517,0.862-0.776,1.528-0.776c0.775,0,1.339,0.227,1.692,0.681
					c0.353,0.453,0.528,1.211,0.528,2.273v0.239c0,0.939-0.175,1.619-0.521,2.04c-0.351,0.422-0.911,0.633-1.687,0.633
					C37.496,9.824,36.982,9.58,36.631,9.092 M40.595,10.637h0.925V0h-1.136v3.049l0.027,0.527l0.048,0.54H40.37
					c-0.542-0.739-1.322-1.108-2.338-1.108c-0.975,0-1.736,0.342-2.283,1.026c-0.547,0.683-0.821,1.643-0.821,2.878
					c0,1.235,0.273,2.187,0.817,2.857c0.545,0.67,1.307,1.005,2.287,1.005c1.044,0,1.827-0.381,2.352-1.142h0.062L40.595,10.637z
					 M32.775,0.643h-1.162v9.994h1.162V0.643z M29.665,6.365h-3.354v1.039h3.354V6.365z M23.277,10.62
					c0.15,0.144,0.345,0.215,0.577,0.215c0.26,0,0.465-0.079,0.614-0.239c0.15-0.159,0.227-0.387,0.227-0.683
					c0-0.306-0.074-0.537-0.222-0.694c-0.148-0.158-0.354-0.236-0.619-0.236c-0.261,0-0.459,0.078-0.6,0.236
					c-0.139,0.157-0.208,0.388-0.208,0.694C23.048,10.241,23.124,10.476,23.277,10.62 M19.807,9.475
					c-0.216-0.241-0.321-0.588-0.321-1.039V4.027h2.174V3.145h-2.174V1.409H18.83l-0.479,1.599L17.278,3.48v0.547h1.073v4.457
					c0,1.527,0.725,2.29,2.174,2.29c0.19,0,0.407-0.02,0.646-0.058c0.239-0.039,0.421-0.088,0.544-0.147V9.701
					c-0.108,0.032-0.258,0.062-0.443,0.092c-0.188,0.03-0.381,0.044-0.581,0.044C20.316,9.836,20.022,9.717,19.807,9.475
					 M15.805,6.31c-0.395-0.428-1.114-0.829-2.163-1.203c-0.624-0.223-1.09-0.427-1.393-0.612c-0.303-0.185-0.518-0.387-0.646-0.608
					c-0.127-0.221-0.191-0.505-0.191-0.851c0-0.47,0.173-0.837,0.521-1.101c0.347-0.264,0.826-0.396,1.441-0.396
					c0.779,0,1.581,0.173,2.406,0.519l0.362-1.012c-0.834-0.364-1.747-0.547-2.741-0.547c-0.952,0-1.718,0.228-2.297,0.684
					c-0.579,0.456-0.868,1.069-0.868,1.839c0,0.734,0.199,1.328,0.598,1.784c0.399,0.456,1.063,0.85,1.993,1.183
					c0.665,0.237,1.161,0.449,1.487,0.635c0.326,0.187,0.558,0.391,0.695,0.612c0.141,0.221,0.208,0.505,0.208,0.851
					c0,0.524-0.193,0.933-0.587,1.227c-0.392,0.294-0.976,0.441-1.75,0.441c-0.474,0-0.953-0.05-1.436-0.15s-0.93-0.237-1.34-0.41
					v1.121c0.638,0.305,1.55,0.458,2.733,0.458c1.095,0,1.959-0.246,2.599-0.738c0.638-0.493,0.957-1.178,0.957-2.058
					C16.396,7.293,16.199,6.738,15.805,6.31 M6.949,0.643v6.508c0,0.838-0.229,1.482-0.685,1.931C5.81,9.531,5.16,9.755,4.317,9.755
					c-0.885,0-1.556-0.223-2.01-0.67C1.852,8.639,1.622,7.998,1.622,7.164V0.643H0.46v6.439c0,1.149,0.329,2.051,0.987,2.707
					c0.659,0.657,1.59,0.985,2.793,0.985s2.148-0.326,2.837-0.978C7.765,9.145,8.109,8.249,8.109,7.11V0.643H6.949z"/>
			</g>
		</g>
	</g>
</g>
</svg>
