<?xml version="1.0" encoding="utf-8"?>
<!-- Generator: Adobe Illustrator 15.1.0, SVG Export Plug-In . SVG Version: 6.00 Build 0)  -->
<!DOCTYPE svg PUBLIC "-//W3C//DTD SVG 1.1//EN" "http://www.w3.org/Graphics/SVG/1.1/DTD/svg11.dtd">
<svg version="1.1" id="Ebene_1" xmlns="http://www.w3.org/2000/svg" xmlns:xlink="http://www.w3.org/1999/xlink" x="0px" y="0px"
	 width="400px" height="70px" viewBox="0 0 400 70" enable-background="new 0 0 400 70" xml:space="preserve">
<g>
	<g>
		<g>
			<defs>
				<rect id="SVGID_1_" x="66.22" y="48.425" width="267.021" height="16.075"/>
			</defs>
			<clipPath id="SVGID_2_">
				<use xlink:href="#SVGID_1_"  overflow="visible"/>
			</clipPath>
			<path clip-path="url(#SVGID_2_)" fill="#697482" d="M322.332,58.977c-0.214-0.242-0.321-0.59-0.321-1.041v-4.408h2.174v-0.883
				h-2.174v-1.735h-0.657l-0.478,1.6l-1.073,0.472v0.547h1.073v4.457c0,1.526,0.725,2.291,2.174,2.291
				c0.191,0,0.407-0.021,0.646-0.06c0.237-0.039,0.42-0.087,0.543-0.146V59.2c-0.109,0.032-0.257,0.062-0.444,0.092
				c-0.187,0.03-0.381,0.045-0.581,0.045C322.84,59.337,322.546,59.216,322.332,58.977 M317.205,52.904
				c-0.393,0.265-0.729,0.641-1.005,1.128h-0.054l-0.132-1.388h-0.937v7.491h1.135v-4.02c0-0.734,0.215-1.347,0.646-1.839
				c0.431-0.492,0.947-0.738,1.555-0.738c0.237,0,0.51,0.034,0.82,0.104l0.156-1.054c-0.265-0.055-0.562-0.082-0.896-0.082
				C318.028,52.508,317.597,52.641,317.205,52.904 M311.449,54.029c0.317,0.38,0.479,0.928,0.479,1.644h-3.917
				c0.064-0.692,0.274-1.233,0.632-1.627c0.358-0.392,0.839-0.588,1.439-0.588C310.674,53.458,311.13,53.648,311.449,54.029
				 M311.685,60.161c0.358-0.076,0.737-0.2,1.14-0.373v-1.013c-0.788,0.339-1.586,0.507-2.394,0.507
				c-0.766,0-1.358-0.229-1.779-0.685c-0.424-0.455-0.646-1.123-0.667-2.002h5.16v-0.719c0-1.012-0.272-1.826-0.819-2.443
				s-1.29-0.927-2.229-0.927c-1.003,0-1.802,0.354-2.396,1.066c-0.595,0.711-0.894,1.67-0.894,2.878c0,1.199,0.32,2.135,0.96,2.811
				c0.642,0.674,1.516,1.012,2.622,1.012C310.896,60.273,311.327,60.236,311.685,60.161 M300.758,53.766
				c0.287-0.287,0.697-0.431,1.23-0.431c1.121,0,1.682,0.563,1.682,1.688c0,1.074-0.554,1.612-1.661,1.612
				c-0.528,0-0.939-0.135-1.237-0.403c-0.297-0.27-0.443-0.664-0.443-1.188C300.327,54.479,300.471,54.053,300.758,53.766
				 M300.143,60.335c0.287-0.246,0.688-0.369,1.203-0.369h1.36c0.693,0,1.164,0.078,1.415,0.236
				c0.251,0.157,0.376,0.438,0.376,0.844c0,0.487-0.229,0.874-0.688,1.159c-0.458,0.284-1.163,0.427-2.114,0.427
				c-0.64,0-1.128-0.104-1.471-0.313c-0.342-0.209-0.513-0.519-0.513-0.924C299.712,60.936,299.855,60.581,300.143,60.335
				 M303.096,52.645c-0.313-0.092-0.668-0.137-1.06-0.137c-0.902,0-1.599,0.223-2.092,0.666c-0.492,0.445-0.738,1.077-0.738,1.896
				c0,0.492,0.122,0.931,0.366,1.312c0.244,0.385,0.559,0.654,0.945,0.812c-0.313,0.191-0.545,0.391-0.689,0.596
				c-0.146,0.205-0.219,0.443-0.219,0.718c0,0.241,0.063,0.453,0.193,0.636c0.13,0.184,0.291,0.316,0.482,0.403
				c-0.529,0.118-0.939,0.345-1.23,0.679c-0.292,0.33-0.438,0.726-0.438,1.182c0,0.665,0.266,1.18,0.797,1.545
				c0.53,0.365,1.286,0.547,2.266,0.547c1.276,0,2.246-0.218,2.912-0.652c0.665-0.436,0.998-1.066,0.998-1.896
				c0-0.652-0.218-1.148-0.652-1.49c-0.436-0.342-1.059-0.513-1.869-0.513h-1.326c-0.41,0-0.699-0.05-0.868-0.147
				s-0.253-0.249-0.253-0.453c0-0.389,0.242-0.709,0.725-0.965c0.196,0.036,0.405,0.055,0.629,0.055
				c0.875,0,1.563-0.219,2.064-0.655s0.752-1.023,0.752-1.757c0-0.323-0.05-0.614-0.15-0.871c-0.101-0.258-0.215-0.467-0.342-0.627
				l1.39-0.163v-0.718h-2.593V52.645z M293.088,53.766c0.287-0.287,0.697-0.431,1.23-0.431c1.121,0,1.682,0.563,1.682,1.688
				c0,1.074-0.554,1.612-1.661,1.612c-0.529,0-0.939-0.135-1.237-0.403c-0.297-0.27-0.443-0.664-0.443-1.188
				C292.657,54.479,292.801,54.053,293.088,53.766 M292.473,60.335c0.287-0.246,0.688-0.369,1.203-0.369h1.36
				c0.692,0,1.164,0.078,1.415,0.236c0.251,0.157,0.376,0.438,0.376,0.844c0,0.487-0.229,0.874-0.688,1.159
				c-0.458,0.284-1.163,0.427-2.114,0.427c-0.64,0-1.128-0.104-1.471-0.313c-0.342-0.209-0.513-0.519-0.513-0.924
				C292.042,60.936,292.186,60.581,292.473,60.335 M295.426,52.645c-0.313-0.092-0.668-0.137-1.06-0.137
				c-0.902,0-1.601,0.223-2.092,0.666c-0.492,0.445-0.738,1.077-0.738,1.896c0,0.492,0.122,0.931,0.366,1.312
				c0.244,0.385,0.559,0.654,0.945,0.812c-0.313,0.191-0.545,0.391-0.689,0.596c-0.146,0.205-0.219,0.443-0.219,0.718
				c0,0.241,0.063,0.453,0.193,0.636c0.13,0.184,0.291,0.316,0.482,0.403c-0.528,0.118-0.939,0.345-1.23,0.679
				c-0.292,0.33-0.438,0.726-0.438,1.182c0,0.665,0.266,1.18,0.797,1.545s1.287,0.547,2.267,0.547c1.276,0,2.246-0.218,2.912-0.652
				c0.665-0.436,0.998-1.066,0.998-1.896c0-0.652-0.218-1.148-0.653-1.49c-0.435-0.342-1.058-0.513-1.869-0.513h-1.325
				c-0.41,0-0.699-0.05-0.868-0.147s-0.253-0.249-0.253-0.453c0-0.389,0.242-0.709,0.725-0.965c0.196,0.036,0.405,0.055,0.629,0.055
				c0.875,0,1.563-0.219,2.064-0.655s0.752-1.023,0.752-1.757c0-0.323-0.05-0.614-0.15-0.871c-0.101-0.258-0.215-0.467-0.342-0.627
				l1.388-0.163v-0.718h-2.592V52.645z M288.439,51.186c0.128,0.125,0.286,0.188,0.479,0.188c0.182,0,0.339-0.062,0.472-0.188
				c0.133-0.125,0.198-0.315,0.198-0.57c0-0.256-0.065-0.444-0.198-0.567s-0.29-0.185-0.472-0.185c-0.191,0-0.351,0.061-0.479,0.181
				c-0.127,0.121-0.191,0.312-0.191,0.571C288.248,50.869,288.312,51.061,288.439,51.186 M289.479,52.645h-1.135v7.491h1.135V52.645
				z M286.949,50.143h-1.23l-1.572,6.159c-0.24,0.931-0.404,1.72-0.491,2.365c-0.15-0.89-0.335-1.687-0.555-2.394l-1.88-6.131
				h-1.229l-1.791,6.076c-0.241,0.799-0.424,1.613-0.547,2.447c-0.102-0.702-0.261-1.486-0.479-2.352l-1.579-6.174h-1.229
				l2.659,9.994h1.147l1.955-6.65c0.219-0.715,0.378-1.375,0.479-1.977c0.005,0.092,0.065,0.362,0.185,0.812
				c0.119,0.451,0.226,0.826,0.321,1.121l2.017,6.692h1.148L286.949,50.143z M264.961,59.016c-0.248-0.215-0.372-0.525-0.372-0.937
				c0-0.524,0.199-0.91,0.599-1.159c0.398-0.248,1.05-0.388,1.951-0.42l1.136-0.048v0.677c0,0.697-0.201,1.239-0.605,1.627
				c-0.403,0.389-0.958,0.581-1.664,0.581C265.557,59.337,265.21,59.23,264.961,59.016 M269.408,60.137v-5.113
				c0-0.875-0.215-1.51-0.646-1.906c-0.43-0.396-1.092-0.596-1.984-0.596c-0.442,0-0.885,0.058-1.322,0.172
				c-0.44,0.113-0.845,0.271-1.214,0.472l0.349,0.868c0.788-0.383,1.495-0.574,2.119-0.574c0.556,0,0.96,0.141,1.213,0.42
				c0.253,0.281,0.38,0.715,0.38,1.303v0.465l-1.271,0.041c-2.42,0.072-3.63,0.865-3.63,2.379c0,0.707,0.211,1.252,0.633,1.635
				c0.421,0.383,1.003,0.574,1.746,0.574c0.556,0,1.02-0.084,1.391-0.25c0.372-0.166,0.744-0.483,1.118-0.953h0.055l0.227,1.066
				h0.838V60.137z M261.629,60.137v-4.888c0-0.957-0.228-1.653-0.684-2.088c-0.455-0.437-1.136-0.653-2.037-0.653
				c-0.517,0-0.982,0.102-1.401,0.305s-0.745,0.488-0.978,0.857h-0.056l-0.185-1.025h-0.923v7.492h1.135v-3.931
				c0-0.976,0.182-1.675,0.547-2.099c0.364-0.424,0.939-0.637,1.724-0.637c0.593,0,1.026,0.15,1.306,0.451s0.417,0.756,0.417,1.367
				v4.847L261.629,60.137L261.629,60.137z M251.922,51.186c0.127,0.125,0.287,0.188,0.479,0.188c0.183,0,0.34-0.062,0.472-0.188
				c0.132-0.125,0.198-0.315,0.198-0.57c0-0.256-0.066-0.444-0.198-0.567s-0.289-0.185-0.472-0.185
				c-0.191,0-0.353,0.061-0.479,0.181c-0.128,0.121-0.19,0.312-0.19,0.571C251.73,50.869,251.794,51.061,251.922,51.186
				 M252.961,52.645h-1.135v7.491h1.135V52.645z M248.237,52.904c-0.394,0.265-0.729,0.641-1.005,1.128h-0.056l-0.13-1.388h-0.937
				v7.491h1.135v-4.02c0-0.734,0.215-1.347,0.646-1.839c0.433-0.492,0.949-0.738,1.557-0.738c0.235,0,0.511,0.034,0.819,0.104
				l0.157-1.054c-0.265-0.055-0.562-0.082-0.896-0.082C249.06,52.508,248.629,52.641,248.237,52.904 M239.327,59.016
				c-0.249-0.215-0.373-0.525-0.373-0.937c0-0.524,0.199-0.91,0.598-1.159c0.399-0.248,1.05-0.388,1.952-0.42l1.135-0.048v0.677
				c0,0.697-0.2,1.239-0.604,1.627c-0.404,0.389-0.959,0.581-1.665,0.581C239.922,59.337,239.575,59.23,239.327,59.016
				 M243.773,60.137v-5.113c0-0.875-0.217-1.51-0.646-1.906s-1.092-0.596-1.985-0.596c-0.44,0-0.883,0.058-1.321,0.172
				c-0.44,0.113-0.846,0.271-1.214,0.472l0.349,0.868c0.788-0.383,1.495-0.574,2.119-0.574c0.556,0,0.961,0.141,1.214,0.42
				c0.253,0.281,0.379,0.715,0.379,1.303v0.465l-1.271,0.041c-2.42,0.072-3.631,0.865-3.631,2.379c0,0.707,0.211,1.252,0.633,1.635
				s1.005,0.574,1.747,0.574c0.557,0,1.02-0.084,1.392-0.25c0.371-0.166,0.744-0.483,1.117-0.953h0.055l0.227,1.066h0.838V60.137z
				 M235.994,60.137v-4.888c0-0.948-0.229-1.64-0.688-2.075c-0.458-0.435-1.145-0.652-2.061-0.652c-0.529,0-0.999,0.104-1.412,0.312
				c-0.412,0.208-0.729,0.492-0.953,0.853h-0.067c0.035-0.256,0.055-0.576,0.055-0.965V49.5h-1.135v10.637h1.135v-3.916
				c0-0.977,0.181-1.678,0.544-2.105c0.362-0.428,0.937-0.643,1.726-0.643c0.593,0,1.027,0.149,1.307,0.45
				c0.276,0.302,0.417,0.757,0.417,1.367v4.847H235.994z M226.328,58.977c-0.214-0.242-0.321-0.59-0.321-1.041v-4.408h2.174v-0.883
				h-2.174v-1.735h-0.656l-0.479,1.6l-1.073,0.472v0.547h1.073v4.457c0,1.526,0.725,2.291,2.174,2.291
				c0.191,0,0.407-0.021,0.646-0.06c0.237-0.039,0.42-0.087,0.543-0.146V59.2c-0.109,0.032-0.259,0.062-0.444,0.092
				c-0.188,0.03-0.381,0.045-0.581,0.045C226.836,59.337,226.542,59.216,226.328,58.977 M218.005,59.016
				c-0.248-0.215-0.372-0.525-0.372-0.937c0-0.524,0.199-0.91,0.599-1.159c0.398-0.248,1.05-0.388,1.951-0.42l1.136-0.048v0.677
				c0,0.697-0.201,1.239-0.605,1.627c-0.402,0.389-0.958,0.581-1.664,0.581C218.601,59.337,218.254,59.23,218.005,59.016
				 M222.452,60.137v-5.113c0-0.875-0.215-1.51-0.646-1.906c-0.431-0.396-1.093-0.596-1.984-0.596c-0.442,0-0.883,0.058-1.322,0.172
				c-0.44,0.113-0.845,0.271-1.214,0.472l0.349,0.868c0.788-0.383,1.495-0.574,2.119-0.574c0.556,0,0.96,0.141,1.213,0.42
				c0.253,0.281,0.38,0.715,0.38,1.303v0.465l-1.271,0.041c-2.42,0.072-3.63,0.865-3.63,2.379c0,0.707,0.211,1.252,0.633,1.635
				c0.421,0.383,1.003,0.574,1.746,0.574c0.556,0,1.02-0.084,1.391-0.25c0.372-0.166,0.744-0.483,1.118-0.953h0.055l0.227,1.066
				h0.838V60.137z M211.631,54.482l4.021-4.34h-1.374l-4.532,4.955v-4.955h-1.162v9.993h1.162v-3.915l1.046-0.931l3.644,4.847h1.367
				L211.631,54.482z M200.693,54.374c0.21,0.201,0.506,0.301,0.889,0.301c0.369,0,0.66-0.102,0.872-0.304
				c0.212-0.203,0.317-0.489,0.317-0.857c0-0.375-0.104-0.66-0.312-0.861c-0.207-0.2-0.5-0.301-0.878-0.301
				c-0.392,0-0.69,0.099-0.896,0.293c-0.206,0.195-0.308,0.485-0.308,0.869C200.379,53.886,200.484,54.173,200.693,54.374
				 M200.693,60.018c0.21,0.203,0.506,0.305,0.889,0.305c0.374,0,0.665-0.104,0.875-0.312s0.314-0.49,0.314-0.851
				c0-0.374-0.104-0.661-0.312-0.861c-0.207-0.2-0.5-0.301-0.878-0.301c-0.392,0-0.69,0.099-0.896,0.294s-0.308,0.484-0.308,0.868
				C200.379,59.527,200.484,59.814,200.693,60.018 M195.423,53.615c0.756,0,1.135,0.461,1.135,1.381
				c0,0.415-0.092,0.743-0.272,0.984c-0.184,0.24-0.469,0.361-0.861,0.361c-0.388,0-0.676-0.121-0.865-0.361
				c-0.188-0.241-0.282-0.569-0.282-0.984C194.274,54.076,194.657,53.615,195.423,53.615 M193.902,60.502
				c0.257-0.18,0.575-0.27,0.96-0.27h1.08c0.522,0,0.911,0.055,1.161,0.164c0.252,0.108,0.377,0.308,0.377,0.595
				c0,0.354-0.213,0.636-0.637,0.841s-1.01,0.309-1.757,0.309c-0.497,0-0.883-0.082-1.159-0.246
				c-0.274-0.164-0.413-0.391-0.413-0.678C193.516,60.92,193.644,60.682,193.902,60.502 M196.749,52.494
				c-0.082-0.018-0.271-0.047-0.564-0.085c-0.294-0.039-0.548-0.06-0.762-0.06c-1.007,0-1.782,0.229-2.324,0.685
				c-0.543,0.456-0.812,1.101-0.812,1.935c0,0.521,0.117,0.971,0.352,1.354c0.235,0.383,0.555,0.661,0.954,0.834
				c-0.318,0.187-0.562,0.377-0.73,0.571c-0.168,0.192-0.254,0.436-0.254,0.728c0,0.231,0.079,0.452,0.239,0.66
				c0.159,0.207,0.348,0.354,0.562,0.446c-0.558,0.133-0.979,0.354-1.266,0.664c-0.288,0.31-0.431,0.693-0.431,1.154
				c0,0.67,0.281,1.189,0.844,1.562c0.563,0.371,1.378,0.557,2.444,0.557c1.395,0,2.464-0.246,3.209-0.738
				c0.746-0.492,1.118-1.185,1.118-2.076c0-0.699-0.222-1.228-0.66-1.588c-0.439-0.358-1.078-0.539-1.917-0.539h-1.299
				c-0.767,0-1.148-0.15-1.148-0.451c0-0.2,0.107-0.383,0.321-0.547l0.308,0.033l0.376,0.021c1.018,0,1.812-0.229,2.383-0.688
				c0.571-0.458,0.857-1.097,0.857-1.917c0-0.424-0.11-0.807-0.328-1.148l1.196-0.307v-1.061H196.749L196.749,52.494z
				 M190.617,55.152c0-0.906-0.23-1.601-0.69-2.08c-0.461-0.481-1.135-0.723-2.022-0.723c-0.521,0-0.983,0.096-1.393,0.283
				c-0.408,0.189-0.728,0.469-0.96,0.838h-0.116l-0.279-0.978h-1.595v7.643h2.085V56.54c0-0.901,0.132-1.548,0.392-1.938
				s0.681-0.584,1.265-0.584c0.43,0,0.74,0.137,0.938,0.412c0.194,0.276,0.294,0.689,0.294,1.241v4.464h2.085v-4.982H190.617z
				 M181.375,60.137v-7.643h-2.085v3.596c0,0.902-0.13,1.549-0.39,1.938c-0.261,0.39-0.683,0.584-1.266,0.584
				c-0.429,0-0.741-0.139-0.937-0.412c-0.196-0.276-0.294-0.69-0.294-1.241v-4.464h-2.085v4.982c0,0.902,0.228,1.594,0.684,2.074
				c0.456,0.481,1.132,0.723,2.03,0.723c0.522,0,0.991-0.099,1.4-0.291c0.41-0.193,0.728-0.469,0.95-0.823h0.109l0.28,0.978H181.375
				z M170.954,52.744c-0.404,0.262-0.724,0.607-0.961,1.035h-0.104l-0.308-1.285h-1.579v7.643h2.085v-3.89
				c0-0.615,0.188-1.095,0.559-1.437c0.369-0.342,0.89-0.513,1.555-0.513c0.242,0,0.447,0.022,0.615,0.068l0.156-1.955
				c-0.187-0.041-0.422-0.062-0.704-0.062C171.796,52.352,171.357,52.482,170.954,52.744 M165.857,55.152
				c0-0.901-0.232-1.596-0.697-2.077c-0.465-0.483-1.146-0.726-2.044-0.726c-1.014,0-1.75,0.373-2.215,1.121h-0.109l0.048-0.615
				c0.032-0.623,0.048-1.021,0.048-1.188V49.5h-2.085v10.637h2.085v-3.596c0-0.889,0.13-1.531,0.391-1.928
				c0.26-0.397,0.682-0.596,1.265-0.596c0.82,0,1.229,0.553,1.229,1.654v4.464h2.086V55.152L165.857,55.152z M153.768,51.219
				c0.187,0.148,0.414,0.223,0.688,0.223c0.292,0,0.525-0.082,0.704-0.246c0.178-0.163,0.267-0.385,0.267-0.662
				c0-0.287-0.088-0.514-0.263-0.678c-0.176-0.164-0.412-0.246-0.708-0.246c-0.273,0-0.502,0.074-0.688,0.223
				c-0.185,0.148-0.275,0.382-0.275,0.701C153.491,50.842,153.583,51.07,153.768,51.219 M150.993,51.202
				c0.171,0.159,0.4,0.239,0.692,0.239c0.298,0,0.53-0.084,0.704-0.25s0.261-0.387,0.261-0.659c0-0.278-0.086-0.501-0.258-0.671
				c-0.171-0.168-0.405-0.252-0.707-0.252c-0.292,0-0.521,0.08-0.692,0.238c-0.171,0.159-0.257,0.389-0.257,0.685
				C150.736,50.818,150.822,51.043,150.993,51.202 M156.615,60.137v-7.643h-2.085v3.596c0,0.902-0.13,1.549-0.391,1.938
				c-0.26,0.39-0.682,0.584-1.265,0.584c-0.428,0-0.741-0.139-0.938-0.412c-0.195-0.276-0.293-0.69-0.293-1.241v-4.464h-2.086v4.982
				c0,0.902,0.229,1.594,0.685,2.074c0.456,0.481,1.133,0.723,2.03,0.723c0.522,0,0.99-0.099,1.4-0.291
				c0.41-0.193,0.729-0.469,0.95-0.823h0.109l0.279,0.978H156.615z M148.405,52.494H146.6v-0.479c0-0.273,0.066-0.498,0.198-0.675
				c0.132-0.175,0.347-0.263,0.644-0.263c0.354,0,0.741,0.066,1.162,0.197l0.532-1.53c-0.561-0.214-1.2-0.321-1.921-0.321
				c-0.943,0-1.629,0.2-2.058,0.602c-0.428,0.4-0.644,1.037-0.644,1.908v0.561l-1.147,0.561v1.006h1.147v6.076h2.085v-6.076h1.806
				L148.405,52.494L148.405,52.494z M142.355,56.891c-0.134-0.273-0.339-0.516-0.615-0.726c-0.278-0.21-0.715-0.435-1.312-0.677
				c-0.67-0.271-1.104-0.471-1.303-0.608c-0.198-0.137-0.297-0.299-0.297-0.485c0-0.332,0.308-0.498,0.923-0.498
				c0.346,0,0.686,0.053,1.019,0.156c0.332,0.105,0.69,0.239,1.073,0.403l0.629-1.504c-0.871-0.401-1.766-0.603-2.687-0.603
				c-0.966,0-1.712,0.187-2.239,0.559c-0.526,0.371-0.789,0.896-0.789,1.574c0,0.396,0.062,0.73,0.188,1.002
				c0.125,0.271,0.325,0.512,0.601,0.722c0.276,0.21,0.708,0.438,1.296,0.685c0.41,0.174,0.738,0.323,0.984,0.453
				c0.246,0.131,0.419,0.246,0.52,0.35c0.102,0.103,0.15,0.236,0.15,0.399c0,0.438-0.378,0.656-1.135,0.656
				c-0.369,0-0.796-0.062-1.281-0.185c-0.486-0.123-0.922-0.275-1.309-0.459v1.724c0.341,0.146,0.706,0.256,1.1,0.332
				c0.392,0.075,0.866,0.112,1.422,0.112c1.085,0,1.899-0.205,2.444-0.615c0.544-0.41,0.815-1.008,0.815-1.791
				C142.554,57.489,142.488,57.163,142.355,56.891 M133.705,58.4c-0.167-0.143-0.25-0.36-0.25-0.656v-3.684h2.14v-1.565h-2.14
				v-1.627h-1.333l-0.601,1.612l-1.149,0.697v0.883h0.998v3.685c0,0.843,0.188,1.476,0.571,1.896c0.38,0.424,0.986,0.633,1.82,0.633
				c0.756,0,1.396-0.115,1.914-0.349v-1.552c-0.511,0.16-0.948,0.238-1.312,0.238C134.091,58.611,133.871,58.542,133.705,58.4
				 M129.948,52.494h-1.806v-0.479c0-0.273,0.066-0.498,0.198-0.675c0.132-0.175,0.347-0.263,0.644-0.263
				c0.354,0,0.741,0.066,1.162,0.197l0.532-1.53c-0.561-0.214-1.2-0.321-1.921-0.321c-0.942,0-1.629,0.2-2.058,0.602
				c-0.428,0.4-0.644,1.037-0.644,1.908v0.561l-1.147,0.561v1.006h1.147v6.076h2.085v-6.076h1.806L129.948,52.494L129.948,52.494z
				 M121.154,51.219c0.184,0.148,0.413,0.223,0.687,0.223c0.291,0,0.526-0.082,0.704-0.246c0.178-0.163,0.268-0.385,0.268-0.662
				c0-0.287-0.089-0.514-0.265-0.678c-0.175-0.164-0.411-0.246-0.707-0.246c-0.272,0-0.503,0.074-0.687,0.223
				c-0.187,0.148-0.277,0.382-0.277,0.701C120.877,50.842,120.969,51.07,121.154,51.219 M118.378,51.202
				c0.171,0.159,0.403,0.239,0.694,0.239c0.296,0,0.529-0.084,0.704-0.25c0.174-0.166,0.26-0.387,0.26-0.659
				c0-0.278-0.085-0.501-0.256-0.671c-0.171-0.168-0.407-0.252-0.708-0.252c-0.291,0-0.523,0.08-0.694,0.238
				c-0.17,0.159-0.256,0.389-0.256,0.685C118.122,50.818,118.208,51.043,118.378,51.202 M121.506,57.227
				c0,0.459-0.145,0.828-0.434,1.105c-0.29,0.277-0.677,0.417-1.159,0.417c-0.674,0-1.012-0.294-1.012-0.882
				c0-0.41,0.146-0.715,0.443-0.916c0.296-0.2,0.747-0.311,1.354-0.328l0.807-0.027V57.227L121.506,57.227z M123.577,60.137v-5.093
				c0-0.912-0.273-1.591-0.82-2.037s-1.333-0.67-2.357-0.67c-1.071,0-2.048,0.229-2.927,0.69l0.69,1.408
				c0.825-0.369,1.543-0.555,2.153-0.555c0.793,0,1.188,0.389,1.188,1.162v0.335l-1.326,0.041c-1.144,0.041-2,0.254-2.565,0.64
				c-0.568,0.385-0.853,0.982-0.853,1.795c0,0.773,0.21,1.371,0.633,1.791s0.999,0.629,1.732,0.629c0.597,0,1.081-0.086,1.453-0.256
				c0.371-0.172,0.731-0.479,1.083-0.92h0.055l0.403,1.039H123.577L123.577,60.137z M115.121,55.152
				c0-0.901-0.232-1.596-0.697-2.077c-0.465-0.483-1.146-0.726-2.044-0.726c-1.012,0-1.75,0.373-2.215,1.121h-0.109l0.048-0.615
				c0.031-0.623,0.049-1.021,0.049-1.188V49.5h-2.086v10.637h2.086v-3.596c0-0.889,0.13-1.531,0.39-1.928
				c0.26-0.397,0.681-0.596,1.265-0.596c0.82,0,1.23,0.553,1.23,1.654v4.464h2.085L115.121,55.152L115.121,55.152z M105.274,60.15
				c0.344-0.082,0.685-0.23,1.021-0.444v-1.784c-0.342,0.229-0.684,0.396-1.023,0.502c-0.344,0.107-0.716,0.161-1.115,0.161
				c-1.084,0-1.627-0.747-1.627-2.242c0-1.541,0.543-2.311,1.627-2.311c0.283,0,0.563,0.042,0.848,0.127
				c0.282,0.084,0.588,0.192,0.916,0.323l0.615-1.612c-0.702-0.347-1.495-0.521-2.379-0.521c-1.207,0-2.135,0.344-2.782,1.028
				c-0.647,0.687-0.971,1.679-0.971,2.978c0,2.611,1.188,3.918,3.567,3.918C104.496,60.273,104.93,60.232,105.274,60.15
				 M99.043,56.891c-0.132-0.273-0.337-0.516-0.615-0.726c-0.276-0.21-0.716-0.435-1.312-0.677c-0.67-0.271-1.104-0.471-1.303-0.608
				c-0.197-0.137-0.298-0.299-0.298-0.485c0-0.332,0.309-0.498,0.923-0.498c0.348,0,0.687,0.053,1.02,0.156
				c0.333,0.105,0.689,0.239,1.073,0.403l0.629-1.504c-0.87-0.401-1.768-0.603-2.688-0.603c-0.967,0-1.713,0.187-2.237,0.559
				c-0.526,0.371-0.79,0.896-0.79,1.574c0,0.396,0.062,0.73,0.188,1.002s0.326,0.512,0.604,0.722
				c0.274,0.21,0.707,0.438,1.295,0.685c0.41,0.174,0.738,0.323,0.984,0.453c0.245,0.131,0.419,0.246,0.52,0.35
				c0.1,0.103,0.15,0.236,0.15,0.399c0,0.438-0.379,0.656-1.136,0.656c-0.368,0-0.797-0.062-1.281-0.185s-0.923-0.275-1.31-0.459
				v1.724c0.342,0.146,0.709,0.256,1.102,0.332c0.392,0.075,0.864,0.112,1.422,0.112c1.085,0,1.898-0.205,2.442-0.615
				c0.545-0.41,0.817-1.008,0.817-1.791C99.241,57.489,99.175,57.163,99.043,56.891 M90.614,60.141
				c0.415-0.09,0.805-0.225,1.169-0.406V58.12c-0.446,0.21-0.875,0.362-1.285,0.458s-0.845,0.145-1.306,0.145
				c-0.594,0-1.054-0.168-1.382-0.5c-0.327-0.332-0.504-0.796-0.525-1.388h4.929v-1.012c0-1.084-0.301-1.935-0.901-2.55
				c-0.602-0.615-1.442-0.924-2.522-0.924c-1.13,0-2.015,0.351-2.656,1.051c-0.64,0.697-0.96,1.688-0.96,2.97
				c0,1.244,0.347,2.206,1.039,2.885c0.693,0.681,1.654,1.019,2.885,1.019C89.694,60.273,90.2,60.229,90.614,60.141 M89.855,54.254
				c0.26,0.281,0.395,0.678,0.402,1.193h-2.926c0.036-0.516,0.18-0.912,0.431-1.193c0.25-0.279,0.599-0.42,1.039-0.42
				C89.245,53.834,89.596,53.975,89.855,54.254 M79.458,56.288h1.894v2.085c-0.455,0.091-0.903,0.137-1.347,0.137
				c-0.848,0-1.494-0.285-1.938-0.857c-0.444-0.571-0.667-1.399-0.667-2.484c0-1.039,0.274-1.866,0.826-2.48
				c0.553-0.615,1.285-0.924,2.201-0.924c0.788,0,1.547,0.184,2.276,0.547l0.704-1.694c-0.952-0.41-1.941-0.615-2.967-0.615
				c-1.638,0-2.915,0.451-3.84,1.354c-0.923,0.901-1.384,2.16-1.384,3.772c0,1.659,0.397,2.931,1.193,3.817
				c0.795,0.887,1.947,1.33,3.455,1.33c0.593,0,1.173-0.043,1.74-0.127c0.565-0.084,1.172-0.23,1.813-0.44v-5.183h-3.965v1.763
				H79.458z"/>
		</g>
	</g>
</g>
<g>
	<g>
		<g>
			<defs>
				<rect id="SVGID_3_" x="66.78" y="26.425" width="216.03" height="14.517"/>
			</defs>
			<clipPath id="SVGID_4_">
				<use xlink:href="#SVGID_3_"  overflow="visible"/>
			</clipPath>
			<path clip-path="url(#SVGID_4_)" fill="#697482" d="M269.5,36.954c-0.335-0.236-0.594-0.558-0.775-0.964
				c-0.183-0.406-0.272-0.844-0.272-1.312c0-0.318,0.102-0.626,0.305-0.923c0.202-0.297,0.476-0.528,0.816-0.697
				c0.342-0.168,0.718-0.253,1.128-0.253c0.661,0,1.156,0.189,1.49,0.567c0.332,0.378,0.498,0.898,0.498,1.559
				c0,0.771-0.179,1.359-0.536,1.767c-0.357,0.407-0.86,0.612-1.508,0.612C270.218,37.311,269.835,37.191,269.5,36.954
				 M268.198,37.107c0.605,0.777,1.426,1.166,2.461,1.166c0.966,0,1.732-0.297,2.3-0.894c0.567-0.595,0.852-1.411,0.852-2.45
				c0-0.93-0.259-1.665-0.775-2.208c-0.518-0.542-1.226-0.813-2.122-0.813c-1.085,0-1.878,0.393-2.379,1.176h-0.082
				c0.055-1.431,0.364-2.48,0.93-3.147c0.565-0.668,1.384-1.002,2.454-1.002c0.451,0,0.854,0.057,1.203,0.171V28.13
				c-0.297-0.087-0.702-0.13-1.217-0.13c-1.495,0-2.624,0.486-3.388,1.458c-0.765,0.974-1.146,2.442-1.146,4.406
				C267.289,35.249,267.593,36.331,268.198,37.107 M264.555,28.665c-0.537-0.444-1.292-0.666-2.263-0.666
				c-0.593,0-1.156,0.092-1.691,0.277c-0.535,0.184-1.009,0.438-1.419,0.762l0.574,0.766c0.496-0.318,0.938-0.537,1.326-0.656
				c0.388-0.118,0.799-0.178,1.237-0.178c0.573,0,1.028,0.14,1.363,0.417c0.335,0.277,0.502,0.66,0.502,1.148
				c0,0.611-0.229,1.088-0.684,1.433c-0.455,0.344-1.073,0.516-1.853,0.516h-0.998v0.978h0.983c1.904,0,2.857,0.606,2.857,1.817
				c0,1.354-0.864,2.031-2.591,2.031c-0.438,0-0.901-0.057-1.392-0.168s-0.952-0.274-1.385-0.488v1.08
				c0.414,0.201,0.842,0.341,1.281,0.42c0.439,0.08,0.924,0.119,1.453,0.119c1.217,0,2.155-0.256,2.815-0.77
				c0.66-0.513,0.991-1.244,0.991-2.197c0-0.665-0.193-1.203-0.581-1.613c-0.388-0.41-0.982-0.665-1.784-0.766v-0.055
				c0.656-0.137,1.164-0.408,1.521-0.813c0.357-0.405,0.537-0.928,0.537-1.565C265.361,29.72,265.093,29.11,264.555,28.665
				 M257.732,37.084h-5.142v-0.055l2.188-2.14c0.975-0.947,1.641-1.731,1.996-2.352c0.354-0.621,0.532-1.247,0.532-1.88
				c0-0.811-0.267-1.457-0.8-1.938c-0.533-0.481-1.27-0.721-2.208-0.721c-1.084,0-2.088,0.383-3.008,1.148l0.602,0.772
				c0.456-0.359,0.869-0.608,1.241-0.744c0.37-0.138,0.765-0.206,1.18-0.206c0.573,0,1.021,0.156,1.347,0.469
				c0.323,0.312,0.485,0.734,0.485,1.268c0,0.378-0.064,0.731-0.191,1.06c-0.128,0.328-0.318,0.666-0.574,1.012
				c-0.256,0.346-0.783,0.925-1.586,1.736l-2.632,2.646v0.978h6.569V37.084z M245.485,36.954c-0.335-0.236-0.594-0.558-0.775-0.964
				s-0.273-0.844-0.273-1.312c0-0.318,0.103-0.626,0.305-0.923c0.203-0.297,0.475-0.528,0.816-0.697
				c0.343-0.168,0.719-0.253,1.128-0.253c0.661,0,1.158,0.189,1.49,0.567c0.333,0.378,0.499,0.898,0.499,1.559
				c0,0.771-0.179,1.359-0.536,1.767c-0.357,0.407-0.859,0.612-1.508,0.612C246.202,37.311,245.82,37.191,245.485,36.954
				 M244.184,37.107c0.605,0.777,1.428,1.166,2.461,1.166c0.967,0,1.732-0.297,2.301-0.894c0.567-0.595,0.853-1.411,0.853-2.45
				c0-0.93-0.26-1.665-0.775-2.208c-0.52-0.542-1.227-0.813-2.123-0.813c-1.085,0-1.878,0.393-2.38,1.176h-0.081
				c0.055-1.431,0.364-2.48,0.93-3.147c0.564-0.668,1.383-1.002,2.454-1.002c0.451,0,0.852,0.057,1.203,0.171V28.13
				c-0.297-0.087-0.702-0.13-1.218-0.13c-1.494,0-2.624,0.486-3.388,1.458c-0.763,0.974-1.145,2.442-1.145,4.406
				C243.274,35.249,243.577,36.331,244.184,37.107 M239.512,29.318c0.335,0.233,0.597,0.552,0.782,0.957
				c0.188,0.406,0.28,0.848,0.28,1.326c0,0.318-0.101,0.625-0.301,0.916c-0.201,0.292-0.476,0.521-0.824,0.69
				c-0.349,0.168-0.729,0.253-1.146,0.253c-0.67,0-1.169-0.188-1.497-0.563s-0.491-0.893-0.491-1.549c0-0.747,0.178-1.33,0.532-1.75
				c0.355-0.419,0.858-0.629,1.512-0.629C238.792,28.97,239.177,29.086,239.512,29.318 M241.312,30.046
				c-0.273-0.667-0.664-1.176-1.173-1.523c-0.508-0.349-1.103-0.523-1.78-0.523c-0.948,0-1.712,0.301-2.293,0.902
				c-0.582,0.602-0.872,1.422-0.872,2.461c0,0.948,0.26,1.686,0.778,2.215c0.52,0.529,1.223,0.793,2.105,0.793
				c0.52,0,0.986-0.099,1.4-0.298c0.415-0.198,0.747-0.486,0.998-0.864h0.082c-0.05,1.399-0.354,2.438-0.912,3.114
				c-0.559,0.676-1.385,1.015-2.479,1.015c-0.465,0-0.88-0.061-1.244-0.178v0.979c0.311,0.092,0.729,0.137,1.258,0.137
				c3.025,0,4.539-1.955,4.539-5.865C241.723,31.501,241.586,30.714,241.312,30.046 M226.287,33.406
				c0.853,0,1.487,0.146,1.904,0.438s0.625,0.747,0.625,1.367c0,0.665-0.204,1.154-0.612,1.467
				c-0.407,0.312-1.015,0.469-1.821,0.469h-2.086v-3.739L226.287,33.406L226.287,33.406z M224.297,29.147h1.709
				c0.875,0,1.514,0.124,1.916,0.373c0.4,0.248,0.602,0.652,0.602,1.213c0,0.611-0.181,1.045-0.54,1.302
				c-0.36,0.258-0.95,0.387-1.771,0.387h-1.915V29.147L224.297,29.147z M223.136,38.137h3.486c1.084,0,1.93-0.25,2.532-0.751
				c0.604-0.503,0.905-1.198,0.905-2.093c0-1.336-0.759-2.133-2.275-2.393v-0.068c0.633-0.113,1.115-0.363,1.446-0.749
				c0.329-0.385,0.494-0.874,0.494-1.466c0-0.856-0.296-1.482-0.889-1.88c-0.593-0.396-1.552-0.595-2.878-0.595h-2.823
				L223.136,38.137L223.136,38.137z M215.644,29.161h1.512c0.86,0,1.486,0.146,1.876,0.438s0.585,0.768,0.585,1.429
				c0,0.652-0.191,1.141-0.574,1.466c-0.383,0.326-0.984,0.489-1.805,0.489h-1.594V29.161z M217.729,33.98l2.421,4.156h1.374
				l-2.715-4.491c1.341-0.465,2.011-1.358,2.011-2.68c0-0.943-0.293-1.649-0.878-2.119c-0.586-0.469-1.492-0.705-2.719-0.705h-2.74
				v9.995h1.161V33.98H217.729z M211.74,28.142h-1.162v4.252h-5.264v-4.252h-1.162v9.995h1.162v-4.703h5.264v4.703h1.162V28.142z
				 M196.858,36.511c-0.06,0.419-0.163,0.978-0.312,1.675c-0.146,0.696-0.283,1.282-0.406,1.756h0.854
				c0.241-0.52,0.475-1.08,0.697-1.686c0.223-0.604,0.394-1.134,0.513-1.589l-0.104-0.156H196.858z M194.582,38.137v-4.888
				c0-0.957-0.229-1.652-0.684-2.089c-0.456-0.435-1.136-0.652-2.037-0.652c-0.516,0-0.982,0.102-1.401,0.305
				c-0.42,0.203-0.745,0.489-0.978,0.857h-0.056l-0.185-1.025h-0.923v7.492h1.135v-3.931c0-0.975,0.183-1.675,0.547-2.099
				c0.364-0.424,0.938-0.636,1.723-0.636c0.594,0,1.027,0.15,1.307,0.451c0.278,0.301,0.417,0.757,0.417,1.367v4.847L194.582,38.137
				L194.582,38.137z M184.875,29.186c0.127,0.125,0.287,0.188,0.479,0.188c0.183,0,0.341-0.062,0.473-0.188s0.198-0.316,0.198-0.571
				c0-0.255-0.066-0.444-0.198-0.567s-0.29-0.185-0.473-0.185c-0.19,0-0.352,0.061-0.479,0.181
				c-0.128,0.121-0.191,0.311-0.191,0.571C184.684,28.869,184.747,29.061,184.875,29.186 M185.914,30.645h-1.135v7.492h1.135V30.645
				z M177.994,37.016c-0.248-0.214-0.372-0.525-0.372-0.937c0-0.522,0.199-0.91,0.599-1.159c0.398-0.248,1.049-0.388,1.95-0.42
				l1.136-0.048v0.677c0,0.697-0.2,1.239-0.604,1.627c-0.402,0.389-0.958,0.581-1.664,0.581
				C178.59,37.337,178.243,37.23,177.994,37.016 M182.441,38.137v-5.113c0-0.875-0.216-1.511-0.646-1.907s-1.093-0.595-1.985-0.595
				c-0.441,0-0.883,0.057-1.322,0.171c-0.439,0.114-0.845,0.271-1.213,0.472l0.349,0.868c0.788-0.383,1.494-0.574,2.119-0.574
				c0.556,0,0.96,0.141,1.213,0.42c0.253,0.28,0.38,0.716,0.38,1.303v0.465l-1.271,0.041c-2.42,0.073-3.631,0.866-3.631,2.378
				c0,0.707,0.211,1.252,0.634,1.635c0.421,0.383,1.003,0.574,1.745,0.574c0.557,0,1.021-0.084,1.392-0.25
				c0.372-0.166,0.744-0.484,1.118-0.953h0.055l0.226,1.066h0.839V38.137z M169.884,38.137l3.418-8.846h0.056
				c-0.064,0.866-0.097,1.668-0.097,2.406v6.439h1.161v-9.995h-1.734l-3.192,8.245h-0.055l-3.165-8.245h-1.75v9.995h1.072v-6.357
				c0-0.966-0.031-1.8-0.096-2.502h0.055l3.392,8.859L169.884,38.137L169.884,38.137z M158.379,38.137v-4.888
				c0-0.957-0.211-1.652-0.633-2.089c-0.421-0.435-1.056-0.652-1.903-0.652c-0.542,0-1.024,0.114-1.448,0.342
				c-0.425,0.228-0.747,0.538-0.973,0.93h-0.054c-0.359-0.848-1.126-1.271-2.297-1.271c-0.483,0-0.92,0.103-1.31,0.308
				c-0.391,0.205-0.691,0.49-0.905,0.854h-0.056l-0.185-1.025h-0.923v7.493h1.135v-3.932c0-0.971,0.165-1.669,0.495-2.095
				c0.331-0.426,0.852-0.64,1.562-0.64c0.543,0,0.94,0.149,1.196,0.447c0.255,0.3,0.382,0.746,0.382,1.344v4.874h1.136v-4.184
				c0-0.843,0.169-1.468,0.507-1.873c0.337-0.406,0.857-0.608,1.563-0.608c0.538,0,0.937,0.149,1.19,0.447
				c0.255,0.3,0.383,0.746,0.383,1.344v4.874H158.379z M140.909,37.016c-0.248-0.214-0.372-0.525-0.372-0.937
				c0-0.522,0.199-0.91,0.599-1.159c0.398-0.248,1.049-0.388,1.951-0.42l1.135-0.048v0.677c0,0.697-0.2,1.239-0.604,1.627
				c-0.403,0.389-0.958,0.581-1.664,0.581C141.506,37.337,141.158,37.23,140.909,37.016 M145.356,38.137v-5.113
				c0-0.875-0.216-1.511-0.646-1.907s-1.093-0.595-1.985-0.595c-0.441,0-0.883,0.057-1.322,0.171
				c-0.439,0.114-0.845,0.271-1.213,0.472l0.349,0.868c0.788-0.383,1.494-0.574,2.119-0.574c0.556,0,0.96,0.141,1.213,0.42
				c0.253,0.28,0.38,0.716,0.38,1.303v0.465l-1.271,0.041c-2.421,0.073-3.631,0.866-3.631,2.378c0,0.707,0.212,1.252,0.634,1.635
				c0.421,0.383,1.003,0.574,1.746,0.574c0.556,0,1.02-0.084,1.391-0.25c0.372-0.166,0.744-0.484,1.118-0.953h0.055l0.226,1.066
				h0.839V38.137z M132.867,36.975c-0.214-0.24-0.321-0.588-0.321-1.039v-4.409h2.174v-0.882h-2.174v-1.736h-0.656l-0.479,1.6
				l-1.073,0.472v0.547h1.073v4.457c0,1.527,0.725,2.291,2.174,2.291c0.191,0,0.406-0.021,0.646-0.06
				c0.238-0.038,0.42-0.088,0.543-0.146V37.2c-0.109,0.032-0.258,0.063-0.444,0.092c-0.188,0.03-0.381,0.045-0.581,0.045
				C133.375,37.337,133.081,37.216,132.867,36.975 M127.74,30.904c-0.393,0.264-0.728,0.64-1.005,1.128h-0.056l-0.13-1.388h-0.937
				v7.492h1.135v-4.02c0-0.734,0.216-1.347,0.646-1.839c0.431-0.492,0.949-0.738,1.556-0.738c0.236,0,0.51,0.034,0.819,0.103
				l0.157-1.053c-0.265-0.055-0.562-0.082-0.896-0.082C128.562,30.508,128.133,30.641,127.74,30.904 M116.939,30.645v4.901
				c0,0.952,0.227,1.646,0.68,2.078c0.454,0.435,1.137,0.649,2.048,0.649c0.528,0,0.999-0.099,1.411-0.295
				c0.413-0.195,0.734-0.479,0.968-0.848h0.062l0.164,1.005h0.937v-7.492h-1.135v3.938c0,0.971-0.182,1.67-0.544,2.1
				c-0.362,0.428-0.936,0.643-1.72,0.643c-0.592,0-1.027-0.15-1.305-0.451c-0.279-0.301-0.418-0.757-0.418-1.367v-4.86
				L116.939,30.645L116.939,30.645z M115.654,30.645h-1.907V30.16c0-0.629,0.103-1.086,0.308-1.371
				c0.205-0.284,0.521-0.427,0.951-0.427c0.31,0,0.684,0.071,1.12,0.212l0.294-0.909c-0.533-0.16-0.999-0.239-1.395-0.239
				c-1.609,0-2.413,0.92-2.413,2.761v0.417l-1.341,0.41v0.513h1.341v6.61h1.135v-6.61h1.907V30.645L115.654,30.645z M105.995,34.303
				c0.036-0.525,0.055-0.912,0.055-1.163V27.5h-1.121v10.636h1.121v-2.803l0.854-0.738l2.646,3.541h1.374l-3.247-4.3l3.035-3.192
				h-1.347l-2.42,2.563c-0.401,0.451-0.7,0.816-0.896,1.095h-0.054V34.303z M102.598,38.137v-4.888c0-0.957-0.229-1.652-0.684-2.089
				c-0.456-0.435-1.135-0.652-2.037-0.652c-0.515,0-0.982,0.102-1.401,0.305s-0.744,0.489-0.978,0.857h-0.055l-0.186-1.025h-0.923
				v7.492h1.135v-3.931c0-0.975,0.184-1.675,0.547-2.099c0.365-0.424,0.938-0.636,1.724-0.636c0.592,0,1.027,0.15,1.306,0.451
				c0.278,0.301,0.417,0.757,0.417,1.367v4.847L102.598,38.137L102.598,38.137z M89.552,37.016
				c-0.249-0.214-0.373-0.525-0.373-0.937c0-0.522,0.199-0.91,0.599-1.159c0.398-0.248,1.05-0.388,1.952-0.42l1.135-0.048v0.677
				c0,0.697-0.202,1.239-0.604,1.627c-0.402,0.389-0.958,0.581-1.665,0.581C90.146,37.337,89.8,37.23,89.552,37.016 M93.998,38.137
				v-5.113c0-0.875-0.216-1.511-0.646-1.907c-0.432-0.396-1.093-0.595-1.985-0.595c-0.441,0-0.883,0.057-1.323,0.171
				c-0.439,0.114-0.844,0.271-1.213,0.472l0.349,0.868c0.789-0.383,1.495-0.574,2.118-0.574c0.557,0,0.962,0.141,1.215,0.42
				c0.253,0.28,0.379,0.716,0.379,1.303v0.465l-1.271,0.041c-2.42,0.073-3.63,0.866-3.63,2.378c0,0.707,0.211,1.252,0.632,1.635
				c0.422,0.383,1.004,0.574,1.747,0.574c0.557,0,1.02-0.084,1.392-0.25c0.371-0.166,0.743-0.484,1.117-0.953h0.055l0.227,1.066
				h0.839V38.137z M84.961,30.904c-0.392,0.264-0.727,0.64-1.005,1.128h-0.055l-0.13-1.388h-0.938v7.492h1.135v-4.02
				c0-0.734,0.216-1.347,0.646-1.839c0.431-0.492,0.949-0.738,1.556-0.738c0.236,0,0.511,0.034,0.82,0.103l0.157-1.053
				c-0.265-0.055-0.563-0.082-0.896-0.082C85.783,30.508,85.354,30.641,84.961,30.904 M76.942,33.864h4.143v-1.032h-4.143v-3.656
				h4.408v-1.034h-5.57v9.995h1.162V33.864z"/>
		</g>
	</g>
</g>
<g>
	<g>
		<g>
			<defs>
				<rect id="SVGID_5_" x="66.678" y="4.5" width="176.833" height="12.835"/>
			</defs>
			<clipPath id="SVGID_6_">
				<use xlink:href="#SVGID_5_"  overflow="visible"/>
			</clipPath>
			<path clip-path="url(#SVGID_6_)" fill="#697482" d="M233.396,6.666c-0.536-0.444-1.293-0.667-2.263-0.667
				c-0.593,0-1.157,0.093-1.69,0.277c-0.536,0.185-1.01,0.439-1.419,0.763l0.573,0.765c0.496-0.319,0.938-0.538,1.326-0.656
				c0.387-0.119,0.8-0.178,1.237-0.178c0.574,0,1.028,0.139,1.364,0.417c0.335,0.278,0.502,0.661,0.502,1.149
				c0,0.61-0.229,1.088-0.685,1.432c-0.456,0.344-1.074,0.516-1.853,0.516h-0.998v0.977h0.983c1.904,0,2.857,0.607,2.857,1.819
				c0,1.353-0.864,2.03-2.591,2.03c-0.438,0-0.901-0.056-1.393-0.167c-0.488-0.112-0.949-0.275-1.384-0.489v1.08
				c0.414,0.2,0.842,0.341,1.281,0.42c0.438,0.08,0.924,0.12,1.453,0.12c1.217,0,2.155-0.256,2.814-0.769
				c0.661-0.513,0.992-1.245,0.992-2.198c0-0.665-0.192-1.203-0.581-1.613c-0.388-0.41-0.98-0.666-1.785-0.766v-0.055
				c0.657-0.136,1.164-0.407,1.521-0.813c0.356-0.406,0.537-0.927,0.537-1.565C234.203,7.72,233.934,7.109,233.396,6.666
				 M221.68,7.958c0.342-0.659,0.888-0.988,1.633-0.988c0.759,0,1.307,0.334,1.646,1.002c0.34,0.667,0.51,1.719,0.51,3.154
				c0,1.436-0.17,2.49-0.51,3.162c-0.339,0.672-0.887,1.008-1.646,1.008c-0.745,0-1.291-0.331-1.633-0.994
				c-0.342-0.663-0.513-1.722-0.513-3.176S221.338,8.617,221.68,7.958 M225.785,7.305c-0.563-0.879-1.387-1.319-2.474-1.319
				c-1.11,0-1.938,0.421-2.479,1.264c-0.542,0.844-0.813,2.136-0.813,3.876c0,1.687,0.28,2.966,0.842,3.839
				c0.561,0.873,1.379,1.309,2.452,1.309c1.122,0,1.954-0.426,2.5-1.278c0.546-0.853,0.816-2.142,0.816-3.87
				C226.629,9.458,226.347,8.185,225.785,7.305 M216.204,6.143h-0.957l-2.646,2.044l0.603,0.779
				c0.966-0.784,1.509-1.228,1.627-1.333c0.119-0.105,0.226-0.205,0.321-0.301c-0.036,0.529-0.056,1.09-0.056,1.682v7.123h1.107
				L216.204,6.143L216.204,6.143z M208.199,6.143h-0.957l-2.646,2.044l0.603,0.779c0.966-0.784,1.509-1.228,1.627-1.333
				c0.119-0.105,0.226-0.205,0.319-0.301c-0.034,0.529-0.054,1.09-0.054,1.682v7.123h1.107L208.199,6.143L208.199,6.143z
				 M197.549,10.189l0.253-3.001h3.999V6.143h-4.97l-0.376,4.676l0.588,0.376c0.725-0.132,1.303-0.198,1.736-0.198
				c1.709,0,2.562,0.697,2.562,2.091c0,0.716-0.222,1.263-0.667,1.641c-0.442,0.378-1.065,0.567-1.869,0.567
				c-0.461,0-0.928-0.058-1.4-0.174c-0.476-0.116-0.87-0.277-1.189-0.482v1.094c0.592,0.36,1.451,0.54,2.577,0.54
				c1.157,0,2.065-0.294,2.725-0.882c0.658-0.588,0.987-1.399,0.987-2.434c0-0.906-0.302-1.621-0.906-2.143
				c-0.604-0.521-1.432-0.782-2.483-0.782C198.595,10.033,198.073,10.084,197.549,10.189 M190.312,14.955
				c-0.336-0.237-0.595-0.559-0.775-0.964c-0.182-0.406-0.273-0.843-0.273-1.313c0-0.319,0.103-0.626,0.306-0.923
				c0.202-0.296,0.475-0.528,0.815-0.697s0.718-0.253,1.128-0.253c0.66,0,1.157,0.189,1.49,0.567
				c0.333,0.379,0.499,0.898,0.499,1.559c0,0.77-0.179,1.359-0.537,1.767c-0.355,0.408-0.859,0.612-1.507,0.612
				C191.03,15.31,190.648,15.191,190.312,14.955 M189.011,15.107c0.606,0.777,1.427,1.166,2.461,1.166
				c0.966,0,1.733-0.298,2.3-0.892c0.567-0.595,0.853-1.412,0.853-2.451c0-0.93-0.259-1.666-0.776-2.208
				c-0.517-0.542-1.225-0.813-2.122-0.813c-1.085,0-1.878,0.392-2.379,1.175h-0.082c0.056-1.431,0.364-2.48,0.931-3.148
				c0.563-0.667,1.383-1.001,2.453-1.001c0.451,0,0.854,0.057,1.203,0.171V6.128c-0.297-0.086-0.701-0.13-1.217-0.13
				c-1.495,0-2.624,0.487-3.387,1.46c-0.764,0.973-1.146,2.442-1.146,4.406C188.102,13.25,188.405,14.331,189.011,15.107
				 M181.655,7.958c0.342-0.659,0.887-0.988,1.634-0.988c0.756,0,1.305,0.334,1.644,1.002c0.342,0.667,0.511,1.719,0.511,3.154
				c0,1.436-0.169,2.49-0.511,3.162c-0.339,0.672-0.888,1.008-1.644,1.008c-0.747,0-1.292-0.331-1.634-0.994
				c-0.343-0.663-0.514-1.722-0.514-3.176C181.143,9.672,181.312,8.617,181.655,7.958 M185.76,7.305
				c-0.562-0.879-1.386-1.319-2.471-1.319c-1.112,0-1.939,0.421-2.481,1.264c-0.543,0.844-0.812,2.136-0.812,3.876
				c0,1.687,0.279,2.966,0.841,3.839c0.561,0.873,1.378,1.309,2.454,1.309c1.121,0,1.954-0.426,2.499-1.278
				c0.544-0.853,0.814-2.142,0.814-3.87C186.604,9.458,186.323,8.185,185.76,7.305 M176.333,7.318
				c0.335,0.232,0.596,0.551,0.783,0.957c0.187,0.405,0.278,0.847,0.278,1.326c0,0.319-0.1,0.624-0.3,0.916s-0.475,0.522-0.823,0.69
				c-0.35,0.169-0.729,0.253-1.146,0.253c-0.67,0-1.169-0.188-1.497-0.564s-0.492-0.892-0.492-1.548c0-0.747,0.178-1.331,0.533-1.75
				s0.859-0.629,1.511-0.629C175.615,6.97,175.998,7.085,176.333,7.318 M178.135,8.046c-0.272-0.668-0.665-1.176-1.173-1.525
				c-0.508-0.348-1.101-0.523-1.78-0.523c-0.946,0-1.713,0.301-2.294,0.903c-0.581,0.601-0.871,1.422-0.871,2.461
				c0,0.948,0.261,1.686,0.779,2.215c0.52,0.528,1.221,0.793,2.105,0.793c0.52,0,0.985-0.1,1.4-0.298
				c0.414-0.198,0.747-0.486,0.998-0.865h0.082c-0.05,1.4-0.354,2.437-0.913,3.114c-0.558,0.677-1.384,1.015-2.478,1.015
				c-0.466,0-0.879-0.059-1.244-0.177v0.977c0.31,0.091,0.729,0.137,1.258,0.137c3.026,0,4.539-1.955,4.539-5.865
				C178.545,9.501,178.408,8.713,178.135,8.046 M170.54,15.083h-5.142V15.03l2.188-2.14c0.975-0.948,1.641-1.732,1.996-2.351
				c0.354-0.62,0.533-1.247,0.533-1.88c0-0.812-0.268-1.457-0.801-1.938c-0.532-0.481-1.27-0.722-2.207-0.722
				c-1.086,0-2.089,0.383-3.009,1.149l0.603,0.772c0.456-0.36,0.869-0.608,1.241-0.745c0.37-0.136,0.764-0.205,1.179-0.205
				c0.574,0,1.021,0.156,1.347,0.468c0.323,0.313,0.485,0.735,0.485,1.268c0,0.379-0.064,0.732-0.191,1.06
				c-0.128,0.328-0.317,0.665-0.575,1.012c-0.255,0.346-0.781,0.925-1.585,1.736l-2.632,2.646v0.977h6.569L170.54,15.083
				L170.54,15.083z M162.446,15.098h-4.409V11.42h4.143v-1.025h-4.143v-3.22h4.409V6.143h-5.571v9.994h5.571V15.098z M152.37,14.109
				c-0.697,0.682-1.739,1.022-3.124,1.022h-1.415V7.147h1.688c1.29,0,2.264,0.33,2.916,0.991c0.654,0.661,0.981,1.643,0.981,2.946
				C153.416,12.42,153.067,13.429,152.37,14.109 M153.354,7.435c-0.859-0.861-2.067-1.292-3.622-1.292h-3.062v9.994h2.769
				c1.683,0,2.972-0.436,3.865-1.309c0.896-0.873,1.344-2.134,1.344-3.784C154.646,9.499,154.216,8.295,153.354,7.435
				 M139.201,10.083c0.15,0.143,0.345,0.215,0.577,0.215c0.26,0,0.465-0.079,0.614-0.239c0.15-0.159,0.227-0.387,0.227-0.684
				c0-0.615-0.28-0.922-0.841-0.922c-0.537,0-0.808,0.307-0.808,0.922C138.972,9.705,139.048,9.939,139.201,10.083 M139.201,16.12
				c0.15,0.144,0.345,0.215,0.577,0.215c0.26,0,0.465-0.079,0.614-0.239c0.15-0.159,0.227-0.387,0.227-0.683
				c0-0.306-0.074-0.537-0.223-0.694c-0.147-0.158-0.354-0.236-0.618-0.236c-0.261,0-0.459,0.078-0.6,0.236
				c-0.139,0.157-0.208,0.388-0.208,0.694C138.972,15.741,139.048,15.976,139.201,16.12 M135.475,16.12
				c0.153,0.144,0.347,0.215,0.578,0.215c0.259,0,0.465-0.079,0.615-0.239c0.15-0.159,0.226-0.387,0.226-0.683
				c0-0.306-0.073-0.537-0.223-0.694c-0.146-0.158-0.354-0.236-0.618-0.236c-0.26,0-0.459,0.078-0.598,0.236
				c-0.139,0.157-0.209,0.388-0.209,0.694C135.246,15.741,135.322,15.976,135.475,16.12 M131.821,8.905
				c-0.394,0.264-0.729,0.64-1.005,1.128h-0.056l-0.13-1.388h-0.937v7.492h1.135v-4.019c0-0.734,0.215-1.347,0.646-1.839
				c0.433-0.492,0.949-0.739,1.557-0.739c0.235,0,0.511,0.035,0.819,0.103l0.157-1.053c-0.265-0.054-0.562-0.082-0.896-0.082
				C132.644,8.508,132.213,8.64,131.821,8.905 M127.118,6.143h-1.087v5.735c-0.01,0.287,0.002,0.765,0.033,1.432
				c0.031,0.668,0.054,1.063,0.062,1.187h-0.055l-5.448-8.354h-1.312v9.994h1.073v-5.681c0-0.82-0.037-1.722-0.108-2.707h0.055
				l5.462,8.388h1.326V6.143z M111.847,14.592c-0.351-0.487-0.525-1.21-0.525-2.167c0-0.943,0.177-1.673,0.528-2.191
				c0.354-0.517,0.862-0.776,1.528-0.776c0.775,0,1.339,0.227,1.692,0.681c0.353,0.453,0.528,1.211,0.528,2.273v0.239
				c0,0.939-0.175,1.619-0.521,2.04c-0.351,0.422-0.911,0.633-1.687,0.633C112.712,15.324,112.198,15.08,111.847,14.592
				 M115.811,16.137h0.925V5.5H115.6v3.049l0.027,0.527l0.048,0.54h-0.089c-0.542-0.739-1.322-1.108-2.338-1.108
				c-0.975,0-1.736,0.342-2.283,1.026c-0.547,0.683-0.821,1.643-0.821,2.878c0,1.235,0.273,2.187,0.817,2.857
				c0.545,0.67,1.307,1.005,2.287,1.005c1.044,0,1.827-0.381,2.352-1.142h0.062L115.811,16.137z M107.991,6.143h-1.162v9.994h1.162
				V6.143z M104.881,11.865h-3.354v1.039h3.354V11.865z M98.493,16.12c0.15,0.144,0.345,0.215,0.577,0.215
				c0.26,0,0.465-0.079,0.614-0.239c0.15-0.159,0.227-0.387,0.227-0.683c0-0.306-0.074-0.537-0.222-0.694
				c-0.148-0.158-0.354-0.236-0.619-0.236c-0.261,0-0.459,0.078-0.6,0.236c-0.139,0.157-0.208,0.388-0.208,0.694
				C98.264,15.741,98.34,15.976,98.493,16.12 M95.023,14.975c-0.216-0.241-0.321-0.588-0.321-1.039V9.527h2.174V8.645h-2.174V6.909
				h-0.656l-0.479,1.599L92.494,8.98v0.547h1.073v4.457c0,1.527,0.725,2.29,2.174,2.29c0.19,0,0.407-0.02,0.646-0.058
				c0.239-0.039,0.421-0.088,0.544-0.147v-0.868c-0.108,0.032-0.258,0.062-0.443,0.092c-0.188,0.03-0.381,0.044-0.581,0.044
				C95.532,15.336,95.238,15.217,95.023,14.975 M91.021,11.81c-0.395-0.428-1.114-0.829-2.163-1.203
				c-0.624-0.223-1.09-0.427-1.393-0.612s-0.518-0.387-0.646-0.608c-0.127-0.221-0.191-0.505-0.191-0.851
				c0-0.47,0.173-0.837,0.521-1.101c0.347-0.264,0.826-0.396,1.441-0.396c0.779,0,1.581,0.173,2.406,0.519l0.362-1.012
				c-0.834-0.364-1.747-0.547-2.741-0.547c-0.952,0-1.718,0.228-2.297,0.684s-0.868,1.069-0.868,1.839
				c0,0.734,0.199,1.328,0.598,1.784c0.399,0.456,1.063,0.85,1.993,1.183c0.665,0.237,1.161,0.449,1.487,0.635
				c0.326,0.187,0.558,0.391,0.695,0.612c0.141,0.221,0.208,0.505,0.208,0.851c0,0.524-0.193,0.933-0.587,1.227
				c-0.392,0.294-0.976,0.441-1.75,0.441c-0.474,0-0.953-0.05-1.436-0.15c-0.483-0.1-0.93-0.237-1.34-0.41v1.121
				c0.638,0.305,1.55,0.458,2.733,0.458c1.095,0,1.959-0.246,2.599-0.738c0.638-0.493,0.957-1.178,0.957-2.058
				C91.612,12.793,91.415,12.238,91.021,11.81 M82.165,6.143v6.508c0,0.838-0.229,1.482-0.685,1.931
				c-0.454,0.449-1.104,0.673-1.947,0.673c-0.885,0-1.556-0.223-2.01-0.67c-0.455-0.446-0.685-1.087-0.685-1.921V6.143h-1.162v6.439
				c0,1.149,0.329,2.051,0.987,2.707c0.659,0.657,1.59,0.985,2.793,0.985s2.148-0.326,2.837-0.978
				c0.688-0.651,1.032-1.547,1.032-2.686V6.143H82.165z"/>
		</g>
	</g>
</g>
</svg>
