<?xml version="1.0" encoding="utf-8"?>
<!-- Generator: Adobe Illustrator 15.1.0, SVG Export Plug-In . SVG Version: 6.00 Build 0)  -->
<!DOCTYPE svg PUBLIC "-//W3C//DTD SVG 1.1//EN" "http://www.w3.org/Graphics/SVG/1.1/DTD/svg11.dtd">
<svg version="1.1" id="Ebene_1" xmlns="http://www.w3.org/2000/svg" xmlns:xlink="http://www.w3.org/1999/xlink" x="0px" y="0px"
	 width="400px" height="70px" viewBox="0 0 400 70" enable-background="new 0 0 400 70" xml:space="preserve">
<g>
	<g>
		<g>
			<defs>
				<rect id="SVGID_1_" x="51.688" y="49.425" width="229.947" height="14.517"/>
			</defs>
			<clipPath id="SVGID_2_">
				<use xlink:href="#SVGID_1_"  overflow="visible"/>
			</clipPath>
			<path clip-path="url(#SVGID_2_)" fill="#697482" d="M270.939,55.029c0.317,0.38,0.479,0.928,0.479,1.644H267.5
				c0.064-0.692,0.275-1.233,0.633-1.627c0.357-0.392,0.838-0.588,1.439-0.588C270.164,54.458,270.621,54.648,270.939,55.029
				 M271.176,61.16c0.356-0.075,0.736-0.199,1.139-0.372v-1.013c-0.789,0.338-1.586,0.507-2.395,0.507
				c-0.765,0-1.357-0.228-1.779-0.685c-0.422-0.455-0.645-1.123-0.667-2.004h5.161v-0.717c0-1.012-0.272-1.827-0.819-2.443
				c-0.548-0.617-1.29-0.927-2.229-0.927c-1.002,0-1.801,0.354-2.396,1.066c-0.595,0.711-0.894,1.67-0.894,2.878
				c0,1.199,0.32,2.135,0.961,2.809c0.642,0.676,1.516,1.014,2.621,1.014C270.386,61.273,270.817,61.236,271.176,61.16
				 M259.42,59.592c-0.351-0.486-0.525-1.21-0.525-2.167c0-0.942,0.178-1.674,0.529-2.19c0.354-0.519,0.863-0.775,1.529-0.775
				c0.772,0,1.338,0.229,1.69,0.682c0.354,0.451,0.529,1.211,0.529,2.271v0.238c0,0.938-0.174,1.619-0.522,2.041
				s-0.91,0.633-1.687,0.633C260.287,60.323,259.771,60.079,259.42,59.592 M263.386,61.136h0.923V50.5h-1.135v3.049l0.027,0.526
				l0.047,0.54h-0.088c-0.543-0.738-1.322-1.107-2.338-1.107c-0.977,0-1.736,0.342-2.283,1.025c-0.547,0.683-0.82,1.643-0.82,2.878
				s0.271,2.188,0.816,2.856c0.545,0.67,1.307,1.006,2.287,1.006c1.043,0,1.826-0.381,2.352-1.143h0.062L263.386,61.136z
				 M254.476,61.119c0.151,0.145,0.346,0.216,0.577,0.216c0.261,0,0.465-0.08,0.615-0.239c0.15-0.158,0.227-0.388,0.227-0.684
				c0-0.305-0.074-0.537-0.223-0.694c-0.147-0.155-0.354-0.235-0.619-0.235c-0.26,0-0.459,0.08-0.598,0.235
				c-0.14,0.157-0.209,0.39-0.209,0.694C254.246,60.74,254.322,60.977,254.476,61.119 M250.78,55.029
				c0.318,0.38,0.478,0.928,0.478,1.644h-3.916c0.063-0.692,0.275-1.233,0.633-1.627c0.357-0.392,0.838-0.588,1.439-0.588
				C250.006,54.458,250.461,54.648,250.78,55.029 M251.017,61.16c0.356-0.075,0.737-0.199,1.139-0.372v-1.013
				c-0.789,0.338-1.586,0.507-2.394,0.507c-0.766,0-1.358-0.228-1.78-0.685c-0.422-0.455-0.644-1.123-0.666-2.004h5.16v-0.717
				c0-1.012-0.271-1.827-0.819-2.443c-0.547-0.617-1.29-0.927-2.229-0.927c-1.002,0-1.801,0.354-2.396,1.066
				c-0.594,0.711-0.893,1.67-0.893,2.878c0,1.199,0.32,2.135,0.961,2.809c0.641,0.676,1.515,1.014,2.621,1.014
				C250.227,61.273,250.658,61.236,251.017,61.16 M242.885,55.189c0.342,0.479,0.514,1.205,0.514,2.181
				c0,0.952-0.172,1.683-0.514,2.19s-0.86,0.763-1.559,0.763c-0.775,0-1.338-0.228-1.688-0.681s-0.525-1.207-0.525-2.26
				s0.172-1.802,0.512-2.244c0.342-0.445,0.9-0.668,1.676-0.668C242.015,54.473,242.543,54.711,242.885,55.189 M239.111,54.643
				h-0.056c0.037-0.459,0.056-0.979,0.056-1.559V50.5h-1.136v10.636h0.814l0.238-0.963h0.082c0.272,0.373,0.611,0.65,1.016,0.83
				c0.402,0.181,0.849,0.271,1.336,0.271c0.976,0,1.738-0.34,2.287-1.021s0.823-1.637,0.823-2.867s-0.272-2.182-0.817-2.854
				c-0.545-0.674-1.309-1.01-2.293-1.01C240.424,53.521,239.64,53.896,239.111,54.643 M234.388,53.904
				c-0.392,0.264-0.728,0.64-1.005,1.128h-0.055l-0.13-1.388h-0.938v7.49h1.136v-4.019c0-0.734,0.215-1.347,0.646-1.839
				s0.949-0.738,1.555-0.738c0.236,0,0.511,0.034,0.82,0.104l0.158-1.054c-0.267-0.055-0.563-0.082-0.896-0.082
				C235.211,53.508,234.779,53.641,234.388,53.904 M228.631,55.029c0.32,0.38,0.479,0.928,0.479,1.644h-3.917
				c0.063-0.692,0.272-1.233,0.633-1.627c0.356-0.392,0.838-0.588,1.438-0.588C227.856,54.458,228.312,54.648,228.631,55.029
				 M228.867,61.16c0.357-0.075,0.736-0.199,1.139-0.372v-1.013c-0.789,0.338-1.586,0.507-2.393,0.507
				c-0.767,0-1.359-0.228-1.781-0.685c-0.422-0.455-0.645-1.123-0.666-2.004h5.162v-0.717c0-1.012-0.274-1.827-0.822-2.443
				c-0.547-0.617-1.289-0.927-2.228-0.927c-1.003,0-1.802,0.354-2.396,1.066c-0.596,0.711-0.893,1.67-0.893,2.878
				c0,1.199,0.319,2.135,0.961,2.809c0.639,0.676,1.514,1.014,2.621,1.014C228.078,61.273,228.51,61.236,228.867,61.16
				 M220.36,61.136l2.845-7.491h-1.218c-0.931,2.553-1.528,4.209-1.795,4.967c-0.268,0.759-0.426,1.26-0.477,1.5h-0.053
				c-0.064-0.311-0.278-0.983-0.645-2.022l-1.611-4.442h-1.218l2.845,7.49L220.36,61.136L220.36,61.136z M208.797,55.34
				c0.336-0.41,0.799-0.615,1.393-0.615c0.388,0,0.744,0.047,1.072,0.137l-0.096,1.785c-0.082,1.427-0.595,2.14-1.539,2.14
				c-0.888,0-1.332-0.579-1.332-1.736C208.295,56.318,208.463,55.75,208.797,55.34 M214.737,53.531
				c-0.417-0.758-1.007-1.344-1.771-1.756c-0.764-0.414-1.635-0.619-2.614-0.619c-1.167,0-2.2,0.254-3.104,0.762
				c-0.901,0.508-1.597,1.227-2.084,2.15c-0.488,0.925-0.731,1.979-0.731,3.164c0,1.633,0.457,2.901,1.371,3.812
				c0.913,0.909,2.196,1.364,3.853,1.364c1.111,0,2.104-0.191,2.979-0.574v-0.909c-1.03,0.392-2.022,0.587-2.979,0.587
				c-1.381,0-2.438-0.371-3.172-1.119s-1.102-1.816-1.102-3.207c0-1.024,0.199-1.93,0.595-2.709
				c0.396-0.783,0.972-1.385,1.725-1.807c0.752-0.421,1.635-0.632,2.65-0.632c0.809,0,1.521,0.167,2.145,0.502
				c0.621,0.335,1.102,0.813,1.438,1.433c0.336,0.62,0.506,1.344,0.506,2.168c0,0.782-0.13,1.42-0.39,1.909
				c-0.26,0.49-0.598,0.735-1.012,0.735c-0.606,0-0.91-0.406-0.91-1.217v-0.15l0.172-3.213c-0.314-0.1-0.668-0.18-1.059-0.236
				c-0.394-0.057-0.744-0.085-1.055-0.085c-0.875,0-1.582,0.29-2.119,0.871s-0.807,1.337-0.807,2.267
				c0,0.803,0.192,1.438,0.577,1.903c0.386,0.468,0.92,0.701,1.604,0.701c0.466,0,0.867-0.11,1.206-0.335
				c0.341-0.223,0.602-0.533,0.783-0.93h0.055c0.051,0.369,0.209,0.672,0.479,0.908s0.601,0.355,0.992,0.355
				c0.474,0,0.894-0.146,1.258-0.443c0.365-0.298,0.646-0.715,0.848-1.252c0.2-0.537,0.302-1.131,0.302-1.777
				C215.363,55.164,215.154,54.29,214.737,53.531 M197.679,55.203c0.378-0.488,0.938-0.73,1.683-0.73
				c0.752,0,1.319,0.246,1.705,0.74c0.386,0.495,0.578,1.219,0.578,2.171c0,0.962-0.192,1.691-0.578,2.19s-0.948,0.749-1.692,0.749
				c-0.742,0-1.305-0.251-1.688-0.753c-0.383-0.5-0.573-1.229-0.573-2.188C197.111,56.417,197.301,55.691,197.679,55.203
				 M201.894,54.553c-0.617-0.695-1.45-1.045-2.499-1.045c-1.085,0-1.932,0.342-2.543,1.021c-0.61,0.682-0.916,1.633-0.916,2.854
				c0,0.788,0.142,1.478,0.425,2.064c0.281,0.588,0.684,1.038,1.202,1.354c0.52,0.315,1.113,0.472,1.784,0.472
				c1.085,0,1.936-0.342,2.55-1.028c0.615-0.685,0.924-1.64,0.924-2.86C202.819,56.193,202.511,55.251,201.894,54.553
				 M194.985,53.645h-1.907V53.16c0-0.629,0.103-1.086,0.308-1.371c0.204-0.284,0.522-0.428,0.95-0.428
				c0.311,0,0.684,0.072,1.121,0.213l0.293-0.909c-0.533-0.16-0.998-0.239-1.394-0.239c-1.608,0-2.413,0.92-2.413,2.762v0.418
				l-1.341,0.41v0.512h1.341v6.609h1.135v-6.609h1.907V53.645z M189.277,61.136v-4.887c0-0.957-0.229-1.651-0.685-2.089
				c-0.456-0.436-1.135-0.652-2.037-0.652c-0.515,0-0.981,0.102-1.4,0.305c-0.42,0.203-0.745,0.488-0.979,0.857h-0.054l-0.186-1.025
				h-0.923v7.491h1.136v-3.93c0-0.976,0.182-1.675,0.547-2.099c0.363-0.424,0.938-0.637,1.722-0.637c0.593,0,1.028,0.15,1.306,0.451
				c0.278,0.301,0.417,0.758,0.417,1.367v4.846L189.277,61.136L189.277,61.136z M179.57,52.186c0.127,0.125,0.287,0.188,0.478,0.188
				c0.184,0,0.34-0.062,0.472-0.188c0.133-0.125,0.198-0.315,0.198-0.57c0-0.256-0.065-0.444-0.198-0.567
				c-0.132-0.123-0.288-0.185-0.472-0.185c-0.19,0-0.351,0.061-0.478,0.181c-0.128,0.121-0.192,0.312-0.192,0.571
				C179.378,51.869,179.442,52.061,179.57,52.186 M180.609,53.645h-1.136v7.491h1.136V53.645z M172.352,59.51
				c-0.059,0.42-0.162,0.979-0.311,1.676c-0.148,0.696-0.284,1.281-0.407,1.756h0.855c0.241-0.52,0.474-1.08,0.696-1.686
				c0.224-0.604,0.395-1.133,0.514-1.589l-0.104-0.157H172.352z M164.626,57.809l3.124-4.443c0.192-0.287,0.396-0.649,0.616-1.088
				h0.054c-0.045,0.82-0.068,1.557-0.068,2.209v3.322H164.626z M170.922,57.809h-1.482v-6.721h-1.203l-4.744,6.762v0.99h4.859v2.296
				h1.088V58.84h1.482V57.809L170.922,57.809z M161.264,51.665c-0.538-0.442-1.292-0.666-2.263-0.666
				c-0.592,0-1.156,0.092-1.691,0.276s-1.009,0.438-1.419,0.763l0.574,0.765c0.497-0.316,0.939-0.535,1.326-0.654
				c0.388-0.119,0.8-0.18,1.238-0.18c0.573,0,1.028,0.141,1.363,0.417c0.335,0.278,0.502,0.661,0.502,1.149
				c0,0.611-0.228,1.088-0.684,1.432c-0.455,0.346-1.073,0.518-1.852,0.518h-0.998v0.978h0.983c1.905,0,2.858,0.606,2.858,1.817
				c0,1.354-0.864,2.031-2.591,2.031c-0.438,0-0.901-0.057-1.392-0.168s-0.952-0.274-1.385-0.488v1.08
				c0.415,0.201,0.842,0.341,1.282,0.42c0.439,0.08,0.924,0.119,1.453,0.119c1.217,0,2.154-0.256,2.815-0.77
				c0.661-0.513,0.991-1.245,0.991-2.197c0-0.664-0.193-1.203-0.581-1.613c-0.387-0.409-0.982-0.664-1.784-0.767v-0.054
				c0.656-0.137,1.163-0.408,1.521-0.812c0.357-0.406,0.537-0.929,0.537-1.565C162.07,52.719,161.801,52.109,161.264,51.665
				 M152.077,51.143h-0.957l-2.646,2.045l0.603,0.778c0.966-0.782,1.508-1.229,1.627-1.333c0.118-0.104,0.225-0.206,0.321-0.301
				c-0.037,0.527-0.056,1.089-0.056,1.682v7.122h1.108V51.143z M144.226,52.318c0.335,0.231,0.596,0.552,0.782,0.957
				c0.188,0.406,0.281,0.848,0.281,1.326c0,0.317-0.101,0.625-0.301,0.916c-0.201,0.291-0.476,0.521-0.824,0.689
				c-0.349,0.168-0.73,0.253-1.145,0.253c-0.671,0-1.17-0.188-1.497-0.563c-0.328-0.375-0.492-0.893-0.492-1.549
				c0-0.746,0.178-1.33,0.533-1.75c0.354-0.418,0.858-0.63,1.511-0.63C143.506,51.969,143.891,52.086,144.226,52.318
				 M146.026,53.046c-0.274-0.667-0.664-1.176-1.174-1.522c-0.508-0.351-1.101-0.523-1.779-0.523c-0.948,0-1.713,0.301-2.294,0.902
				c-0.581,0.601-0.871,1.422-0.871,2.461c0,0.947,0.259,1.686,0.778,2.215c0.521,0.529,1.222,0.793,2.105,0.793
				c0.52,0,0.987-0.1,1.402-0.297c0.414-0.199,0.747-0.487,0.998-0.865h0.082c-0.051,1.398-0.355,2.438-0.913,3.114
				c-0.559,0.676-1.385,1.015-2.479,1.015c-0.465,0-0.879-0.061-1.244-0.178v0.977c0.311,0.094,0.729,0.139,1.259,0.139
				c3.025,0,4.538-1.955,4.538-5.865C146.438,54.501,146.299,53.714,146.026,53.046 M132.43,51.143h-0.957l-2.645,2.045l0.601,0.778
				c0.966-0.782,1.51-1.229,1.627-1.333c0.119-0.104,0.227-0.206,0.321-0.301c-0.036,0.527-0.054,1.089-0.054,1.682v7.122h1.106
				V51.143L132.43,51.143z M122.744,61.136l4.088-9.084v-0.909h-6.652v1.047h5.448l-4.142,8.946H122.744z M112.96,57.809
				l3.124-4.443c0.192-0.287,0.397-0.649,0.616-1.088h0.054c-0.045,0.82-0.068,1.557-0.068,2.209v3.322H112.96z M119.256,57.809
				h-1.482v-6.721h-1.203l-4.744,6.762v0.99h4.859v2.296h1.088V58.84h1.482V57.809z M104.957,57.809l3.124-4.443
				c0.191-0.287,0.396-0.649,0.615-1.088h0.054c-0.045,0.82-0.068,1.557-0.068,2.209v3.322H104.957z M111.251,57.809h-1.483v-6.721
				h-1.202l-4.744,6.762v0.99h4.859v2.296h1.087V58.84h1.483V57.809z M101.069,61.119c0.152,0.145,0.346,0.216,0.578,0.216
				c0.26,0,0.465-0.08,0.614-0.239c0.151-0.158,0.227-0.388,0.227-0.684c0-0.305-0.074-0.537-0.223-0.694
				c-0.148-0.155-0.354-0.235-0.618-0.235c-0.261,0-0.459,0.08-0.599,0.235c-0.139,0.157-0.209,0.39-0.209,0.694
				C100.84,60.74,100.917,60.977,101.069,61.119 M94.155,52.957c0.342-0.658,0.886-0.988,1.634-0.988
				c0.756,0,1.304,0.334,1.644,1.004c0.34,0.668,0.51,1.719,0.51,3.153s-0.17,2.489-0.51,3.161c-0.34,0.673-0.888,1.009-1.644,1.009
				c-0.748,0-1.292-0.332-1.634-0.995c-0.343-0.662-0.514-1.721-0.514-3.175S93.812,53.616,94.155,52.957 M98.261,52.305
				c-0.562-0.88-1.387-1.318-2.471-1.318c-1.112,0-1.94,0.422-2.482,1.265s-0.812,2.135-0.812,3.876c0,1.688,0.28,2.965,0.84,3.838
				c0.562,0.873,1.379,1.311,2.455,1.311c1.121,0,1.953-0.426,2.498-1.278s0.816-2.142,0.816-3.869
				C99.104,54.458,98.823,53.186,98.261,52.305 M89.862,51.665c-0.538-0.442-1.292-0.666-2.264-0.666
				c-0.592,0-1.155,0.092-1.691,0.276c-0.535,0.185-1.008,0.438-1.418,0.763l0.574,0.765c0.496-0.316,0.938-0.535,1.325-0.654
				c0.388-0.119,0.801-0.18,1.237-0.18c0.575,0,1.029,0.141,1.364,0.417c0.335,0.278,0.503,0.661,0.503,1.149
				c0,0.611-0.229,1.088-0.685,1.432c-0.455,0.346-1.072,0.518-1.852,0.518h-0.999v0.978h0.985c1.904,0,2.856,0.606,2.856,1.817
				c0,1.354-0.862,2.031-2.591,2.031c-0.437,0-0.901-0.057-1.391-0.168c-0.49-0.111-0.951-0.274-1.385-0.488v1.08
				c0.415,0.201,0.843,0.341,1.282,0.42c0.44,0.08,0.924,0.119,1.452,0.119c1.217,0,2.156-0.256,2.817-0.77
				c0.661-0.513,0.99-1.245,0.99-2.197c0-0.664-0.193-1.203-0.581-1.613c-0.387-0.409-0.981-0.664-1.783-0.767v-0.054
				c0.655-0.137,1.163-0.408,1.521-0.812c0.358-0.406,0.536-0.929,0.536-1.565C90.668,52.719,90.399,52.109,89.862,51.665
				 M78.146,52.957c0.342-0.658,0.886-0.988,1.634-0.988c0.756,0,1.304,0.334,1.644,1.004c0.339,0.668,0.509,1.719,0.509,3.153
				s-0.17,2.489-0.509,3.161c-0.34,0.673-0.888,1.009-1.644,1.009c-0.748,0-1.292-0.332-1.634-0.995
				c-0.343-0.662-0.514-1.721-0.514-3.175S77.804,53.616,78.146,52.957 M82.25,52.305c-0.562-0.88-1.387-1.318-2.471-1.318
				c-1.112,0-1.939,0.422-2.482,1.265c-0.542,0.843-0.812,2.135-0.812,3.876c0,1.688,0.279,2.965,0.841,3.838
				c0.56,0.873,1.378,1.311,2.454,1.311c1.121,0,1.954-0.426,2.498-1.278c0.545-0.853,0.816-2.142,0.816-3.869
				C83.095,54.458,82.812,53.186,82.25,52.305 M65.52,52.906h2.715v-1.764h-7.548v1.764h2.715v8.229h2.118V52.906L65.52,52.906z"/>
		</g>
	</g>
</g>
<g>
	<g>
		<g>
			<defs>
				<rect id="SVGID_3_" x="52.78" y="27.425" width="294.438" height="14.517"/>
			</defs>
			<clipPath id="SVGID_4_">
				<use xlink:href="#SVGID_3_"  overflow="visible"/>
			</clipPath>
			<path clip-path="url(#SVGID_4_)" fill="#697482" d="M338.219,39.137v-4.888c0-0.957-0.228-1.652-0.684-2.089
				c-0.456-0.435-1.135-0.652-2.037-0.652c-0.515,0-0.982,0.102-1.401,0.305c-0.42,0.202-0.745,0.488-0.978,0.857h-0.055
				l-0.186-1.025h-0.923v7.492h1.135v-3.931c0-0.976,0.184-1.675,0.547-2.099c0.364-0.424,0.938-0.636,1.724-0.636
				c0.593,0,1.026,0.15,1.306,0.451c0.279,0.301,0.417,0.757,0.417,1.367v4.847L338.219,39.137L338.219,39.137z M328.512,30.186
				c0.127,0.125,0.287,0.188,0.479,0.188c0.182,0,0.34-0.062,0.472-0.188s0.198-0.316,0.198-0.571c0-0.255-0.066-0.444-0.198-0.568
				c-0.132-0.123-0.29-0.184-0.472-0.184c-0.191,0-0.353,0.06-0.479,0.181c-0.128,0.121-0.19,0.311-0.19,0.571
				C328.32,29.869,328.384,30.06,328.512,30.186 M329.551,31.645h-1.135v7.492h1.135V31.645z M321.631,38.016
				c-0.248-0.214-0.372-0.525-0.372-0.937c0-0.522,0.199-0.911,0.6-1.159c0.397-0.247,1.049-0.388,1.95-0.42l1.136-0.048v0.678
				c0,0.696-0.201,1.238-0.605,1.626c-0.401,0.389-0.958,0.581-1.664,0.581C322.229,38.337,321.88,38.229,321.631,38.016
				 M326.078,39.137v-5.113c0-0.875-0.215-1.511-0.646-1.907c-0.431-0.396-1.093-0.595-1.984-0.595
				c-0.442,0-0.883,0.057-1.323,0.171c-0.439,0.114-0.844,0.271-1.213,0.472l0.349,0.868c0.788-0.383,1.494-0.574,2.119-0.574
				c0.557,0,0.96,0.141,1.213,0.42c0.253,0.28,0.38,0.715,0.38,1.303v0.465l-1.271,0.041c-2.42,0.073-3.63,0.867-3.63,2.378
				c0,0.707,0.211,1.252,0.633,1.635c0.421,0.383,1.003,0.574,1.746,0.574c0.556,0,1.02-0.084,1.391-0.25
				c0.372-0.166,0.744-0.484,1.118-0.953h0.055l0.227,1.066h0.838V39.137z M313.521,39.137l3.418-8.846h0.055
				c-0.064,0.866-0.096,1.668-0.096,2.406v6.439h1.16v-9.994h-1.734l-3.192,8.244h-0.055l-3.165-8.244h-1.75v9.994h1.073v-6.357
				c0-0.966-0.032-1.8-0.097-2.502h0.056l3.391,8.859L313.521,39.137L313.521,39.137z M305.509,29.143l-3.726,9.994h1.135
				l3.725-9.994H305.509z M299.445,37.975c-0.214-0.24-0.321-0.588-0.321-1.039v-4.409h2.174v-0.882h-2.174v-1.736h-0.656
				l-0.479,1.6l-1.073,0.472v0.547h1.073v4.457c0,1.527,0.725,2.291,2.174,2.291c0.19,0,0.407-0.02,0.646-0.059
				c0.239-0.039,0.422-0.089,0.543-0.146V38.2c-0.107,0.032-0.257,0.062-0.442,0.092c-0.188,0.03-0.38,0.045-0.581,0.045
				C299.953,38.337,299.659,38.217,299.445,37.975 M294.318,31.904c-0.394,0.264-0.729,0.64-1.006,1.128h-0.055l-0.13-1.388h-0.937
				v7.492h1.135v-4.02c0-0.733,0.215-1.347,0.646-1.839c0.433-0.492,0.949-0.738,1.557-0.738c0.235,0,0.511,0.034,0.819,0.103
				l0.157-1.053c-0.265-0.055-0.562-0.082-0.896-0.082C295.141,31.508,294.71,31.641,294.318,31.904 M283.518,31.645v4.902
				c0,0.951,0.228,1.645,0.682,2.077c0.452,0.435,1.136,0.649,2.047,0.649c0.528,0,0.999-0.099,1.412-0.295
				c0.412-0.195,0.734-0.479,0.967-0.848h0.062l0.163,1.005h0.938v-7.492h-1.136v3.938c0,0.971-0.181,1.67-0.543,2.1
				c-0.361,0.428-0.937,0.643-1.72,0.643c-0.593,0-1.026-0.15-1.306-0.451s-0.417-0.757-0.417-1.367v-4.86L283.518,31.645
				L283.518,31.645z M282.232,31.645h-1.907V31.16c0-0.629,0.103-1.086,0.308-1.371s0.522-0.427,0.95-0.427
				c0.31,0,0.685,0.071,1.121,0.212l0.294-0.909c-0.533-0.16-0.998-0.24-1.396-0.24c-1.607,0-2.413,0.921-2.413,2.762v0.417
				l-1.341,0.41v0.513h1.341v6.61h1.136v-6.61h1.907V31.645L282.232,31.645z M272.573,35.302c0.037-0.524,0.055-0.911,0.055-1.162
				V28.5h-1.121v10.636h1.121v-2.803l0.854-0.737l2.646,3.54h1.374l-3.247-4.3l3.035-3.192h-1.347l-2.42,2.563
				c-0.401,0.451-0.699,0.814-0.896,1.094L272.573,35.302L272.573,35.302z M269.176,39.137v-4.888c0-0.957-0.228-1.652-0.684-2.089
				c-0.456-0.435-1.135-0.652-2.037-0.652c-0.516,0-0.982,0.102-1.4,0.305c-0.42,0.202-0.746,0.488-0.979,0.857h-0.055l-0.186-1.025
				h-0.923v7.492h1.135v-3.931c0-0.976,0.183-1.675,0.547-2.099c0.364-0.424,0.938-0.636,1.724-0.636
				c0.593,0,1.026,0.15,1.306,0.451c0.279,0.301,0.417,0.757,0.417,1.367v4.847L269.176,39.137L269.176,39.137z M256.129,38.016
				c-0.248-0.214-0.372-0.525-0.372-0.937c0-0.522,0.199-0.911,0.6-1.159c0.397-0.247,1.049-0.388,1.95-0.42l1.136-0.048v0.678
				c0,0.696-0.201,1.238-0.605,1.626c-0.401,0.389-0.958,0.581-1.664,0.581C256.725,38.337,256.378,38.229,256.129,38.016
				 M260.576,39.137v-5.113c0-0.875-0.215-1.511-0.646-1.907c-0.431-0.396-1.093-0.595-1.984-0.595
				c-0.442,0-0.885,0.057-1.323,0.171c-0.439,0.114-0.844,0.271-1.213,0.472l0.349,0.868c0.788-0.383,1.494-0.574,2.119-0.574
				c0.556,0,0.96,0.141,1.213,0.42c0.253,0.28,0.38,0.715,0.38,1.303v0.465l-1.271,0.041c-2.42,0.073-3.631,0.867-3.631,2.378
				c0,0.707,0.212,1.252,0.634,1.635c0.421,0.383,1.003,0.574,1.746,0.574c0.556,0,1.02-0.084,1.391-0.25
				c0.372-0.166,0.744-0.484,1.118-0.953h0.055l0.227,1.066h0.838V39.137z M251.539,31.904c-0.393,0.264-0.727,0.64-1.005,1.128
				h-0.057l-0.129-1.388h-0.937v7.492h1.135v-4.02c0-0.733,0.216-1.347,0.646-1.839c0.43-0.492,0.947-0.738,1.555-0.738
				c0.237,0,0.511,0.034,0.82,0.103l0.156-1.053c-0.265-0.055-0.562-0.082-0.896-0.082
				C252.362,31.508,251.932,31.641,251.539,31.904 M243.52,34.864h4.145v-1.032h-4.145v-3.657h4.41v-1.032h-5.571v9.994h1.161
				V34.864L243.52,34.864z M234.385,30.318c0.334,0.232,0.597,0.551,0.782,0.957c0.186,0.406,0.28,0.848,0.28,1.326
				c0,0.318-0.101,0.625-0.301,0.916c-0.2,0.292-0.477,0.521-0.823,0.69c-0.35,0.168-0.731,0.253-1.146,0.253
				c-0.67,0-1.168-0.188-1.496-0.563c-0.33-0.376-0.493-0.893-0.493-1.549c0-0.747,0.179-1.33,0.534-1.75
				c0.354-0.419,0.858-0.629,1.511-0.629C233.665,29.97,234.049,30.086,234.385,30.318 M236.186,31.047
				c-0.272-0.669-0.664-1.177-1.172-1.524c-0.509-0.349-1.103-0.523-1.78-0.523c-0.948,0-1.714,0.3-2.294,0.902
				c-0.581,0.602-0.872,1.422-0.872,2.461c0,0.948,0.261,1.687,0.78,2.215c0.52,0.527,1.222,0.793,2.104,0.793
				c0.521,0,0.987-0.1,1.4-0.298c0.414-0.198,0.748-0.486,0.998-0.864h0.082c-0.051,1.398-0.354,2.438-0.912,3.113
				c-0.559,0.677-1.385,1.016-2.479,1.016c-0.465,0-0.88-0.061-1.244-0.178v0.979c0.312,0.09,0.729,0.137,1.258,0.137
				c3.026,0,4.539-1.955,4.539-5.865C236.596,32.501,236.459,31.715,236.186,31.047 M228.592,38.084h-5.142v-0.055l2.188-2.141
				c0.976-0.948,1.641-1.73,1.996-2.352c0.354-0.62,0.532-1.247,0.532-1.88c0-0.811-0.268-1.457-0.8-1.938
				c-0.533-0.481-1.271-0.721-2.208-0.721c-1.085,0-2.087,0.382-3.01,1.148l0.604,0.772c0.455-0.359,0.869-0.608,1.241-0.745
				c0.371-0.137,0.764-0.205,1.179-0.205c0.574,0,1.023,0.155,1.347,0.469c0.324,0.312,0.485,0.734,0.485,1.268
				c0,0.378-0.062,0.731-0.192,1.06c-0.127,0.328-0.317,0.666-0.572,1.012c-0.255,0.346-0.784,0.925-1.586,1.737l-2.633,2.646v0.978
				h6.57L228.592,38.084L228.592,38.084z M218.374,30.318c0.335,0.232,0.597,0.551,0.783,0.957c0.186,0.406,0.28,0.848,0.28,1.326
				c0,0.318-0.102,0.625-0.302,0.916c-0.2,0.292-0.475,0.521-0.823,0.69c-0.35,0.168-0.729,0.253-1.146,0.253
				c-0.67,0-1.169-0.188-1.497-0.563c-0.327-0.376-0.491-0.893-0.491-1.549c0-0.747,0.177-1.33,0.532-1.75
				c0.354-0.419,0.859-0.629,1.511-0.629C217.655,29.97,218.039,30.086,218.374,30.318 M220.176,31.047
				c-0.272-0.669-0.664-1.177-1.173-1.524c-0.508-0.349-1.101-0.523-1.78-0.523c-0.946,0-1.713,0.3-2.293,0.902
				c-0.582,0.602-0.871,1.422-0.871,2.461c0,0.948,0.259,1.687,0.778,2.215c0.52,0.527,1.222,0.793,2.104,0.793
				c0.521,0,0.987-0.1,1.401-0.298s0.748-0.486,0.998-0.864h0.082c-0.05,1.398-0.354,2.438-0.912,3.113
				c-0.559,0.677-1.385,1.016-2.479,1.016c-0.465,0-0.879-0.061-1.244-0.178v0.979c0.311,0.09,0.729,0.137,1.258,0.137
				c3.026,0,4.539-1.955,4.539-5.865C220.586,32.501,220.449,31.715,220.176,31.047 M207.57,33.189l0.253-3.001h3.999v-1.046h-4.972
				l-0.375,4.676l0.589,0.376c0.725-0.132,1.304-0.198,1.735-0.198c1.709,0,2.563,0.697,2.563,2.091
				c0,0.718-0.223,1.265-0.666,1.642c-0.445,0.379-1.068,0.568-1.87,0.568c-0.46,0-0.928-0.061-1.4-0.176
				c-0.475-0.115-0.871-0.275-1.189-0.48v1.094c0.593,0.359,1.452,0.539,2.577,0.539c1.157,0,2.064-0.293,2.724-0.881
				s0.987-1.399,0.987-2.435c0-0.906-0.302-1.622-0.904-2.143c-0.604-0.522-1.434-0.783-2.484-0.783
				C208.616,33.032,208.094,33.084,207.57,33.189 M200.334,37.954c-0.335-0.236-0.593-0.558-0.775-0.964
				c-0.182-0.406-0.272-0.844-0.272-1.312c0-0.318,0.102-0.626,0.304-0.923c0.203-0.297,0.477-0.528,0.817-0.697
				c0.342-0.168,0.718-0.253,1.128-0.253c0.661,0,1.157,0.188,1.489,0.567c0.334,0.378,0.5,0.897,0.5,1.56
				c0,0.77-0.181,1.358-0.536,1.767c-0.358,0.407-0.861,0.612-1.51,0.612C201.051,38.311,200.669,38.191,200.334,37.954
				 M199.032,38.107c0.605,0.777,1.426,1.166,2.461,1.166c0.966,0,1.732-0.297,2.3-0.893c0.568-0.596,0.852-1.412,0.852-2.451
				c0-0.93-0.258-1.665-0.774-2.208c-0.519-0.542-1.226-0.813-2.123-0.813c-1.085,0-1.878,0.393-2.379,1.176h-0.082
				c0.055-1.431,0.365-2.48,0.93-3.147c0.565-0.668,1.383-1.002,2.454-1.002c0.451,0,0.854,0.057,1.203,0.171V29.13
				c-0.296-0.087-0.702-0.13-1.217-0.13c-1.495,0-2.624,0.486-3.389,1.458c-0.763,0.974-1.145,2.442-1.145,4.406
				C198.123,36.249,198.426,37.331,199.032,38.107 M191.403,37.51c-0.061,0.42-0.163,0.979-0.312,1.676
				c-0.146,0.696-0.283,1.282-0.406,1.756h0.854c0.241-0.52,0.474-1.08,0.697-1.685c0.223-0.604,0.394-1.135,0.513-1.59
				l-0.104-0.157H191.403z M185.456,39.137l4.088-9.085v-0.909h-6.652v1.046h5.45l-4.144,8.948H185.456z M179.133,29.143h-0.957
				l-2.646,2.044l0.602,0.779c0.966-0.783,1.508-1.229,1.627-1.333c0.118-0.104,0.226-0.205,0.321-0.301
				c-0.037,0.528-0.055,1.09-0.055,1.682v7.123h1.107V29.143z M168.151,39.119c0.151,0.145,0.345,0.216,0.577,0.216
				c0.26,0,0.465-0.079,0.615-0.239c0.15-0.158,0.226-0.388,0.226-0.684c0-0.307-0.074-0.537-0.223-0.693
				c-0.147-0.156-0.354-0.236-0.618-0.236c-0.26,0-0.459,0.08-0.599,0.236c-0.139,0.156-0.208,0.389-0.208,0.693
				C167.922,38.74,167.998,38.977,168.151,39.119 M164.497,31.904c-0.392,0.264-0.728,0.64-1.005,1.128h-0.055l-0.13-1.388h-0.937
				v7.492h1.135v-4.02c0-0.733,0.215-1.347,0.646-1.839c0.43-0.492,0.948-0.738,1.555-0.738c0.237,0,0.51,0.034,0.82,0.103
				l0.156-1.053c-0.264-0.055-0.562-0.082-0.895-0.082C165.32,31.508,164.889,31.641,164.497,31.904 M158.967,37.975
				c-0.215-0.24-0.322-0.588-0.322-1.039v-4.409h2.175v-0.882h-2.175v-1.736h-0.655l-0.479,1.6l-1.074,0.472v0.547h1.074v4.457
				c0,1.527,0.725,2.291,2.173,2.291c0.192,0,0.407-0.02,0.646-0.059c0.24-0.039,0.421-0.089,0.544-0.146V38.2
				c-0.109,0.032-0.258,0.062-0.444,0.092s-0.381,0.045-0.581,0.045C159.475,38.337,159.181,38.217,158.967,37.975 M154.964,34.81
				c-0.394-0.428-1.115-0.829-2.163-1.203c-0.625-0.223-1.088-0.427-1.391-0.612c-0.305-0.184-0.52-0.387-0.646-0.607
				c-0.128-0.222-0.191-0.505-0.191-0.852c0-0.47,0.173-0.836,0.52-1.101c0.346-0.265,0.827-0.396,1.442-0.396
				c0.778,0,1.581,0.173,2.406,0.52l0.362-1.013c-0.834-0.363-1.748-0.545-2.742-0.545c-0.951,0-1.718,0.228-2.296,0.683
				c-0.579,0.456-0.869,1.068-0.869,1.839c0,0.734,0.2,1.329,0.6,1.784c0.397,0.456,1.062,0.85,1.992,1.183
				c0.666,0.237,1.161,0.449,1.486,0.636c0.326,0.188,0.559,0.392,0.697,0.61c0.139,0.223,0.209,0.506,0.209,0.853
				c0,0.524-0.196,0.935-0.588,1.228c-0.392,0.295-0.975,0.44-1.75,0.44c-0.474,0-0.953-0.051-1.437-0.149
				c-0.482-0.1-0.929-0.237-1.339-0.41v1.121c0.639,0.305,1.55,0.457,2.734,0.457c1.094,0,1.959-0.246,2.598-0.737
				c0.639-0.492,0.957-1.179,0.957-2.058C155.556,35.794,155.358,35.238,154.964,34.81 M147.968,34.864h-3.355v1.038h3.355V34.864z
				 M141.836,37.975c-0.214-0.24-0.321-0.588-0.321-1.039v-4.409h2.173v-0.882h-2.173v-1.736h-0.656l-0.479,1.6l-1.073,0.472v0.547
				h1.073v4.457c0,1.527,0.724,2.291,2.174,2.291c0.191,0,0.406-0.02,0.646-0.059c0.239-0.039,0.42-0.089,0.543-0.146V38.2
				c-0.109,0.032-0.257,0.062-0.444,0.092c-0.187,0.03-0.381,0.045-0.581,0.045C142.344,38.337,142.05,38.217,141.836,37.975
				 M136.893,37.975c-0.214-0.24-0.32-0.588-0.32-1.039v-4.409h2.174v-0.882h-2.174v-1.736h-0.656l-0.479,1.6l-1.072,0.472v0.547
				h1.072v4.457c0,1.527,0.726,2.291,2.175,2.291c0.191,0,0.406-0.02,0.646-0.059s0.421-0.089,0.544-0.146V38.2
				c-0.109,0.032-0.258,0.062-0.444,0.092c-0.188,0.03-0.381,0.045-0.581,0.045C137.402,38.337,137.108,38.217,136.893,37.975
				 M128.571,38.016c-0.249-0.214-0.373-0.525-0.373-0.937c0-0.522,0.199-0.911,0.598-1.159c0.399-0.247,1.05-0.388,1.952-0.42
				l1.135-0.048v0.678c0,0.696-0.202,1.238-0.604,1.626c-0.404,0.389-0.958,0.581-1.665,0.581
				C129.166,38.337,128.819,38.229,128.571,38.016 M133.017,39.137v-5.113c0-0.875-0.215-1.511-0.646-1.907
				c-0.43-0.396-1.092-0.595-1.985-0.595c-0.441,0-0.883,0.057-1.322,0.171c-0.44,0.114-0.845,0.271-1.214,0.472l0.349,0.868
				c0.789-0.383,1.495-0.574,2.119-0.574c0.556,0,0.961,0.141,1.214,0.42c0.253,0.28,0.379,0.715,0.379,1.303v0.465l-1.271,0.041
				c-2.42,0.073-3.63,0.867-3.63,2.378c0,0.707,0.21,1.252,0.632,1.635c0.421,0.383,1.004,0.574,1.747,0.574
				c0.557,0,1.02-0.084,1.392-0.25c0.371-0.166,0.744-0.484,1.116-0.953h0.056l0.226,1.066h0.84V39.137z M125.163,28.5h-1.135
				v10.637h1.135V28.5z M118.402,34.939h2.235v3.077c-0.661,0.159-1.338,0.238-2.03,0.238c-1.276,0-2.243-0.35-2.902-1.046
				c-0.658-0.697-0.987-1.722-0.987-3.069c0-1.285,0.341-2.29,1.025-3.015c0.684-0.725,1.634-1.087,2.851-1.087
				c0.834,0,1.702,0.191,2.604,0.574l0.451-1.024c-0.921-0.393-1.914-0.588-2.98-0.588c-1.053,0-1.971,0.206-2.755,0.618
				c-0.784,0.413-1.384,1.01-1.801,1.791c-0.417,0.782-0.626,1.692-0.626,2.731c0,1.623,0.422,2.884,1.265,3.784
				s2.021,1.351,3.534,1.351c0.72,0,1.354-0.043,1.899-0.131c0.548-0.086,1.085-0.213,1.614-0.383V33.9h-3.397V34.939
				L118.402,34.939z M112.058,34.864h-3.355v1.038h3.355V34.864z M102.037,37.592c-0.352-0.486-0.526-1.21-0.526-2.167
				c0-0.943,0.176-1.674,0.529-2.191s0.863-0.775,1.528-0.775c0.774,0,1.339,0.227,1.691,0.681c0.354,0.453,0.53,1.211,0.53,2.272
				v0.238c0,0.939-0.174,1.619-0.523,2.041c-0.349,0.422-0.909,0.633-1.685,0.633C102.903,38.323,102.388,38.079,102.037,37.592
				 M106.002,39.137h0.923V28.5h-1.135v3.048l0.027,0.526l0.048,0.54h-0.089c-0.542-0.738-1.321-1.107-2.338-1.107
				c-0.976,0-1.736,0.342-2.283,1.025c-0.547,0.684-0.82,1.644-0.82,2.878s0.272,2.188,0.817,2.857
				c0.544,0.67,1.306,1.004,2.286,1.004c1.044,0,1.827-0.379,2.352-1.142h0.061L106.002,39.137z M93.967,38.016
				c-0.248-0.214-0.372-0.525-0.372-0.937c0-0.522,0.199-0.911,0.599-1.159c0.398-0.247,1.049-0.388,1.95-0.42l1.136-0.048v0.678
				c0,0.696-0.201,1.238-0.605,1.626c-0.403,0.389-0.958,0.581-1.664,0.581C94.562,38.337,94.216,38.229,93.967,38.016
				 M98.414,39.137v-5.113c0-0.875-0.215-1.511-0.646-1.907c-0.431-0.396-1.093-0.595-1.985-0.595c-0.442,0-0.883,0.057-1.323,0.171
				c-0.439,0.114-0.844,0.271-1.213,0.472l0.349,0.868c0.788-0.383,1.494-0.574,2.119-0.574c0.556,0,0.96,0.141,1.213,0.42
				c0.253,0.28,0.38,0.715,0.38,1.303v0.465l-1.271,0.041c-2.42,0.073-3.63,0.867-3.63,2.378c0,0.707,0.211,1.252,0.632,1.635
				c0.422,0.383,1.004,0.574,1.747,0.574c0.556,0,1.02-0.084,1.391-0.25c0.372-0.166,0.744-0.484,1.118-0.953h0.055l0.226,1.066
				h0.841V39.137z M89.377,31.904c-0.392,0.264-0.727,0.64-1.005,1.128h-0.055l-0.13-1.388h-0.937v7.492h1.135v-4.02
				c0-0.733,0.215-1.347,0.646-1.839c0.43-0.492,0.949-0.738,1.555-0.738c0.237,0,0.51,0.034,0.82,0.103l0.157-1.053
				c-0.265-0.055-0.563-0.082-0.896-0.082C90.199,31.508,89.769,31.641,89.377,31.904 M84.92,39.137v-4.888
				c0-0.957-0.228-1.652-0.684-2.089c-0.456-0.435-1.136-0.652-2.037-0.652c-0.516,0-0.982,0.102-1.401,0.305
				c-0.42,0.202-0.745,0.488-0.978,0.857h-0.055l-0.185-1.025h-0.923v7.492h1.135v-3.931c0-0.976,0.182-1.675,0.547-2.099
				c0.364-0.424,0.939-0.636,1.723-0.636c0.593,0,1.027,0.15,1.306,0.451c0.278,0.301,0.417,0.757,0.417,1.367v4.847L84.92,39.137
				L84.92,39.137z M71.528,33.203c0.378-0.487,0.938-0.731,1.682-0.731c0.752,0,1.32,0.248,1.705,0.742
				c0.385,0.494,0.578,1.218,0.578,2.17c0,0.962-0.193,1.691-0.578,2.19s-0.949,0.749-1.691,0.749s-1.306-0.251-1.688-0.753
				c-0.383-0.5-0.574-1.229-0.574-2.188C70.961,34.417,71.15,33.69,71.528,33.203 M75.743,32.554
				c-0.618-0.697-1.451-1.046-2.499-1.046c-1.085,0-1.932,0.341-2.543,1.021c-0.611,0.682-0.916,1.633-0.916,2.854
				c0,0.789,0.141,1.477,0.424,2.064c0.282,0.588,0.683,1.039,1.203,1.354c0.52,0.315,1.114,0.473,1.784,0.473
				c1.085,0,1.935-0.344,2.55-1.029s0.923-1.639,0.923-2.86C76.669,34.194,76.36,33.251,75.743,32.554 M64.829,33.483l4.02-4.341
				h-1.374l-4.532,4.956v-4.956H61.78v9.995h1.162v-3.916l1.046-0.931l3.644,4.847h1.367L64.829,33.483z"/>
		</g>
	</g>
</g>
<g>
	<g>
		<g>
			<defs>
				<rect id="SVGID_5_" x="51.406" y="5.5" width="104.687" height="12.773"/>
			</defs>
			<clipPath id="SVGID_6_">
				<use xlink:href="#SVGID_5_"  overflow="visible"/>
			</clipPath>
			<path clip-path="url(#SVGID_6_)" fill="#697482" d="M147.093,7.143h-2.111v3.917h-3.958V7.143h-2.119v9.994h2.119v-4.314h3.958
				v4.314h2.111V7.143z M134.508,11.583c0.255,0.376,0.383,0.94,0.383,1.692s-0.127,1.325-0.379,1.719
				c-0.253,0.394-0.594,0.591-1.021,0.591c-0.529,0-0.915-0.178-1.159-0.533c-0.244-0.356-0.366-0.943-0.366-1.764v-0.225
				c0.009-0.729,0.132-1.252,0.369-1.569c0.237-0.317,0.613-0.475,1.128-0.475C133.904,11.019,134.253,11.207,134.508,11.583
				 M131.965,10.486h-0.082c0.055-0.693,0.082-1.197,0.082-1.511V6.5h-2.085v10.637h1.593l0.35-0.841h0.143
				c0.511,0.652,1.215,0.978,2.112,0.978c0.907,0,1.624-0.347,2.149-1.039c0.527-0.693,0.79-1.671,0.79-2.933
				c0-1.226-0.255-2.191-0.766-2.895c-0.51-0.704-1.216-1.056-2.119-1.056C133.175,9.351,132.453,9.729,131.965,10.486
				 M122.976,13.302c0-0.793,0.126-1.372,0.38-1.736c0.253-0.365,0.635-0.547,1.145-0.547c0.397,0,0.688,0.138,0.872,0.413
				c0.184,0.276,0.277,0.69,0.277,1.241v4.464h2.092v-4.984c0-0.979-0.224-1.691-0.667-2.136c-0.444-0.444-1.1-0.666-1.965-0.666
				c-0.502,0-0.952,0.098-1.351,0.294s-0.701,0.471-0.905,0.827h-0.186c-0.405-0.748-1.18-1.121-2.324-1.121
				c-0.501,0-0.945,0.099-1.333,0.297c-0.387,0.198-0.684,0.473-0.889,0.824h-0.116l-0.28-0.978h-1.593v7.643h2.085v-3.596
				c0-0.898,0.121-1.542,0.362-1.934c0.242-0.392,0.629-0.588,1.163-0.588c0.396,0,0.687,0.138,0.871,0.413
				c0.185,0.276,0.276,0.69,0.276,1.241v4.464h2.085V13.302z M109.953,13.288h1.894v2.085c-0.456,0.091-0.904,0.137-1.347,0.137
				c-0.847,0-1.493-0.286-1.938-0.858c-0.444-0.572-0.666-1.4-0.666-2.485c0-1.039,0.275-1.866,0.826-2.481
				c0.552-0.616,1.285-0.923,2.201-0.923c0.789,0,1.547,0.182,2.277,0.547l0.704-1.696c-0.953-0.41-1.942-0.615-2.967-0.615
				c-1.637,0-2.916,0.451-3.84,1.354c-0.922,0.902-1.384,2.16-1.384,3.773c0,1.659,0.398,2.932,1.193,3.818
				c0.795,0.886,1.947,1.33,3.456,1.33c0.592,0,1.172-0.043,1.739-0.127s1.173-0.231,1.814-0.441v-5.181h-3.965V13.288
				L109.953,13.288z M99.062,17.14c0.414-0.089,0.805-0.224,1.17-0.406V15.12c-0.447,0.21-0.875,0.363-1.285,0.458
				c-0.411,0.096-0.847,0.144-1.307,0.144c-0.593,0-1.053-0.166-1.381-0.499s-0.504-0.795-0.525-1.388h4.928v-1.012
				c0-1.084-0.3-1.934-0.902-2.549c-0.601-0.616-1.441-0.923-2.521-0.923c-1.131,0-2.017,0.35-2.656,1.049
				c-0.64,0.7-0.961,1.69-0.961,2.97c0,1.244,0.347,2.206,1.039,2.885c0.692,0.679,1.655,1.019,2.885,1.019
				C98.143,17.274,98.648,17.229,99.062,17.14 M98.305,11.255c0.261,0.28,0.395,0.677,0.403,1.192h-2.925
				c0.036-0.515,0.18-0.912,0.43-1.192c0.251-0.281,0.597-0.421,1.039-0.421S98.045,10.974,98.305,11.255 M89.855,11.583
				c0.255,0.376,0.383,0.94,0.383,1.692s-0.127,1.325-0.38,1.719s-0.594,0.591-1.022,0.591c-0.528,0-0.915-0.178-1.158-0.533
				c-0.244-0.356-0.365-0.943-0.365-1.764v-0.225c0.009-0.729,0.132-1.252,0.368-1.569c0.237-0.317,0.613-0.475,1.128-0.475
				C89.252,11.019,89.601,11.207,89.855,11.583 M87.312,10.486H87.23c0.054-0.693,0.082-1.197,0.082-1.511V6.5h-2.086v10.637h1.594
				l0.348-0.841h0.145c0.51,0.652,1.214,0.978,2.111,0.978c0.907,0,1.624-0.347,2.15-1.039c0.525-0.693,0.79-1.671,0.79-2.933
				c0-1.226-0.256-2.191-0.767-2.895c-0.51-0.704-1.217-1.056-2.118-1.056C88.522,9.351,87.8,9.729,87.312,10.486 M81.82,9.744
				c-0.403,0.262-0.724,0.607-0.96,1.035h-0.104L80.45,9.494h-1.58v7.643h2.085v-3.89c0-0.615,0.186-1.094,0.558-1.435
				c0.371-0.342,0.89-0.513,1.556-0.513c0.24,0,0.445,0.023,0.614,0.068l0.157-1.955c-0.187-0.041-0.421-0.061-0.704-0.061
				C82.662,9.351,82.223,9.482,81.82,9.744 M75.576,17.14c0.414-0.089,0.804-0.224,1.168-0.406V15.12
				c-0.446,0.21-0.875,0.363-1.285,0.458c-0.41,0.096-0.845,0.144-1.305,0.144c-0.594,0-1.054-0.166-1.381-0.499
				c-0.328-0.333-0.505-0.795-0.527-1.388h4.929v-1.012c0-1.084-0.301-1.934-0.901-2.549c-0.603-0.616-1.443-0.923-2.523-0.923
				c-1.13,0-2.015,0.35-2.655,1.049c-0.641,0.7-0.961,1.69-0.961,2.97c0,1.244,0.346,2.206,1.039,2.885
				c0.693,0.679,1.654,1.019,2.885,1.019C74.655,17.274,75.161,17.229,75.576,17.14 M74.817,11.255
				c0.259,0.28,0.394,0.677,0.402,1.192h-2.926c0.037-0.515,0.18-0.912,0.431-1.192c0.251-0.281,0.598-0.421,1.039-0.421
				C74.206,10.834,74.557,10.974,74.817,11.255 M65.472,13.09c-0.292,1.048-0.463,1.782-0.513,2.201
				c-0.027-0.182-0.097-0.507-0.208-0.974c-0.112-0.467-0.22-0.876-0.325-1.227l-1.88-5.947h-2.139l3.39,9.994h2.312l3.396-9.994
				h-2.139L65.472,13.09z"/>
		</g>
	</g>
</g>
</svg>
