<?xml version="1.0" encoding="utf-8"?>
<!-- Generator: Adobe Illustrator 15.1.0, SVG Export Plug-In . SVG Version: 6.00 Build 0)  -->
<!DOCTYPE svg PUBLIC "-//W3C//DTD SVG 1.1//EN" "http://www.w3.org/Graphics/SVG/1.1/DTD/svg11.dtd">
<svg version="1.1" id="Ebene_1" xmlns="http://www.w3.org/2000/svg" xmlns:xlink="http://www.w3.org/1999/xlink" x="0px" y="0px"
	 width="300px" height="60px" viewBox="0 0 300 60" enable-background="new 0 0 300 60" xml:space="preserve">
<g>
	<path fill="#687482" d="M262.182,49.682h10.246l6.674-9.483l6.205,9.483h10.362L284.722,34.46l9.25-13.231h-9.777l-4.859,7.728
		l-5.034-7.728h-10.362l9.483,13.231L262.182,49.682z M249.946,12.272c0,2.81,2.283,5.094,5.093,5.094
		c2.811,0,5.094-2.284,5.094-5.094s-2.283-5.093-5.094-5.093C252.229,7.179,249.946,9.462,249.946,12.272 M250.648,49.682h8.782
		V21.229h-8.782V49.682z M231.329,49.682h8.782V28.255h6.498v-7.026h-6.498v-4.507c0-3.747,1.405-4.625,4.215-4.625
		c1.054,0,1.873,0.234,2.869,0.585l0.409-7.435c-1.64-0.41-3.396-0.527-5.152-0.527c-9.542,0-11.123,5.269-11.123,11.475v5.034
		h-5.796v7.026h5.796V49.682z"/>
</g>
<rect x="198.252" y="54.073" fill="#8B211A" width="29.272" height="2.927"/>
<g>
	<path fill="#687482" d="M167.751,49.682h8.781V35.514c0-3.688,0.703-7.259,5.269-7.259c4.508,0,4.567,4.215,4.567,7.493v13.934
		h8.782V33.992c0-7.611-1.641-13.465-10.538-13.465c-4.274,0-7.144,2.342-8.314,4.566h-0.117v-3.864h-8.43V49.682z M142.636,32.236
		c0.234-2.752,2.342-5.386,6.206-5.386c3.161,0,5.444,2.458,5.387,5.386H142.636z M155.516,40.256
		c-1.464,1.991-3.396,3.454-6.265,3.454c-3.395,0-5.913-2.166-6.615-5.503h20.373v-2.751c0-9.075-5.151-14.929-13.348-14.929
		c-8.782,0-15.807,5.854-15.807,14.929c0,9.074,7.025,14.929,15.807,14.929c4.567,0,9.191-2.05,12.002-5.621L155.516,40.256z
		 M130.283,21.229h-7.728v-8.43h-8.781v8.43h-5.621v7.026h5.621v13.524c0,6.205,4.508,8.605,10.362,8.605
		c2.049,0,4.215-0.176,6.147-0.879v-7.317c-0.761,0.702-2.634,0.819-3.571,0.819c-3.805,0-4.157-2.225-4.157-5.269v-9.484h7.728
		V21.229z M109.968,21.229h-7.727v-8.43h-8.782v8.43h-5.62v7.026h5.62v13.524c0,6.205,4.508,8.605,10.362,8.605
		c2.049,0,4.215-0.176,6.147-0.879v-7.317c-0.761,0.702-2.634,0.819-3.571,0.819c-3.805,0-4.156-2.225-4.156-5.269v-9.484h7.727
		V21.229z M77.009,37.212v1.873c0,3.513-3.22,5.328-6.674,5.328c-1.932,0-4.157-0.995-4.157-3.104c0-3.863,5.971-4.098,8.665-4.098
		H77.009z M77.009,49.682h8.079v-14.46c0-9.485-2.752-14.695-12.997-14.695c-4.625,0-9.309,1.522-12.529,4.566l4.684,4.801
		c1.873-2.107,4.274-3.396,7.142-3.396c3.045,0,5.621,1.991,5.621,5.094c-7.318,0-19.261,0.175-19.261,10.011
		c0,5.737,4.8,8.782,10.128,8.782c3.571,0,7.084-1.229,9.016-4.273h0.117V49.682z M5,49.682h9.133v-31.79h0.117l10.479,31.79h6.967
		l10.889-31.79h0.118v31.79h9.132V8.233H38.078L28.476,35.28h-0.117L18.816,8.233H5V49.682z"/>
</g>
</svg>
